<svg width="261" height="48" viewBox="0 0 261 48" fill="none" xmlns="http://www.w3.org/2000/svg">
<g clip-path="url(#clip0_20196_8980)">
<path d="M58.6078 33.2868H63.0793C66.1734 33.2868 67.8269 32.0319 68.6852 30.7749C70.0024 28.8765 70.3678 26.9169 70.3678 24.8659C70.3678 22.8128 70.0024 20.8532 68.6852 18.9538C67.8269 17.6979 66.1734 16.443 63.0793 16.443H58.6078V33.2868ZM55.5449 13.8067H62.8976C64.9496 13.8709 67.1231 14.0225 68.8991 15.1559C72.1146 17.209 73.5854 20.6685 73.5854 24.8659C73.5854 29.0613 72.1146 32.5218 68.8991 34.5728C67.1231 35.7082 64.9496 35.8608 62.8976 35.921H55.5449V13.8067ZM77.2607 35.921V13.8087H91.1339V16.441H80.3237V23.3359H90.6129V25.9662H80.3237V33.2868H91.3799V35.921H77.2607ZM114.472 13.8087V35.921H110.674L99.4966 17.1457H99.4333V35.921H96.7077V13.8087H100.904L111.685 32.0911H111.745V13.8087H114.472ZM120.261 35.921V13.8087H123.325V23.3028H133.829V13.8087H136.892V35.921H133.829V25.935H123.325V35.921H120.261ZM146.478 27.5283H154.717L150.706 16.8395L146.478 27.5283ZM139.892 35.921L149.205 13.8067H152.482L161.423 35.921H158.085L155.696 30.1616H145.437L143.047 35.921H139.892ZM184.759 16.0133H184.699L177.624 35.921H174.748L167.672 16.0133H167.61V35.921H164.549V13.8087H170.031L176.399 32.0319H176.462L182.71 13.8087H187.824V35.921H184.759V16.0133ZM215.235 19.5049C215.084 17.3917 212.815 15.9822 210.549 15.9822C205.097 15.9822 204.088 20.9757 204.088 24.8659C204.088 29.4277 205.467 33.7455 210.275 33.7455C212.633 33.7455 214.776 32.582 215.142 30.2238H218.36C218.052 33.9293 214.316 36.3808 209.997 36.3808C203.474 36.3808 200.869 31.052 200.869 24.8659C200.869 19.4437 203.261 13.133 210.672 13.3479C214.928 13.4704 218.114 15.5535 218.45 19.5049H215.235ZM226.446 27.5283H234.682L230.672 16.8395L226.446 27.5283ZM219.86 35.921L229.169 13.8067H232.447L241.392 35.921H238.051L235.663 30.1616H225.403L223.013 35.921H219.86ZM252.261 23.5477C252.63 23.5477 256.245 23.7314 256.245 19.9938C256.245 16.2592 252.63 16.443 252.261 16.443H247.455V23.5477H252.261ZM244.39 13.8067H251.804C255.908 13.626 259.461 15.1559 259.461 19.9938C259.461 24.6199 255.693 26.0886 251.619 26.181H247.455V35.921H244.39V13.8067ZM263.135 35.921H266.199V13.8087H263.135V35.921ZM276.765 16.443H269.353V13.8067H287.239V16.443H279.827V35.921H276.765V16.443ZM292.201 27.5283H300.442L296.429 16.8395L292.201 27.5283ZM285.618 35.921L294.929 13.8067H298.206L307.15 35.921H303.81L301.421 30.1616H291.16L288.771 35.921H285.618ZM310.3 35.921V13.8087H313.364V33.2868H323.656V35.921H310.3ZM34.2186 9.46973L7.4209 30.3975V9.46973H34.2186ZM36.0056 11.2547V38.0554H25.0317L36.0056 11.2547Z" fill="black"/>
</g>
<defs>
<clipPath id="clip0_20196_8980">
<rect width="316.235" height="29.1137" fill="white" transform="translate(7.4209 8.94141)"/>
</clipPath>
</defs>
</svg>
