<svg width="202" height="48" viewBox="0 0 202 48" fill="none" xmlns="http://www.w3.org/2000/svg">
<g clip-path="url(#clip0_20196_8916)">
<path d="M48.7519 9.91333V9.90651C48.7451 9.68128 48.6495 9.45606 48.4721 9.29226C48.1172 8.96466 47.5712 8.98513 47.2436 9.34003L44.3908 12.4181C44.2474 12.5751 44.227 12.8139 44.3498 12.9982C44.4931 13.2098 44.7798 13.2576 44.9913 13.1142L46.2881 12.2202C45.8854 13.2234 45.1551 15.0935 43.9676 18.1511C41.5516 24.3481 37.5044 34.7221 37.1768 35.2067L37.0607 35.3159C36.699 35.6639 36.2895 36.0598 35.9551 36.5444C35.2862 37.5272 34.9723 38.742 35.0747 39.9227C34.0509 41.1922 32.9453 42.2569 31.7782 43.0963C31.2049 43.5263 30.5497 43.929 29.7785 44.3316C29.6079 44.4204 29.4304 44.5091 29.253 44.591C29.0755 44.6729 28.9254 44.7411 28.7684 44.8026C28.4476 44.9254 28.1337 45.0005 27.8607 45.0278C27.574 45.0551 27.3761 45.0141 27.2806 44.9732C27.2396 44.9527 27.2055 44.9322 27.1645 44.8913C27.1372 44.8708 27.1099 44.8162 27.069 44.7343C26.9871 44.5705 26.9188 44.2839 26.8301 43.9563L26.7755 43.7379C26.7277 43.5741 26.6731 43.4034 26.6185 43.2328L26.4957 42.8916C26.4206 42.7005 26.3455 42.5094 26.2568 42.3251C25.8405 41.4379 25.3491 40.6598 24.8782 39.9091C24.4414 39.2129 24.0251 38.5509 23.7316 37.8889C23.4108 37.1791 23.2607 36.558 23.2811 35.9779C23.288 35.4524 23.4245 34.8654 23.5814 34.1761L23.6838 33.712C23.7725 33.2957 23.8681 32.7974 23.9022 32.2515C23.9227 31.9375 23.9159 31.6782 23.8954 31.4325C23.8886 31.2823 23.8681 31.139 23.8408 31.0025L23.8203 30.8865C23.7998 30.7841 23.7862 30.6885 23.7589 30.593C23.6156 30.0197 23.3903 29.5146 23.2129 29.1324C22.9945 28.7025 22.7693 28.2998 22.5509 27.9312C22.1482 27.2556 21.7319 26.5526 21.5544 25.9384C21.4725 25.6381 21.4452 25.3719 21.4589 25.1194C21.4725 24.9829 21.4862 24.8327 21.5066 24.6757C21.5339 24.4096 21.5749 24.1093 21.5885 23.7885C21.5954 23.5564 21.6022 23.2357 21.5339 22.8671L21.4179 22.4371C21.3974 22.3894 21.377 22.3348 21.3428 22.2665L21.2678 22.1095C21.2405 22.0618 21.2063 22.0072 21.1586 21.9389C21.1244 21.8843 21.0835 21.8365 21.0357 21.7683C20.9879 21.7137 20.9402 21.6659 20.8856 21.6181C20.831 21.5704 20.7832 21.5226 20.7149 21.468C20.6603 21.4271 20.6057 21.3929 20.5443 21.3588C20.4829 21.3247 20.4283 21.2906 20.3396 21.2496L20.1894 21.195C19.9301 21.0926 19.6298 21.0653 19.4387 21.0653C19.1725 21.0722 18.9746 21.0995 18.8449 21.1199C18.8244 21.1199 18.8108 21.1268 18.7903 21.1268C18.7562 21.0995 18.7152 21.0517 18.6675 20.9971L18.5583 20.8674C18.4559 20.7446 18.333 20.6012 18.1897 20.4511C18.0737 20.3351 17.9372 20.2122 17.787 20.103C17.6369 19.9938 17.4594 19.8983 17.241 19.8095C16.8861 19.6662 16.463 19.6116 16.0603 19.6457C15.6781 19.6799 15.371 19.7686 15.1389 19.8437C14.7977 19.9665 14.4974 20.0962 14.238 20.219C14.1152 20.2736 13.9992 20.3282 13.8832 20.376C13.7194 20.4511 13.5829 20.492 13.4464 20.533C13.2894 20.5739 13.1461 20.6012 13.0096 20.6149C12.7093 20.649 12.3953 20.6354 12.0677 20.5808C11.4262 20.4716 10.7778 20.2054 10.1772 19.8027C9.62437 19.4342 9.07837 18.9359 8.50508 18.2876C7.97273 17.687 7.46768 17.0113 6.97628 16.3561C6.77836 16.0899 6.55996 15.7828 6.47124 15.5508C6.43029 15.4484 6.41664 15.3733 6.41664 15.2982C6.41664 15.2095 6.43029 15.0935 6.46441 14.9706C6.51219 14.7932 6.59409 14.5816 6.68281 14.3427C6.74424 14.1926 6.80566 14.0288 6.86708 13.8513C6.93533 13.6602 7.02406 13.3736 7.07866 13.0392C7.12643 12.7389 7.13326 12.4386 7.11278 12.1587C7.08548 11.7629 7.01723 11.4148 6.95581 11.1077C6.93533 10.9985 6.91486 10.8893 6.89438 10.7869C6.81931 10.3911 6.80566 10.1044 6.84661 9.91333C6.86708 9.81096 6.89438 9.72906 6.94898 9.62668C7.01041 9.51748 7.09913 9.39463 7.20833 9.27178C7.36531 9.08751 7.56323 8.88276 7.75433 8.67801L11.6787 4.45336C11.9107 4.20083 12.1291 3.96878 12.3475 3.79133C12.5932 3.58658 12.8116 3.47056 13.1461 3.36819C13.3849 3.29311 13.6648 3.23169 13.9514 3.16344L18.0805 2.19429C18.8722 2.01002 19.6161 1.83257 20.2031 1.98954C20.4351 2.05097 20.6672 2.20794 20.8241 2.40587C20.9606 2.59014 21.0152 2.78124 20.9606 2.95186C20.8583 3.25899 20.9743 3.60023 21.2541 3.77768C22.0185 4.27591 22.8034 4.74 23.5883 5.15633C23.9841 5.3679 24.3868 5.57265 24.7963 5.7774L24.9532 5.85247C25.1034 5.92755 25.2604 6.00262 25.4515 6.0777C25.6426 6.14595 26.0452 6.28927 26.5093 6.14595C26.7141 6.0777 26.912 5.9412 27.0485 5.78422C27.1509 5.6682 27.2123 5.559 27.301 5.4225C27.3488 5.34743 27.3829 5.286 27.4239 5.23823C27.4375 5.22458 27.4512 5.21093 27.4853 5.19728C27.6355 5.12903 27.9767 5.16315 28.277 5.19728L32.5017 5.6136C32.918 5.65455 33.307 5.6955 33.6414 5.832C33.9281 5.9412 34.167 6.18007 34.3581 6.53497C34.4877 6.78067 34.6038 7.04684 34.7266 7.33349C34.7812 7.46317 34.8358 7.59284 34.8904 7.71569L37.0061 12.5887L37.5112 12.384L35.607 7.42222C35.5592 7.29254 35.5115 7.16969 35.4637 7.04002C35.3545 6.75337 35.2453 6.4599 35.102 6.1596C34.9723 5.8866 34.8358 5.68185 34.672 5.51123C34.4946 5.30648 34.2557 5.14268 33.9963 5.01983C33.5527 4.81508 33.0818 4.74683 32.6723 4.6854L28.4272 4.07798C28.277 4.05751 28.1269 4.03703 27.9562 4.01656C27.6901 3.99608 27.3829 3.98243 27.0417 4.11211C26.8574 4.18036 26.6868 4.29638 26.5571 4.43288C26.4411 4.55573 26.3592 4.67175 26.2841 4.78778C26.25 4.84238 26.1886 4.9311 26.1544 4.97205C26.1271 4.97205 26.0384 4.96523 25.9156 4.91063C25.7927 4.85603 25.6562 4.78095 25.5129 4.70588L25.3764 4.63081C24.9942 4.42606 24.6188 4.21448 24.2435 3.98926C23.6429 3.63436 23.0423 3.24534 22.4553 2.84266C22.4621 2.69251 22.4485 2.54236 22.4212 2.39904C22.3666 2.09192 22.2369 1.80527 22.0526 1.52544C21.7114 1.02722 21.2063 0.658674 20.633 0.481224C20.1689 0.3379 19.6571 0.290125 19.0565 0.344725C18.5924 0.385675 18.1692 0.4744 17.7597 0.556299L13.9378 1.33435C13.8081 1.36165 13.6852 1.38895 13.5556 1.40942C13.2621 1.47084 12.9618 1.52544 12.6274 1.61417C12.3407 1.68924 12.095 1.78479 11.8698 1.89399C11.6377 2.01002 11.4057 2.15334 11.16 2.34444C10.8324 2.60379 10.573 2.86314 10.3205 3.12249L6.25284 7.23112C6.04809 7.43587 5.84334 7.64062 5.62494 7.88632C5.42019 8.11154 5.25639 8.33676 5.12672 8.55516C4.96292 8.82133 4.84007 9.14211 4.76499 9.46288C4.6285 10.084 4.69674 10.6504 4.76499 11.1282L4.81959 11.4762C4.87419 11.7834 4.91514 12.0495 4.92879 12.2884C4.94244 12.5751 4.90832 12.7593 4.78547 13.1074C4.74452 13.2234 4.68992 13.3463 4.63532 13.476C4.52612 13.7353 4.40327 14.0288 4.3009 14.3837C4.20535 14.7113 4.15757 15.0184 4.15757 15.3119C4.15075 15.6327 4.21217 15.9944 4.3282 16.3152C4.53295 16.8953 4.84007 17.3252 5.09259 17.6801L5.14719 17.7484C5.63859 18.4309 6.15046 19.1339 6.73059 19.8232C7.42673 20.6354 8.10923 21.2701 8.82585 21.7683C9.69945 22.3757 10.6413 22.7716 11.6241 22.9627C12.1701 23.065 12.7093 23.0923 13.228 23.0446C13.4941 23.0241 13.7671 22.9763 14.0538 22.9012C14.3131 22.833 14.5861 22.7374 14.8182 22.6419C14.9683 22.5805 15.1116 22.519 15.2481 22.4576C15.4938 22.3484 15.7191 22.2529 15.917 22.1914C16.0467 22.1505 16.1627 22.1232 16.2378 22.1164C16.2787 22.1164 16.2992 22.1164 16.3128 22.1164L16.3401 22.13C16.3606 22.1437 16.3811 22.1641 16.4152 22.2051C16.4835 22.2733 16.5585 22.3621 16.6473 22.4781L16.7906 22.6487C16.9544 22.833 17.1728 23.0855 17.5345 23.3176C17.7734 23.4609 17.9918 23.5496 18.1965 23.5906C18.4013 23.6383 18.6333 23.6588 18.8859 23.6452C18.9541 23.6383 19.0155 23.6315 19.0701 23.6247C19.0701 23.6452 19.0701 23.6656 19.0701 23.6929C19.0633 23.8909 19.036 24.1024 19.0019 24.3413C18.9814 24.5188 18.9541 24.7099 18.9336 24.9146C18.8859 25.4606 18.9405 26.0407 19.1042 26.6345C19.3704 27.5627 19.8072 28.3203 20.1894 28.9891L20.3259 29.2348C20.4965 29.5283 20.7081 29.9105 20.8856 30.2722C21.063 30.6476 21.1722 30.9479 21.2336 31.2072C21.3019 31.528 21.3224 31.801 21.3019 32.0945C21.2814 32.3811 21.2336 32.7224 21.1313 33.1592C21.0971 33.3298 21.0562 33.5004 21.0084 33.6847C20.8514 34.3399 20.6808 35.0838 20.6535 35.9233C20.6467 36.1144 20.6603 36.3055 20.674 36.4898C20.6808 36.5648 20.6876 36.6467 20.6945 36.7491C20.7286 37.0085 20.7764 37.2746 20.8378 37.5408L20.8924 37.7387C20.9402 37.923 20.9948 38.1073 21.0562 38.2711L21.1859 38.626C21.22 38.701 21.2473 38.7761 21.2814 38.8512L21.3292 38.9672C21.7114 39.8203 22.1687 40.5574 22.6123 41.2672L22.6669 41.356C23.1515 42.134 23.5473 42.7824 23.8476 43.4307C23.9022 43.5468 23.95 43.6696 23.9978 43.7856L24.0524 43.9153C24.0728 43.9836 24.1001 44.0586 24.1206 44.1269C24.1547 44.2224 24.1889 44.3248 24.2162 44.4272C24.2366 44.5159 24.2639 44.6046 24.2844 44.7002C24.3663 45.021 24.4618 45.4168 24.6666 45.8673C24.8304 46.2222 25.042 46.5225 25.274 46.7545C25.5129 47.0139 25.8337 47.2323 26.2159 47.4029C26.5093 47.5326 26.8369 47.6145 27.2396 47.6622C27.3488 47.6759 27.4648 47.6759 27.5809 47.6759C27.7651 47.6759 27.9494 47.6622 28.161 47.6349C28.6933 47.5599 29.2052 47.4165 29.7239 47.1981C29.9286 47.1094 30.147 47.007 30.3927 46.8705C30.6043 46.7613 30.8022 46.6453 31.0002 46.5225C31.7441 46.0857 32.4744 45.5465 33.2319 44.8708C34.631 43.6082 35.7503 42.0862 36.4806 40.4755L36.5011 40.4278C36.5625 40.2981 36.583 40.1548 36.5625 40.0183C36.4192 39.1105 36.6444 38.1209 37.1631 37.3702C37.4088 37.0085 37.7637 36.6672 38.1323 36.3123L38.1937 36.2577C38.4189 36.0393 39.818 32.579 44.7115 20.1508C45.8922 17.1478 47.0252 14.2745 47.5917 12.8754L47.967 14.4588C48.0148 14.6635 48.2059 14.8205 48.4311 14.8137C48.6837 14.8068 48.8884 14.5953 48.8816 14.3427L48.7519 9.91333Z" fill="#F89921"/>
<path d="M74.5981 40.7686H75.5672C76.2634 40.7686 76.7275 41.0074 76.7275 41.6967C76.7275 42.3588 76.2497 42.6727 75.5672 42.6727H75.0008V43.9217H74.5981V40.7686ZM75.5126 42.3451C76.0655 42.3451 76.3316 42.1404 76.3316 41.6967C76.3316 41.2395 76.0586 41.0893 75.5126 41.0893H75.0008V42.3451H75.5126Z" fill="black"/>
<path d="M78.8842 42.3324C78.8842 41.3223 79.4439 40.7148 80.2356 40.7148C81.0273 40.7148 81.5801 41.3291 81.5801 42.3324C81.5801 43.3493 81.0204 43.984 80.2356 43.984C79.4439 43.984 78.8842 43.3493 78.8842 42.3324ZM81.1706 42.3324C81.1706 41.5475 80.802 41.0629 80.2356 41.0629C79.6691 41.0629 79.3005 41.5475 79.3005 42.3324C79.3005 43.1241 79.6691 43.6291 80.2356 43.6291C80.802 43.6291 81.1706 43.1241 81.1706 42.3324Z" fill="black"/>
<path d="M83.6138 40.7686H84.0302L84.3646 42.4816C84.426 42.8229 84.4874 43.1573 84.5488 43.4985H84.5693C84.6376 43.1573 84.7126 42.816 84.7877 42.4816L85.2245 40.7686H85.5931L86.0299 42.4884C86.1049 42.8229 86.18 43.1641 86.2551 43.5054H86.2756C86.337 43.1641 86.3984 42.8229 86.453 42.4884L86.7874 40.7754H87.1765L86.5213 43.9285H86.0367L85.5589 42.0312C85.5043 41.7855 85.4566 41.5603 85.4088 41.3146H85.3883C85.3337 41.5603 85.2859 41.7855 85.2313 42.0312L84.7604 43.9285H84.2827L83.6138 40.7686Z" fill="black"/>
<path d="M89.4219 40.7764H91.2374V41.1108H89.8246V42.1004H91.019V42.4417H89.8246V43.5883H91.2852V43.9295H89.4219V40.7764Z" fill="black"/>
<path d="M95.3868 43.9295L94.6292 42.5986H94.0628V43.9295H93.6601V40.7764H94.6497C95.2913 40.7764 95.7485 41.0084 95.7485 41.6636C95.7485 42.155 95.4687 42.4485 95.0387 42.5577L95.8441 43.9363L95.3868 43.9295ZM94.0628 42.271H94.5951C95.0865 42.271 95.3527 42.0663 95.3527 41.6636C95.3527 41.2473 95.0865 41.104 94.5951 41.104H94.0628V42.271Z" fill="black"/>
<path d="M98.1579 40.7764H98.5606V43.9295H98.1579V40.7764Z" fill="black"/>
<path d="M101.127 40.7764H101.543L102.683 42.7556L103.024 43.4108H103.045C103.024 43.09 102.99 42.7351 102.99 42.4075V40.7764H103.372V43.9295H102.963L101.823 41.9434L101.482 41.2951H101.461C101.482 41.6158 101.509 41.9503 101.509 42.2779V43.9295H101.127V40.7764Z" fill="black"/>
<path d="M107.215 40.7212C107.645 40.7212 107.931 40.9191 108.116 41.1102L107.883 41.3627C107.726 41.1921 107.529 41.0693 107.215 41.0693C106.573 41.0693 106.164 41.5607 106.164 42.3455C106.164 43.1372 106.539 43.6423 107.215 43.6423C107.44 43.6423 107.658 43.5672 107.788 43.458V42.639H107.119V42.3046H108.15V43.6286C107.945 43.8334 107.59 43.9972 107.167 43.9903C106.341 43.9903 105.747 43.3829 105.747 42.3524C105.754 41.3423 106.368 40.7212 107.215 40.7212Z" fill="black"/>
<path d="M114.749 42.9735H113.603L113.302 43.9359H112.893L113.964 40.7827H114.415L115.48 43.9359H115.056L114.749 42.9735ZM114.654 42.6528L114.504 42.175C114.394 41.8269 114.292 41.4789 114.19 41.1103H114.169C114.067 41.4789 113.964 41.8201 113.855 42.175L113.698 42.6528H114.654Z" fill="black"/>
<path d="M117.63 40.7827H119.452V41.1171H118.032V42.1818H119.233V42.5163H118.032V43.929H117.63V40.7827Z" fill="black"/>
<path d="M123.437 43.9422L122.68 42.6113H122.113V43.9422H121.711V40.7891H122.7C123.342 40.7891 123.799 41.0211 123.799 41.6763C123.799 42.1677 123.519 42.4612 123.089 42.5704L123.895 43.949L123.437 43.9422ZM122.107 42.2837H122.639C123.13 42.2837 123.397 42.079 123.397 41.6763C123.397 41.26 123.13 41.1167 122.639 41.1167H122.107V42.2837Z" fill="black"/>
<path d="M126.202 40.7891H126.604V43.9422H126.202V40.7891Z" fill="black"/>
<path d="M130.399 40.7354C130.774 40.7354 131.075 40.9196 131.259 41.1244L131.034 41.3769C130.863 41.1994 130.665 41.0834 130.406 41.0834C129.805 41.0834 129.403 41.5748 129.403 42.3597C129.403 43.1514 129.785 43.6564 130.385 43.6564C130.686 43.6564 130.904 43.5336 131.109 43.3084L131.334 43.5541C131.088 43.8407 130.774 44.0113 130.379 44.0113C129.587 44.0113 128.993 43.4039 128.993 42.3733C128.993 41.3496 129.594 40.7354 130.399 40.7354Z" fill="black"/>
<path d="M135.067 42.9877H133.921L133.62 43.95H133.211L134.282 40.7969H134.733L135.798 43.95H135.374L135.067 42.9877ZM134.965 42.6601L134.815 42.1823C134.706 41.8343 134.603 41.4862 134.501 41.1176H134.48C134.378 41.4862 134.276 41.8274 134.166 42.1823L134.009 42.6601H134.965Z" fill="black"/>
<path d="M137.559 41.6906C137.797 41.5336 137.92 41.3698 137.92 41.09C137.907 41.0968 137.893 41.0968 137.879 41.0968C137.743 41.0968 137.627 41.0081 137.627 40.858C137.627 40.6873 137.736 40.5918 137.879 40.5918C138.064 40.5918 138.18 40.7488 138.18 41.0286C138.18 41.4108 137.995 41.6838 137.668 41.8817L137.559 41.6906Z" fill="black"/>
<path d="M140.616 43.2606C140.841 43.4995 141.155 43.6564 141.49 43.6564C141.906 43.6564 142.152 43.4517 142.152 43.1446C142.152 42.8238 141.919 42.7214 141.626 42.5849L141.176 42.387C140.882 42.2641 140.534 42.0389 140.534 41.5748C140.534 41.0971 140.957 40.7354 141.53 40.7354C141.906 40.7354 142.233 40.8923 142.459 41.1244L142.247 41.3837C142.056 41.1994 141.817 41.0834 141.53 41.0834C141.176 41.0834 140.937 41.2609 140.937 41.5475C140.937 41.8478 141.217 41.9638 141.462 42.073L141.913 42.2641C142.274 42.4211 142.561 42.6395 142.561 43.1036C142.561 43.6018 142.145 44.0045 141.483 44.0045C141.039 44.0045 140.657 43.8202 140.384 43.5404L140.616 43.2606Z" fill="black"/>
<path d="M148.847 40.7417C149.277 40.7417 149.564 40.9396 149.748 41.1307L149.516 41.3832C149.359 41.2126 149.161 41.0898 148.847 41.0898C148.205 41.0898 147.796 41.5812 147.796 42.366C147.796 43.1577 148.171 43.6628 148.847 43.6628C149.072 43.6628 149.291 43.5877 149.42 43.4785V42.6595H148.751V42.3251H149.782V43.6491C149.577 43.8539 149.222 44.0177 148.799 44.0109C147.973 44.0109 147.38 43.4034 147.38 42.3729C147.386 41.3628 148.001 40.7417 148.847 40.7417Z" fill="black"/>
<path d="M153.972 43.9564L153.215 42.6255H152.648V43.9564H152.246V40.8032H153.235C153.877 40.8032 154.334 41.0353 154.334 41.6905C154.334 42.1819 154.054 42.4753 153.624 42.5845L154.43 43.9632L153.972 43.9564ZM152.648 42.2979H153.181C153.672 42.2979 153.938 42.0931 153.938 41.6905C153.938 41.2741 153.672 41.1308 153.181 41.1308H152.648V42.2979Z" fill="black"/>
<path d="M156.559 42.3656C156.559 41.3555 157.119 40.748 157.91 40.748C158.695 40.748 159.255 41.3623 159.255 42.3656C159.255 43.3825 158.695 44.0172 157.91 44.0172C157.112 44.0104 156.559 43.3757 156.559 42.3656ZM158.839 42.3656C158.839 41.5807 158.47 41.0961 157.91 41.0961C157.344 41.0961 156.975 41.5807 156.975 42.3656C156.975 43.1573 157.344 43.6623 157.91 43.6623C158.47 43.6623 158.839 43.1504 158.839 42.3656Z" fill="black"/>
<path d="M161.289 40.8032H161.705L162.04 42.5231C162.101 42.8644 162.163 43.1988 162.224 43.54H162.244C162.313 43.1988 162.388 42.8575 162.463 42.5231L162.9 40.81H163.268L163.705 42.5299C163.78 42.8644 163.855 43.2056 163.93 43.5469H163.951C164.012 43.2056 164.074 42.8644 164.128 42.5299L164.463 40.8169H164.852L164.196 43.97H163.712L163.234 42.0727C163.18 41.827 163.132 41.6017 163.084 41.356H163.063C163.009 41.6017 162.961 41.827 162.907 42.0727L162.436 43.97H161.958L161.289 40.8032Z" fill="black"/>
<path d="M167.752 41.144H166.796V40.8096H169.11V41.144H168.155V43.9627H167.759L167.752 41.144Z" fill="black"/>
<path d="M171.376 40.8096H171.779V42.1336H173.246V40.8096H173.649V43.9627H173.246V42.4749H171.779V43.9627H171.376V40.8096Z" fill="black"/>
<path d="M71.1036 41.9287H50.6219V42.4679H71.1036V41.9287Z" fill="#F89921"/>
<path d="M197.611 41.9287H177.13V42.4679H197.611V41.9287Z" fill="#F89921"/>
<path d="M67.3159 25.5355C67.3159 28.2245 66.5856 30.3675 65.1251 31.9714C63.6645 33.5753 61.6785 34.3738 59.1601 34.3738C56.7099 34.3738 54.6829 33.548 53.0722 31.9031C51.4615 30.2515 50.6561 28.1699 50.6561 25.6447C50.6561 23.1535 51.4547 21.0719 53.0585 19.4066C54.6624 17.7413 56.6621 16.9087 59.0713 16.9087C60.6138 16.9087 61.9788 17.1953 63.1527 17.7755C64.3334 18.3488 65.3093 19.2019 66.0806 20.3348L64.6815 21.4541C64.0809 20.5532 63.3028 19.8639 62.3541 19.3862C61.4055 18.9084 60.3408 18.6695 59.1601 18.6695C57.2422 18.6695 55.652 19.3384 54.4031 20.6761C53.1541 22.0138 52.5262 23.7064 52.5262 25.747C52.5262 27.6853 53.1609 29.3097 54.4372 30.6269C55.7066 31.9441 57.2832 32.6061 59.1601 32.6061C60.8185 32.6061 62.2245 32.1011 63.3711 31.0842C64.5177 30.0672 65.1456 28.791 65.2616 27.2553H60.0132V25.5286H67.3159V25.5355Z" fill="black"/>
<path d="M81.976 34.0326H75.6356V17.2432H77.5056V32.3127H81.976V34.0326Z" fill="black"/>
<path d="M105.242 25.6378C105.242 28.0948 104.396 30.1628 102.697 31.8486C100.997 33.5275 98.9155 34.3738 96.4449 34.3738C93.9674 34.3738 91.879 33.5343 90.1864 31.8486C88.4938 30.1628 87.6475 28.0948 87.6475 25.6447C87.6475 23.1604 88.487 21.0788 90.1659 19.4135C91.8448 17.7482 93.9401 16.9155 96.4449 16.9155C98.9428 16.9155 101.038 17.7482 102.717 19.4135C104.403 21.0788 105.242 23.1535 105.242 25.6378ZM103.372 25.6378C103.372 23.6722 102.71 22.0206 101.379 20.6829C100.055 19.3452 98.4105 18.6695 96.4449 18.6695C94.3633 18.6695 92.6911 19.352 91.4217 20.717C90.1523 22.082 89.5175 23.72 89.5175 25.6447C89.5175 27.6103 90.1796 29.2619 91.4968 30.5996C92.814 31.9373 94.4656 32.613 96.4449 32.613C98.4036 32.613 100.042 31.9373 101.373 30.5928C102.703 29.2482 103.372 27.5966 103.372 25.6378Z" fill="black"/>
<path d="M123.363 29.2961C123.363 30.8931 122.871 32.0807 121.895 32.8655C120.919 33.6504 119.431 34.0394 117.439 34.0394H113.569V17.25H116.947C118.503 17.25 119.725 17.6322 120.599 18.4034C121.472 19.1746 121.916 20.2257 121.916 21.5702C121.916 22.5052 121.704 23.2764 121.281 23.8839C120.858 24.4913 120.264 24.8803 119.493 25.0441C120.653 25.1874 121.588 25.6584 122.298 26.4501C123.008 27.2349 123.363 28.1836 123.363 29.2961ZM120.046 21.7135C120.046 20.7649 119.786 20.0687 119.274 19.6251C118.763 19.1815 117.957 18.9631 116.858 18.9631H115.432V24.4572H116.565C117.725 24.4572 118.592 24.2319 119.172 23.7747C119.752 23.3242 120.046 22.6349 120.046 21.7135ZM121.493 29.2961C121.493 28.2655 121.117 27.4738 120.373 26.921C119.629 26.3682 118.551 26.0883 117.145 26.0883H115.439V32.3195H117.507C118.92 32.3195 119.937 32.0738 120.564 31.5824C121.179 31.091 121.493 30.3335 121.493 29.2961Z" fill="black"/>
<path d="M140.5 34.0326H131.996V17.2432H140.5V19.004H133.866V24.1023H140.5V25.8494H133.866V32.2649H140.5V34.0326Z" fill="black"/>
<path d="M156.02 34.0326H149.68V17.2432H151.55V32.3127H156.02V34.0326Z" fill="black"/>
<path d="M172.325 34.0326H163.821V17.2432H172.325V19.004H165.691V24.1023H172.325V25.8494H165.691V32.2649H172.325V34.0326Z" fill="black"/>
<path d="M197.611 34.0325H195.379L194.083 32.6266C193.318 33.1931 192.486 33.623 191.578 33.9233C190.67 34.2236 189.722 34.367 188.746 34.367C186.268 34.367 184.18 33.5275 182.487 31.8417C180.794 30.156 179.948 28.088 179.948 25.6378C179.948 23.1535 180.788 21.0719 182.467 19.4066C184.146 17.7413 186.241 16.9087 188.746 16.9087C191.243 16.9087 193.339 17.7413 195.018 19.4066C196.697 21.0719 197.543 23.1535 197.543 25.6378C197.543 26.7435 197.352 27.8082 196.963 28.8114C196.574 29.8215 196.021 30.7224 195.291 31.5209L197.611 34.0325ZM195.673 25.6378C195.673 23.6722 195.011 22.0206 193.68 20.6829C192.356 19.3452 190.711 18.6695 188.746 18.6695C186.664 18.6695 184.992 19.352 183.736 20.7102C182.473 22.0684 181.846 23.7132 181.846 25.6378C181.846 27.6034 182.501 29.2551 183.811 30.5928C185.122 31.9304 186.766 32.6061 188.746 32.6061C189.496 32.6061 190.227 32.4969 190.923 32.2717C191.619 32.0465 192.267 31.7257 192.861 31.2889L189.21 27.3304H191.428L194.055 30.1764C194.574 29.5554 194.977 28.8524 195.25 28.0812C195.523 27.3099 195.673 26.4978 195.673 25.6378Z" fill="black"/>
</g>
<defs>
<clipPath id="clip0_20196_8916">
<rect width="201.231" height="48" fill="white"/>
</clipPath>
</defs>
</svg>
