<svg width="104" height="45" viewBox="0 0 104 45" fill="none" xmlns="http://www.w3.org/2000/svg">
<g clip-path="url(#clip0_20213_9989)">
<path d="M0 3.01843V13.4378C0 25.0018 5.65992 34.9989 15.9365 41.5868L16.2389 41.7816L16.5424 41.5862C26.8201 34.9995 32.48 25.0024 32.48 13.4378V3.01843H0Z" fill="black"/>
<path d="M31.3488 4.15796H1.12897V12.8688H31.3488V4.15796Z" fill="#A41034"/>
<path d="M30.7227 14.0057C30.4309 14.1402 30.1838 14.3556 30.0107 14.6263C29.8376 14.8969 29.7458 15.2116 29.7461 15.5329C29.7461 15.9265 29.8805 16.2866 30.1067 16.5733C29.813 16.3372 29.4475 16.2086 29.0707 16.2088C28.1495 16.2088 27.4047 16.9609 27.4047 17.8865C27.4047 18.2802 27.5391 18.6397 27.7648 18.927C27.4711 18.6909 27.1056 18.5623 26.7288 18.5625C25.8081 18.5625 25.0628 19.314 25.0628 20.2402C25.0628 20.6333 25.1977 20.9934 25.4234 21.2801C25.1297 21.0442 24.7642 20.9158 24.3874 20.9161C23.4668 20.9161 22.7214 21.6677 22.7214 22.5933C22.7214 22.9977 22.8637 23.3684 23.1 23.6579C22.8196 23.429 22.4686 23.3041 22.1065 23.3045C21.6857 23.306 21.2827 23.4746 20.9862 23.7731C20.6896 24.0717 20.5238 24.4758 20.5251 24.8966C20.5244 25.105 20.5647 25.3115 20.6438 25.5044C20.7228 25.6972 20.8391 25.8726 20.986 26.0205C21.1328 26.1684 21.3074 26.2859 21.4996 26.3663C21.6919 26.4467 21.8981 26.4885 22.1065 26.4893C22.4817 26.4893 22.8273 26.3565 23.1 26.1353C22.8547 26.4358 22.7209 26.812 22.7214 27.1999C22.7199 27.6433 22.8946 28.0691 23.207 28.3837C23.5194 28.6984 23.944 28.876 24.3874 28.8777C24.7794 28.8777 25.1389 28.7405 25.4234 28.5137C25.2696 28.7093 25.1611 28.9367 25.1058 29.1793C25.0504 29.422 25.0495 29.6739 25.1033 29.9169C25.157 30.1599 25.264 30.388 25.4164 30.5847C25.5689 30.7814 25.7631 30.9418 25.9851 31.0544C29.4011 26.0771 31.2558 20.2873 31.3471 14.0063L30.7227 14.0057ZM9.94894 14.4347C9.94745 14.8781 10.1221 15.3039 10.4345 15.6185C10.747 15.9332 11.1716 16.1108 11.6149 16.1125C12.0058 16.1125 12.3631 15.9769 12.6476 15.7496C12.4129 16.0466 12.2854 16.4143 12.2858 16.7929C12.2843 17.2362 12.459 17.6621 12.7714 17.9767C13.0838 18.2913 13.5084 18.469 13.9518 18.4706C14.3533 18.4706 14.7213 18.3273 15.0091 18.0898C14.7809 18.3732 14.6568 18.7262 14.6574 19.09C14.6567 19.2984 14.697 19.5049 14.7761 19.6977C14.8552 19.8906 14.9714 20.0659 15.1183 20.2138C15.2651 20.3617 15.4397 20.4792 15.632 20.5597C15.8242 20.6401 16.0304 20.6819 16.2389 20.6826C16.6597 20.681 17.0626 20.5123 17.3591 20.2136C17.6555 19.915 17.8212 19.5108 17.8197 19.09C17.8197 18.712 17.6881 18.3642 17.4686 18.0893C17.7565 18.3273 18.1244 18.4706 18.5259 18.4706C19.4465 18.4706 20.1919 17.7185 20.1919 16.7929C20.1919 16.3981 20.0553 16.0369 19.8296 15.7496C20.1229 15.9841 20.4872 16.112 20.8628 16.1125C21.7834 16.1125 22.5288 15.3609 22.5288 14.4347C22.5284 14.2865 22.5097 14.1437 22.4728 14.0063H10.0033C9.96966 14.1435 9.94894 14.2869 9.94894 14.4347ZM20.865 33.6158C20.4741 33.6158 20.1169 33.7513 19.8318 33.9787C20.0667 33.6817 20.1944 33.3141 20.1941 32.9354C20.1956 32.492 20.021 32.0662 19.7085 31.7516C19.3961 31.437 18.9715 31.2593 18.5281 31.2577C18.1266 31.2577 17.7587 31.401 17.4709 31.6385C17.6988 31.355 17.8228 31.002 17.822 30.6383C17.8235 30.2175 17.6578 29.8133 17.3613 29.5146C17.0649 29.216 16.6619 29.0473 16.2411 29.0457C16.0327 29.0464 15.8265 29.0882 15.6342 29.1686C15.4419 29.249 15.2674 29.3666 15.1205 29.5144C14.9737 29.6623 14.8574 29.8377 14.7783 30.0305C14.6992 30.2234 14.6589 30.4299 14.6597 30.6383C14.6597 31.0163 14.7913 31.3641 15.0113 31.639C14.7143 31.3922 14.3402 31.2573 13.9541 31.2577C13.0329 31.2577 12.2881 32.0092 12.2881 32.9354C12.2877 33.314 12.4151 33.6816 12.6498 33.9787C12.3566 33.7443 11.9926 33.6164 11.6172 33.6158C10.7049 33.6158 9.9663 34.3539 9.95062 35.2678C11.7835 37.1589 13.8841 38.8882 16.2394 40.4277C18.5959 38.8871 20.697 37.1589 22.5293 35.2673C22.5249 34.8284 22.3478 34.4089 22.0363 34.0997C21.7247 33.7904 21.3039 33.617 20.865 33.6158ZM7.41998 29.5536C7.42008 29.1761 7.29304 28.8096 7.05934 28.5131C7.34438 28.7405 7.70334 28.8777 8.09534 28.8777C9.01654 28.8777 9.76134 28.1256 9.76134 27.1999C9.76134 26.7956 9.6191 26.4249 9.38278 26.1353C9.65382 26.3565 9.99878 26.4893 10.3762 26.4893C10.5846 26.4885 10.7909 26.4467 10.9831 26.3663C11.1754 26.2859 11.3499 26.1684 11.4968 26.0205C11.6436 25.8726 11.7599 25.6972 11.839 25.5044C11.9181 25.3115 11.9584 25.105 11.9577 24.8966C11.959 24.4758 11.7932 24.0717 11.4966 23.7731C11.2 23.4746 10.797 23.306 10.3762 23.3045C10.001 23.3045 9.6555 23.4373 9.38278 23.6579C9.6191 23.3684 9.76134 22.9977 9.76134 22.5939C9.76215 22.3743 9.7197 22.1567 9.63642 21.9535C9.55313 21.7503 9.43064 21.5655 9.27593 21.4097C9.12123 21.2538 8.93735 21.13 8.73478 21.0452C8.53221 20.9604 8.31493 20.9164 8.09534 20.9156C7.70334 20.9156 7.34438 21.0528 7.05934 21.2801C7.28334 20.9934 7.41998 20.6333 7.41998 20.2402C7.42147 19.7968 7.2468 19.371 6.93438 19.0564C6.62196 18.7418 6.19737 18.5641 5.75398 18.5625C5.36198 18.5625 5.00246 18.6997 4.71798 18.9265C4.94198 18.6403 5.07862 18.2802 5.07862 17.8865C5.08011 17.4431 4.90544 17.0173 4.59302 16.7027C4.2806 16.3881 3.85601 16.2104 3.41262 16.2088C3.02062 16.2088 2.6611 16.346 2.37662 16.5728C2.53345 16.3731 2.64305 16.1405 2.69722 15.8924C2.75139 15.6443 2.74872 15.3872 2.6894 15.1403C2.63009 14.8934 2.51568 14.6632 2.35473 14.4668C2.19379 14.2704 1.99049 14.113 1.76006 14.0063H1.13678C1.22302 20.28 3.07998 26.0715 6.4999 31.0527C6.77671 30.9122 7.00918 30.6977 7.17149 30.4331C7.3338 30.1684 7.41962 29.864 7.41942 29.5536M10.9278 17.7415C10.9849 17.7415 10.9989 17.6071 11.0471 17.4581C11.1065 17.2722 11.1837 17.1776 11.1367 17.0885C11.0986 17.0174 11.0353 17.0264 10.911 17.0264C10.8259 17.0264 10.7049 17.0068 10.6657 17.0689C10.6187 17.144 10.6792 17.3025 10.7352 17.4486C10.794 17.6121 10.8539 17.7415 10.9278 17.7415Z" fill="white"/>
<path d="M11.0498 18.8305C11.2312 19.0366 11.4435 19.2393 11.5342 19.2393C11.6389 19.2393 11.822 18.9056 11.822 18.6642C11.822 18.4229 11.719 18.2711 11.5118 18.2711C10.6259 18.2711 10.4892 17.3863 10.4075 17.0324C10.3425 16.7535 10.282 16.5032 10.0015 16.5032C9.72147 16.5032 9.66099 16.7535 9.59603 17.0324C9.51371 17.3863 9.37763 18.2711 8.49171 18.2711C8.28563 18.2711 8.18091 18.4234 8.18091 18.6642C8.18091 18.905 8.36459 19.2393 8.46875 19.2393C8.56003 19.2393 8.77171 19.0366 8.95371 18.8305C9.12451 18.6368 9.24435 18.3596 9.31547 18.4481C9.38491 18.5349 9.21859 18.8188 9.07299 19.0321C8.85795 19.348 8.66139 19.4499 8.66139 19.6028C8.66139 19.7153 8.77507 19.8402 8.87027 19.9287C8.96715 20.0205 9.07019 20.0911 9.17267 20.0911C9.29867 20.0911 9.46275 19.7932 9.57755 19.2987C9.65315 18.9711 9.62907 18.7712 9.71699 18.7712C9.78363 18.7712 9.82451 18.9297 9.81107 19.2164C9.79707 19.5277 9.75787 19.7036 9.65651 20.0127C9.60947 20.1544 9.54283 20.2613 9.62739 20.3437C9.70915 20.4221 9.84691 20.4579 10.0015 20.4579C10.156 20.4579 10.2938 20.4232 10.3755 20.3437C10.4607 20.2613 10.394 20.1544 10.347 20.0133C10.2456 19.703 10.2059 19.5277 10.1924 19.2164C10.179 18.9297 10.2199 18.7712 10.2865 18.7712C10.3744 18.7712 10.3498 18.9711 10.4259 19.2987C10.5391 19.7915 10.7043 20.0905 10.8303 20.0905C10.9333 20.0905 11.0358 20.0205 11.1327 19.9287C11.2284 19.8391 11.3421 19.7137 11.3421 19.6022C11.3421 19.4499 11.145 19.3491 10.9299 19.0321C10.7843 18.8188 10.6163 18.5349 10.6875 18.4481C10.7591 18.3596 10.8784 18.6368 11.0498 18.8305ZM23.3983 17.7413C23.456 17.7413 23.4695 17.6069 23.5182 17.458C23.577 17.2715 23.6543 17.1769 23.6078 17.0884C23.5697 17.0167 23.5059 17.0262 23.3815 17.0262C23.297 17.0262 23.176 17.0061 23.1363 17.0688C23.0892 17.1433 23.1503 17.3023 23.2063 17.4485C23.2651 17.612 23.3239 17.7413 23.3983 17.7413Z" fill="white"/>
<path d="M23.5227 18.8305C23.7047 19.0366 23.9164 19.2393 24.0077 19.2393C24.1119 19.2393 24.2955 18.9056 24.2955 18.6642C24.2955 18.4229 24.1925 18.2711 23.9847 18.2711C23.0988 18.2711 22.9627 17.3863 22.881 17.0324C22.8155 16.7535 22.755 16.5032 22.475 16.5032C22.195 16.5032 22.1339 16.7535 22.069 17.0324C21.9872 17.3863 21.8506 18.2711 20.9647 18.2711C20.7586 18.2711 20.6544 18.4234 20.6544 18.6642C20.6544 18.905 20.8375 19.2393 20.9423 19.2393C21.033 19.2393 21.2447 19.0366 21.4267 18.8305C21.598 18.6368 21.7179 18.3596 21.789 18.4481C21.8584 18.5349 21.6921 18.8188 21.5465 19.0321C21.3315 19.348 21.1343 19.4499 21.1343 19.6028C21.1343 19.7153 21.248 19.8402 21.3432 19.9287C21.4401 20.0205 21.5431 20.0911 21.6462 20.0911C21.7722 20.0911 21.9357 19.7932 22.0505 19.2987C22.1267 18.9711 22.102 18.7712 22.1905 18.7712C22.2566 18.7712 22.2975 18.9297 22.284 19.2164C22.2706 19.5277 22.2308 19.7036 22.1295 20.0127C22.0824 20.1544 22.0158 20.2613 22.1009 20.3437C22.1827 20.4221 22.3204 20.4579 22.475 20.4579C22.6295 20.4579 22.7673 20.4232 22.8491 20.3437C22.9336 20.2613 22.867 20.1544 22.8199 20.0133C22.7191 19.703 22.6794 19.5277 22.6654 19.2164C22.6519 18.9297 22.6934 18.7712 22.7595 18.7712C22.8474 18.7712 22.8233 18.9711 22.8989 19.2987C23.0126 19.7915 23.1778 20.0905 23.3032 20.0905C23.4063 20.0905 23.5093 20.0205 23.6062 19.9287C23.7014 19.8391 23.8151 19.7137 23.8151 19.6022C23.8151 19.4499 23.6185 19.3491 23.4035 19.0321C23.2579 18.8188 23.0899 18.5349 23.161 18.4481C23.2321 18.3596 23.3514 18.6368 23.5227 18.8305Z" fill="white"/>
<path d="M21.5511 17.742C21.6251 17.742 21.6855 17.6121 21.7466 17.4491C21.8009 17.303 21.8631 17.1428 21.816 17.0694C21.7751 17.005 21.6536 17.0263 21.5707 17.0263C21.4464 17.0263 21.3831 17.0174 21.3451 17.089C21.298 17.1775 21.3736 17.2705 21.4347 17.4586C21.4795 17.6093 21.4935 17.742 21.5511 17.742ZM10.9279 30.1785C10.9851 30.1785 10.9991 30.0441 11.0472 29.8946C11.1066 29.7081 11.1839 29.614 11.1368 29.525C11.0987 29.4538 11.0355 29.4628 10.9111 29.4628C10.826 29.4628 10.7051 29.4432 10.6659 29.5054C10.6188 29.5804 10.6793 29.7389 10.7353 29.885C10.7941 30.0486 10.8535 30.1779 10.9274 30.1779" fill="white"/>
<path d="M11.0498 31.2664C11.2312 31.4725 11.4435 31.6752 11.5342 31.6752C11.6389 31.6752 11.822 31.3415 11.822 31.1001C11.822 30.8588 11.719 30.707 11.5118 30.707C10.6259 30.707 10.4892 29.8222 10.4075 29.4683C10.3425 29.1894 10.282 28.9391 10.0015 28.9391C9.72147 28.9391 9.66099 29.1894 9.59603 29.4683C9.51371 29.8222 9.37763 30.707 8.49171 30.707C8.28563 30.707 8.18091 30.8593 8.18091 31.1001C8.18091 31.3409 8.36459 31.6752 8.46875 31.6752C8.56003 31.6752 8.77171 31.4725 8.95371 31.2664C9.12451 31.0727 9.24435 30.7955 9.31547 30.884C9.38491 30.9708 9.21859 31.2547 9.07299 31.468C8.85795 31.7839 8.66139 31.8858 8.66139 32.0387C8.66139 32.1512 8.77507 32.2761 8.87027 32.3646C8.96715 32.4564 9.07019 32.527 9.17267 32.527C9.29867 32.527 9.46275 32.2291 9.57755 31.7346C9.65315 31.407 9.62907 31.2071 9.71699 31.2071C9.78363 31.2071 9.82451 31.3656 9.81107 31.6523C9.79707 31.9636 9.75787 32.1395 9.65651 32.4486C9.60947 32.5903 9.54283 32.6972 9.62739 32.7796C9.70915 32.858 9.84691 32.8944 10.0015 32.8944C10.156 32.8944 10.2938 32.8591 10.3755 32.7796C10.4607 32.6972 10.394 32.5908 10.347 32.4492C10.2456 32.1389 10.2059 31.9636 10.1924 31.6523C10.179 31.3656 10.2199 31.2071 10.2865 31.2071C10.3744 31.2071 10.3498 31.407 10.4259 31.7352C10.5391 32.228 10.7043 32.5264 10.8303 32.5264C10.9333 32.5264 11.0358 32.4564 11.1327 32.3646C11.2284 32.275 11.3421 32.1496 11.3421 32.0387C11.3421 31.8858 11.145 31.785 10.9299 31.4675C10.7843 31.2547 10.6163 30.9708 10.6875 30.884C10.7591 30.7955 10.8784 31.0727 11.0498 31.2664ZM23.3983 30.1784C23.456 30.1784 23.4695 30.044 23.5182 29.8944C23.577 29.708 23.6543 29.6139 23.6078 29.5248C23.5697 29.4537 23.5059 29.4627 23.3815 29.4627C23.297 29.4627 23.176 29.4431 23.1363 29.5052C23.0892 29.5803 23.1503 29.7388 23.2063 29.8849C23.2651 30.0484 23.3239 30.1784 23.3983 30.1784Z" fill="white"/>
<path d="M20.6544 31.1001C20.6544 31.3409 20.8375 31.6752 20.9423 31.6752C21.033 31.6752 21.2447 31.4725 21.4267 31.2664C21.598 31.0727 21.7179 30.7955 21.789 30.884C21.8584 30.9708 21.6921 31.2547 21.5465 31.468C21.3315 31.7839 21.1343 31.8858 21.1343 32.0387C21.1343 32.1512 21.248 32.2761 21.3432 32.3646C21.4401 32.4564 21.5431 32.527 21.6462 32.527C21.7722 32.527 21.9357 32.2291 22.0505 31.7346C22.1267 31.407 22.102 31.2071 22.1905 31.2071C22.2566 31.2071 22.2975 31.3656 22.284 31.6523C22.2706 31.9636 22.2308 32.1395 22.1295 32.4486C22.0824 32.5903 22.0158 32.6972 22.1009 32.7796C22.1827 32.858 22.3204 32.8944 22.475 32.8944C22.6295 32.8944 22.7673 32.8591 22.8491 32.7796C22.9336 32.6972 22.867 32.5908 22.8199 32.4492C22.7191 32.1389 22.6794 31.9636 22.6654 31.6523C22.6519 31.3656 22.6934 31.2071 22.7595 31.2071C22.8474 31.2071 22.8233 31.407 22.8989 31.7352C23.0126 32.228 23.1778 32.5264 23.3032 32.5264C23.4063 32.5264 23.5093 32.4564 23.6062 32.3646C23.7014 32.275 23.8151 32.1496 23.8151 32.0387C23.8151 31.8858 23.6185 31.785 23.4035 31.4675C23.2579 31.2547 23.0899 30.9708 23.161 30.884C23.2321 30.7955 23.3514 31.0727 23.5227 31.2664C23.7047 31.4725 23.9164 31.6752 24.0077 31.6752C24.1119 31.6752 24.2955 31.3415 24.2955 31.1001C24.2955 30.8588 24.1925 30.707 23.9847 30.707C23.0988 30.707 22.9627 29.8222 22.881 29.4683C22.8155 29.1894 22.755 28.9391 22.475 28.9391C22.195 28.9391 22.1339 29.1894 22.069 29.4683C21.9872 29.8222 21.8506 30.707 20.9647 30.707C20.7575 30.707 20.6544 30.8593 20.6544 31.1001Z" fill="white"/>
<path d="M21.5509 30.1773C21.6248 30.1773 21.6853 30.048 21.7463 29.8845C21.8006 29.7383 21.8628 29.5781 21.8158 29.5048C21.7749 29.4409 21.6534 29.4622 21.5705 29.4622C21.4462 29.4622 21.3829 29.4527 21.3448 29.5244C21.2978 29.6129 21.3734 29.7064 21.4344 29.894C21.4792 30.0452 21.4932 30.1773 21.5509 30.1773ZM17.2103 23.7984C17.2708 23.7984 17.2859 23.6584 17.3358 23.4993C17.3979 23.3028 17.478 23.2053 17.4298 23.1124C17.3906 23.0357 17.3223 23.0463 17.1918 23.0463C17.1022 23.0463 16.9751 23.025 16.9331 23.0922C16.8844 23.1701 16.9482 23.3381 17.0059 23.4921C17.0709 23.6612 17.133 23.7984 17.2103 23.7984Z" fill="white"/>
<path d="M17.3399 24.9413C17.5303 25.158 17.7532 25.3703 17.849 25.3703C17.9576 25.3703 18.1503 25.0191 18.1503 24.7655C18.1503 24.5129 18.0411 24.3527 17.8243 24.3527C16.8947 24.3527 16.7508 23.4237 16.6657 23.0535C16.5979 22.759 16.5341 22.4963 16.2401 22.4963C15.9467 22.4963 15.8817 22.759 15.8145 23.053C15.7283 23.4237 15.586 24.3522 14.6559 24.3522C14.4397 24.3522 14.3305 24.5129 14.3305 24.766C14.3305 25.0191 14.5226 25.3697 14.6318 25.3697C14.727 25.3697 14.9499 25.1569 15.1408 24.9413C15.3211 24.7369 15.4466 24.4474 15.5211 24.5387C15.595 24.6299 15.4191 24.9279 15.2663 25.1535C15.0406 25.4856 14.8334 25.5926 14.8334 25.7527C14.8334 25.8703 14.9527 26.0014 15.0529 26.096C15.1543 26.1923 15.2635 26.2651 15.371 26.2651C15.5026 26.2651 15.6751 25.9527 15.7949 25.4341C15.8755 25.0908 15.8481 24.8803 15.9405 24.8803C16.0099 24.8803 16.0525 25.0483 16.0391 25.3484C16.0239 25.6749 15.9831 25.8597 15.8767 26.1845C15.8285 26.334 15.7574 26.4455 15.8464 26.5323C15.9327 26.6146 16.0783 26.651 16.2401 26.651C16.4025 26.651 16.5481 26.6146 16.6338 26.5323C16.7234 26.4471 16.6523 26.334 16.6035 26.1845C16.4977 25.8597 16.4568 25.6749 16.4417 25.3484C16.4283 25.0483 16.4703 24.8803 16.5403 24.8803C16.6327 24.8803 16.6069 25.0891 16.6859 25.4341C16.8051 25.9527 16.9776 26.2651 17.1098 26.2651C17.2173 26.2651 17.3248 26.1907 17.4279 26.096C17.5275 26.0014 17.6474 25.8703 17.6474 25.7527C17.6474 25.5926 17.4413 25.4856 17.2139 25.1535C17.0611 24.9295 16.8852 24.6316 16.9597 24.5387C17.0342 24.4474 17.1596 24.7386 17.3399 24.9419" fill="white"/>
<path d="M15.2694 23.7983C15.3478 23.7983 15.4099 23.6611 15.4738 23.492C15.5315 23.338 15.5947 23.17 15.5466 23.0921C15.504 23.0249 15.3769 23.0462 15.2873 23.0462C15.1574 23.0462 15.0907 23.0372 15.0499 23.1117C15.0011 23.2052 15.0801 23.3027 15.1434 23.4992C15.1938 23.6583 15.2083 23.7983 15.2694 23.7983ZM25.7341 11.7426C25.6393 11.7421 25.5463 11.7171 25.464 11.67C25.3818 11.6229 25.3132 11.5553 25.2648 11.4738L25.2329 11.4223H21.8007V10.3224H21.375C21.3314 10.3223 21.2881 10.3135 21.2478 10.2967C21.2075 10.2798 21.171 10.2552 21.1402 10.2242C21.1094 10.1932 21.085 10.1565 21.0684 10.1161C21.0518 10.0756 21.0434 10.0324 21.0435 9.98868C21.0435 9.80388 21.1919 9.65268 21.375 9.65268H21.8007V7.29116H21.375C21.2866 7.29042 21.202 7.25464 21.1399 7.19166C21.0777 7.12868 21.0431 7.04364 21.0435 6.95516C21.0435 6.77036 21.1919 6.61972 21.375 6.61972H21.8007V5.60388H24.6891C25.08 5.60388 25.4328 5.81724 25.6115 6.16052L25.7083 6.34644L25.8052 6.16164C25.9844 5.81892 26.3383 5.60556 26.7292 5.60556H29.5779V6.6214H30.0052C30.1883 6.6214 30.3367 6.7726 30.3367 6.95684C30.3367 7.14164 30.1883 7.29284 30.0052 7.29284H29.5779V9.65212H30.0052C30.1883 9.65212 30.3367 9.80332 30.3367 9.98756C30.3367 10.1724 30.1883 10.3213 30.0052 10.3213H29.5779V11.4212H26.2358L26.2039 11.4749C26.1555 11.5564 26.0867 11.624 26.0044 11.671C25.922 11.718 25.8289 11.7423 25.7341 11.7426ZM16.2426 11.7426C16.1478 11.7422 16.0546 11.7173 15.9723 11.6702C15.8899 11.623 15.8212 11.5554 15.7728 11.4738L15.7415 11.4223H12.373V10.3224H11.9474C11.9037 10.3224 11.8604 10.3137 11.8201 10.2969C11.7797 10.28 11.743 10.2554 11.7122 10.2244C11.6814 10.1934 11.6569 10.1566 11.6403 10.1162C11.6237 10.0757 11.6152 10.0324 11.6154 9.98868C11.6154 9.80388 11.7638 9.65268 11.9469 9.65268H12.3725V7.29116H11.9469C11.8584 7.29042 11.7738 7.25464 11.7117 7.19166C11.6496 7.12868 11.6149 7.04364 11.6154 6.95516C11.6154 6.77036 11.7638 6.61972 11.9469 6.61972H12.3725V5.60388H15.1977C15.6031 5.60388 15.9744 5.84468 16.1441 6.21708L16.2426 6.43548L16.3407 6.21708C16.4235 6.03523 16.5566 5.88087 16.7243 5.77221C16.892 5.66356 17.0872 5.60515 17.2871 5.60388H19.5354V6.61972H19.9611C20.1442 6.61972 20.2926 6.77092 20.2926 6.95572C20.2926 7.14052 20.1442 7.2906 19.9605 7.2906H19.5349V9.65212H19.9605C20.1442 9.65212 20.2926 9.80332 20.2926 9.98756C20.2926 10.1724 20.1442 10.3213 19.9605 10.3213H19.5349V11.4212H16.7439L16.7119 11.4732C16.6637 11.555 16.5951 11.6228 16.5129 11.6701C16.4306 11.7174 16.3375 11.742 16.2426 11.7426ZM6.50145 11.7426C6.40658 11.7422 6.31343 11.7173 6.23108 11.6702C6.14874 11.623 6.08001 11.5554 6.03161 11.4738L5.99969 11.4223H2.87657V10.3224H2.45097C2.40729 10.3223 2.36406 10.3135 2.32376 10.2967C2.28346 10.2798 2.24687 10.2552 2.21609 10.2242C2.1853 10.1932 2.16092 10.1565 2.14434 10.1161C2.12776 10.0756 2.1193 10.0324 2.11945 9.98868C2.11945 9.80388 2.26785 9.65268 2.45097 9.65268H2.87657V7.29116H2.45097C2.3625 7.29042 2.27793 7.25464 2.21578 7.19166C2.15364 7.12868 2.119 7.04364 2.11945 6.95516C2.11945 6.77036 2.26785 6.61972 2.45097 6.61972H2.87657V5.60388H5.45817C5.86361 5.60388 6.23433 5.84468 6.40289 6.21708L6.50145 6.43548L6.59945 6.21708C6.68226 6.03523 6.81537 5.88087 6.98306 5.77221C7.15076 5.66356 7.34604 5.60515 7.54585 5.60388H10.1274V6.61972H10.553C10.7362 6.61972 10.8846 6.77092 10.8846 6.95572C10.8846 7.14052 10.7362 7.2906 10.5525 7.2906H10.1269V9.65212H10.5525C10.7362 9.65212 10.8846 9.80332 10.8846 9.98756C10.8846 10.1724 10.7362 10.3213 10.5525 10.3213H10.1269V11.4212H7.00209L6.97073 11.4732C6.92294 11.5553 6.85446 11.6235 6.77211 11.6708C6.68977 11.7182 6.59644 11.7426 6.50145 11.7426Z" fill="white"/>
<path d="M26.7533 9.41081C26.8065 9.41081 26.7959 9.36041 26.937 9.36041C27.0776 9.36041 27.2187 9.45953 27.3929 9.45953C27.7938 9.45953 28.1528 9.06585 28.1528 8.68449C28.1528 8.33505 28.0665 8.22529 27.7333 7.97329C27.4001 7.72185 27.091 7.61993 27.091 7.30857C27.091 7.19713 27.1521 6.90761 27.3929 6.90761C27.6757 6.90761 27.7261 7.21113 27.8033 7.43681C27.87 7.63225 28.0016 7.55441 27.9971 7.44297C27.9909 7.33321 27.991 7.02185 27.991 6.95185C27.991 6.88185 27.9137 6.81633 27.8756 6.86785C27.8498 6.90313 27.7261 6.89361 27.7137 6.88465C27.6185 6.81297 27.5261 6.79785 27.3441 6.79785C26.9717 6.79785 26.7416 7.17305 26.7416 7.41105C26.7416 7.65017 26.8312 7.84393 27.2349 8.14745C27.6393 8.45265 27.7485 8.54113 27.7485 8.80825C27.7485 8.97457 27.6852 9.31785 27.3878 9.31785C27.0944 9.31785 26.9835 9.04009 26.9079 8.82057C26.8261 8.58537 26.6783 8.55177 26.6783 8.78809C26.6783 8.92697 26.6783 9.18961 26.6643 9.27921C26.6475 9.36937 26.7035 9.41081 26.7539 9.41081M24.4103 6.97761C24.4904 6.97761 24.6057 7.02129 24.7189 7.33265C24.7603 7.44241 24.7861 7.52025 24.8538 7.52025C24.921 7.52025 24.9283 7.40433 24.9283 7.33265C24.9283 7.26097 24.9205 6.99665 24.9205 6.93729C24.9205 6.84769 24.9149 6.82753 24.6041 6.84769C24.3829 6.86113 24.2272 6.86729 24.1001 6.86729C23.9713 6.86729 23.8178 6.86169 23.5955 6.84769C23.2864 6.82753 23.2802 6.84769 23.2802 6.93729C23.2802 6.99721 23.2729 7.26097 23.2729 7.33265C23.2729 7.40433 23.2802 7.52025 23.3457 7.52025C23.4152 7.52025 23.441 7.44185 23.4802 7.33265C23.5955 7.02129 23.7086 6.97705 23.791 6.97705C23.871 6.97705 23.8951 7.04089 23.8951 7.20889V9.00593C23.8923 9.20529 23.871 9.21145 23.8106 9.26353C23.7484 9.31505 23.7635 9.40689 23.8632 9.39905C23.9634 9.39177 24.001 9.39177 24.0995 9.39177C24.1981 9.39177 24.2373 9.39177 24.3358 9.39905C24.4361 9.40521 24.4512 9.31505 24.3907 9.26353C24.3286 9.21145 24.3067 9.20529 24.3056 9.00593V7.20889C24.3073 7.04089 24.3297 6.97705 24.4103 6.97705M24.7704 9.26913C24.7178 9.32121 24.7194 9.41585 24.795 9.40801C24.8706 9.40241 24.8992 9.40241 24.9737 9.40241C25.0476 9.40241 25.075 9.40241 25.1495 9.40801C25.2234 9.41585 25.2475 9.33801 25.21 9.28593C25.1708 9.23553 25.1053 9.22825 25.1372 9.02833L25.2526 8.66433C25.2828 8.58313 25.467 8.61225 25.5645 8.61225C25.6597 8.61225 25.8781 8.57529 25.9184 8.68953L25.999 9.02665C26.0399 9.22657 26.0214 9.23385 25.9716 9.28425C25.9245 9.33633 25.9548 9.41417 26.0489 9.40689C26.1441 9.40073 26.2079 9.40073 26.3037 9.40073C26.4006 9.40073 26.4112 9.40073 26.5081 9.40633C26.6049 9.41417 26.5909 9.28873 26.5428 9.25513C26.4728 9.20361 26.47 9.15993 26.4229 9.02665L25.8719 7.06217C25.8294 6.89921 25.7672 6.79057 25.7291 6.80009C25.6098 6.82753 25.4659 6.85945 25.4732 6.94009L25.4827 7.15233L24.9238 9.02833C24.8432 9.22209 24.8253 9.21761 24.7704 9.26913ZM25.3399 8.30537L25.4883 7.76385C25.5762 7.45865 25.6322 7.44801 25.6989 7.78513L25.8232 8.30257C25.8669 8.43025 25.8534 8.45769 25.6126 8.45769C25.3024 8.45657 25.2822 8.43361 25.3399 8.30537Z" fill="black"/>
<path d="M30.0008 9.54244H29.6839V7.40099H30.0025C30.1198 7.39996 30.2319 7.35256 30.3144 7.26915C30.3968 7.18574 30.443 7.07309 30.4427 6.95579C30.443 6.8976 30.4319 6.83991 30.4099 6.78602C30.388 6.73213 30.3556 6.68311 30.3147 6.64175C30.2737 6.6004 30.225 6.56753 30.1714 6.54502C30.1177 6.52251 30.0601 6.51081 30.0019 6.51059H29.6839V5.49475H26.7259C26.2903 5.49475 25.8994 5.73891 25.7056 6.10907C25.6081 5.92332 25.4615 5.76785 25.2818 5.65954C25.1021 5.55124 24.8962 5.49424 24.6864 5.49475H21.6871V6.51059H21.3707C21.3125 6.51081 21.2549 6.52251 21.2012 6.54502C21.1476 6.56753 21.0989 6.6004 21.0579 6.64175C21.017 6.68311 20.9846 6.73213 20.9626 6.78602C20.9407 6.83991 20.9296 6.8976 20.9299 6.95579C20.9299 7.20163 21.1282 7.40099 21.3707 7.40099H21.6871V9.54411H21.3707C21.3124 9.54433 21.2548 9.55605 21.2011 9.57859C21.1474 9.60113 21.0987 9.63406 21.0577 9.67547C21.0168 9.71689 20.9844 9.76598 20.9625 9.81993C20.9406 9.87388 20.9295 9.93164 20.9299 9.98987C20.9296 10.1071 20.9759 10.2197 21.0585 10.3028C21.1412 10.386 21.2534 10.433 21.3707 10.4334H21.6871V11.5332H25.1675C25.2845 11.7253 25.4923 11.8552 25.7297 11.8552C25.9688 11.8552 26.1766 11.7253 26.2914 11.5332H29.6844V10.4328H30.0019C30.1161 10.4269 30.2237 10.3773 30.3023 10.2943C30.381 10.2113 30.4247 10.1012 30.4245 9.98684C30.4243 9.87248 30.3802 9.76258 30.3012 9.67986C30.2222 9.59715 30.1145 9.54795 30.0003 9.54244M28.6036 5.74171L28.9811 6.13203V10.7431L28.6036 10.4043V5.74171ZM23.0406 5.70251H24.6853C25.1143 5.70251 25.4883 5.98699 25.5959 6.39579L25.6155 6.47419H25.7947L25.8137 6.39579C25.9212 5.98699 26.2953 5.70195 26.7243 5.70195H28.3964V10.3466L26.7741 10.3432C26.3989 10.3432 26.1351 10.4088 25.9363 10.5572C25.8696 10.534 25.7997 10.5216 25.7291 10.5202C25.6563 10.5202 25.5869 10.5359 25.5219 10.5572C25.3231 10.4076 25.0583 10.3432 24.6842 10.3432L23.0406 10.3466V5.70251ZM22.8345 10.4043L22.4576 10.7431V6.13203L22.8328 5.74171L22.8345 10.4043ZM21.8926 11.3244V10.2245H21.3701C21.3391 10.2245 21.3084 10.2184 21.2798 10.2065C21.2512 10.1946 21.2252 10.1772 21.2034 10.1552C21.1815 10.1333 21.1642 10.1072 21.1525 10.0785C21.1407 10.0499 21.1347 10.0192 21.1349 9.98819C21.1349 9.85715 21.2413 9.75187 21.3701 9.75187H21.8926V7.19267H21.3701C21.3093 7.18972 21.252 7.1635 21.2101 7.11945C21.1681 7.07541 21.1447 7.01691 21.1447 6.95607C21.1447 6.89524 21.1681 6.83674 21.2101 6.7927C21.252 6.74865 21.3093 6.72243 21.3701 6.71947H21.8926V5.70195H22.5831L22.2515 6.04691V11.0785H25.0807C25.0655 11.1593 25.0666 11.2423 25.084 11.3227H21.8926V11.3244ZM25.1518 10.8708H22.6262L22.9773 10.5555L24.6853 10.5521C24.9748 10.5521 25.1719 10.5969 25.3159 10.6731C25.2487 10.7291 25.194 10.7946 25.1518 10.8708ZM25.7308 11.6301C25.614 11.6294 25.5022 11.5824 25.4198 11.4996C25.3374 11.4167 25.2912 11.3046 25.2912 11.1877C25.2912 10.9436 25.4883 10.7453 25.7308 10.7453C25.8481 10.7453 25.9607 10.7919 26.0436 10.8749C26.1266 10.9579 26.1732 11.0704 26.1732 11.1877C26.1732 11.305 26.1266 11.4176 26.0436 11.5005C25.9607 11.5835 25.8481 11.6301 25.7308 11.6301ZM26.1441 10.6748C26.2897 10.5969 26.4863 10.5544 26.7741 10.5544L28.4597 10.5577L28.8125 10.8736H26.3059C26.2664 10.7966 26.2116 10.7289 26.1441 10.6748ZM29.9997 10.2251H29.4755V11.3249H26.3754C26.3919 11.2445 26.3929 11.1616 26.3782 11.0808H29.186V6.04803L28.8528 5.70363H29.4744V6.71947H29.998C30.0579 6.7236 30.1139 6.75029 30.1549 6.79415C30.1958 6.83802 30.2186 6.89579 30.2186 6.95579C30.2186 7.0158 30.1958 7.07357 30.1549 7.11744C30.1139 7.1613 30.0579 7.18799 29.998 7.19211H29.4739V9.75019H29.998C30.1268 9.75019 30.2332 9.85659 30.2332 9.98651C30.2336 10.0175 30.2278 10.0482 30.2163 10.077C30.2047 10.1057 30.1876 10.1319 30.1659 10.154C30.1442 10.1762 30.1184 10.1938 30.0898 10.2059C30.0613 10.218 30.0307 10.2243 29.9997 10.2245M17.0631 9.32179C17.006 9.37219 17.0211 9.45115 17.1152 9.44387C17.2093 9.43659 17.2451 9.43603 17.3403 9.43603C17.4344 9.43603 17.4708 9.43603 17.5666 9.44387C17.6601 9.44947 17.6752 9.37219 17.6164 9.32179C17.5587 9.26971 17.5391 9.26356 17.538 9.06252V7.26715C17.5391 7.06555 17.5587 7.05995 17.6164 7.00787C17.6752 6.95579 17.6601 6.87795 17.566 6.88579C17.4725 6.89139 17.4361 6.89139 17.3409 6.89139C17.2457 6.89139 17.2087 6.89139 17.1147 6.88579C17.0211 6.87795 17.006 6.95747 17.0637 7.00787C17.1225 7.05995 17.1421 7.06555 17.1438 7.26715V9.0642C17.1421 9.26244 17.1225 9.26971 17.0637 9.32179" fill="black"/>
<path d="M19.9606 9.5425H19.6442V7.40106H19.9606C20.0188 7.40084 20.0763 7.38914 20.13 7.36664C20.1837 7.34413 20.2323 7.31126 20.2733 7.2699C20.3142 7.22855 20.3466 7.17952 20.3686 7.12563C20.3905 7.07175 20.4016 7.01405 20.4013 6.95586C20.4016 6.83847 20.3554 6.72574 20.2728 6.64231C20.1902 6.55888 20.0779 6.51155 19.9606 6.51066H19.6442V5.49482H17.2871C16.824 5.49482 16.4242 5.77202 16.2422 6.17186C16.1516 5.97035 16.0049 5.79923 15.8196 5.67904C15.6342 5.55885 15.4181 5.49469 15.1972 5.49426H12.2634V6.51066H11.947C11.8888 6.51088 11.8312 6.52258 11.7775 6.54509C11.7239 6.56759 11.6752 6.60047 11.6342 6.64182C11.5933 6.68318 11.5609 6.7322 11.5389 6.78609C11.517 6.83998 11.5059 6.89767 11.5062 6.95586C11.5062 7.2017 11.7045 7.40106 11.947 7.40106H12.2634V9.54418H11.947C11.8887 9.5444 11.8311 9.55612 11.7774 9.57866C11.7237 9.6012 11.675 9.63412 11.634 9.67554C11.5931 9.71695 11.5607 9.76605 11.5388 9.82C11.5169 9.87395 11.5058 9.93171 11.5062 9.98994C11.5062 10.2335 11.7045 10.4335 11.947 10.4335H12.2634V11.5333H15.6788C15.7953 11.7254 16.003 11.8553 16.2405 11.8553C16.4802 11.8553 16.6874 11.7254 16.8027 11.5333H19.6408V10.4329H19.9578C20.075 10.4323 20.1872 10.3852 20.2697 10.3019C20.3523 10.2187 20.3984 10.1061 20.3979 9.98882C20.3989 9.93067 20.3883 9.87291 20.3668 9.81888C20.3453 9.76485 20.3132 9.71562 20.2726 9.67406C20.2319 9.63249 20.1833 9.59941 20.1298 9.57674C20.0762 9.55406 20.0187 9.54223 19.9606 9.54194M18.4945 5.74122L18.8714 6.13154V10.7426L18.4945 10.4038V5.74122ZM16.3452 6.6501C16.3446 6.39949 16.4434 6.15887 16.62 5.98103C16.7966 5.80319 17.0365 5.70265 17.2871 5.70146H18.2884V10.3461L17.2871 10.3444C16.913 10.3444 16.6498 10.4099 16.451 10.5595C16.4172 10.5476 16.3823 10.5389 16.3469 10.5337V6.6501H16.3452ZM13.618 5.70146H15.1955C15.7152 5.70146 16.1374 6.12706 16.1374 6.6501V10.532C16.1012 10.5384 16.0665 10.547 16.0333 10.5578C15.835 10.4083 15.5713 10.3427 15.1955 10.3427L13.6174 10.3478L13.618 5.70146ZM13.4114 10.4038L13.0345 10.7426V6.1321L13.4114 5.74178V10.4038ZM12.4694 11.3239V10.224H11.947C11.916 10.224 11.8853 10.2179 11.8567 10.206C11.8281 10.1941 11.8021 10.1767 11.7802 10.1547C11.7584 10.1328 11.7411 10.1067 11.7293 10.0781C11.7176 10.0494 11.7116 10.0187 11.7118 9.9877C11.7118 9.85666 11.8182 9.75138 11.947 9.75138H12.4694V7.19218H11.947C11.8871 7.18806 11.831 7.16137 11.7901 7.1175C11.7491 7.07364 11.7264 7.01587 11.7264 6.95586C11.7264 6.89586 11.7491 6.83809 11.7901 6.79422C11.831 6.75036 11.8871 6.72367 11.947 6.71954H12.4694V5.7009H13.1599L12.8267 6.04586V11.0775H15.5909C15.5757 11.1583 15.5768 11.2413 15.5942 11.3216H12.4694V11.3239ZM15.6637 10.8703H13.2025L13.5553 10.555L15.1972 10.5516C15.4862 10.5516 15.6833 10.5964 15.8272 10.6726C15.7607 10.7286 15.7062 10.7947 15.6637 10.8708M16.2422 11.6296C16.1254 11.6287 16.0137 11.5817 15.9315 11.4989C15.8493 11.416 15.8031 11.304 15.8031 11.1872C15.8031 10.9431 15.9997 10.7448 16.2422 10.7448C16.4846 10.7448 16.6812 10.9431 16.6812 11.1872C16.6812 11.304 16.6351 11.416 16.5528 11.4989C16.4706 11.5817 16.3589 11.6287 16.2422 11.6296ZM16.6554 10.6743C16.801 10.5964 16.9982 10.5539 17.286 10.5539L18.35 10.5572L18.7034 10.8731H16.8178C16.7783 10.7961 16.7229 10.7284 16.6554 10.6743ZM19.9606 10.2246H19.4381V11.3244H16.889C16.9055 11.244 16.9065 11.1611 16.8918 11.0803H19.0791V6.0481L18.7459 5.7037H19.4364V6.71954H19.9589C20.0187 6.72367 20.0748 6.75036 20.1158 6.79422C20.1567 6.83809 20.1795 6.89586 20.1795 6.95586C20.1795 7.01587 20.1567 7.07364 20.1158 7.1175C20.0748 7.16137 20.0187 7.18806 19.9589 7.19218H19.4364V9.75026H19.9589C20.0877 9.75026 20.1941 9.85666 20.1941 9.98658C20.1944 10.0176 20.1887 10.0483 20.1771 10.0771C20.1656 10.1058 20.1485 10.132 20.1268 10.1541C20.1051 10.1762 20.0792 10.1938 20.0507 10.2059C20.0222 10.218 19.9915 10.2244 19.9606 10.2246Z" fill="black"/>
<path d="M14.6177 9.04225L14.6205 8.16417L14.7605 8.17929C14.8042 8.25377 15.2858 9.28361 15.3261 9.35529C15.3687 9.42697 15.3916 9.41913 15.3916 9.41913H15.7444C15.8788 9.41913 15.8811 9.32281 15.8564 9.30657C15.8074 9.26848 15.765 9.22249 15.731 9.17049C15.6761 9.09601 15.2718 8.29073 15.2432 8.24313C15.2147 8.19553 15.2068 8.17929 15.2068 8.14737C15.2068 8.11545 15.2264 8.07233 15.2869 8.04657C15.5036 7.95473 15.6856 7.76881 15.6856 7.46977C15.6856 7.07609 15.4656 6.85041 14.7992 6.85041C14.6328 6.85041 14.3372 6.84313 14.2347 6.84313C14.1322 6.84313 14.042 6.91313 14.1115 6.97249C14.1832 7.03073 14.1888 7.07497 14.1888 7.16009V9.04225C14.1888 9.24385 14.1316 9.24945 14.0801 9.30153C14.0297 9.35361 14.042 9.43145 14.1249 9.42529C14.2072 9.41969 14.3041 9.41969 14.3887 9.41969C14.4828 9.41969 14.5796 9.41969 14.6765 9.42529C14.7717 9.43089 14.7885 9.34017 14.7314 9.28977C14.6737 9.23769 14.6177 9.24385 14.6177 9.04225ZM14.625 7.20153C14.625 6.98817 14.7689 6.98201 14.8977 6.99993C15.0248 7.02009 15.2388 7.08561 15.2388 7.50505C15.2388 7.92617 14.9431 8.00345 14.8087 8.00345C14.6737 8.00345 14.6284 7.94409 14.6284 7.88025L14.625 7.49889V7.20153ZM10.5527 9.54233H10.2357V7.40033H10.5527C10.6109 7.40011 10.6685 7.38841 10.7221 7.36591C10.7758 7.3434 10.8245 7.31053 10.8654 7.26917C10.9064 7.22782 10.9387 7.17879 10.9607 7.1249C10.9827 7.07101 10.9938 7.01332 10.9934 6.95513C10.9937 6.83774 10.9475 6.725 10.8649 6.64158C10.7823 6.55815 10.6701 6.51082 10.5527 6.50993H10.2357V5.49353H7.54605C7.08293 5.49353 6.68309 5.77073 6.50109 6.17113C6.41057 5.96962 6.26383 5.7985 6.07848 5.67831C5.89313 5.55812 5.67703 5.49396 5.45613 5.49353H2.76813V6.50937H2.45117C2.39297 6.50959 2.3354 6.52129 2.28173 6.54379C2.22807 6.5663 2.17937 6.59917 2.13844 6.64053C2.0975 6.68188 2.06512 6.73091 2.04315 6.7848C2.02119 6.83869 2.01008 6.89638 2.01045 6.95457C2.01045 7.20041 2.20869 7.39977 2.45117 7.39977H2.76757V9.54289H2.45117C2.39297 9.54311 2.3354 9.55481 2.28173 9.57731C2.22807 9.59982 2.17937 9.63269 2.13844 9.67405C2.0975 9.7154 2.06512 9.76443 2.04315 9.81832C2.02119 9.87221 2.01008 9.9299 2.01045 9.98809C2.01045 10.2323 2.20869 10.4322 2.45117 10.4322H2.76757V11.532H5.93941C6.05589 11.7241 6.26309 11.854 6.50109 11.854C6.73909 11.854 6.94797 11.7241 7.06277 11.532H10.2346V10.4327H10.551C10.6091 10.4325 10.6666 10.4208 10.7202 10.3984C10.7738 10.376 10.8224 10.3432 10.8633 10.302C10.9043 10.2607 10.9367 10.2118 10.9587 10.1581C10.9807 10.1043 10.9919 10.0467 10.9917 9.98865C10.9925 9.93043 10.9818 9.87262 10.9601 9.81858C10.9384 9.76453 10.9062 9.71533 10.8654 9.67382C10.8246 9.63231 10.7759 9.59931 10.7222 9.57674C10.6685 9.55417 10.6109 9.54247 10.5527 9.54233ZM9.08773 5.74105L9.46517 6.13137V10.7424L9.08773 10.4036V5.74105ZM6.60413 6.64993C6.60353 6.39932 6.70236 6.1587 6.87894 5.98086C7.05552 5.80302 7.29543 5.70248 7.54605 5.70129H8.88221V10.3459L7.54605 10.3426C7.17197 10.3426 6.90821 10.4081 6.70997 10.5576C6.67615 10.5457 6.64127 10.5371 6.60581 10.5318V6.64993H6.60413ZM4.12165 5.70129H5.45613C5.97581 5.70129 6.39805 6.12689 6.39805 6.64993V10.5318C6.36183 10.5382 6.32693 10.5468 6.29333 10.5576C6.09509 10.4081 5.83189 10.3426 5.45781 10.3426L4.12333 10.3459V5.70073L4.12165 5.70129ZM3.91557 10.4036L3.53869 10.7424V6.13137L3.91389 5.74105L3.91557 10.4036ZM2.97365 11.3237V10.2239H2.44949C2.41855 10.2238 2.38794 10.2176 2.35939 10.2057C2.33085 10.1938 2.30494 10.1763 2.28314 10.1544C2.26134 10.1324 2.24409 10.1064 2.23237 10.0778C2.22065 10.0491 2.2147 10.0185 2.21485 9.98753C2.21485 9.85593 2.32125 9.75121 2.45005 9.75121H2.97365V7.19201H2.44949C2.38873 7.18905 2.33143 7.16283 2.28948 7.11879C2.24752 7.07474 2.22412 7.01624 2.22412 6.95541C2.22412 6.89458 2.24752 6.83608 2.28948 6.79203C2.33143 6.74798 2.38873 6.72177 2.44949 6.71881H2.97365V5.70073H3.66413L3.33261 6.04681V11.079H5.85261C5.83742 11.1598 5.83856 11.2428 5.85597 11.3231L2.97365 11.3237ZM5.92429 10.8701H3.70501L4.05669 10.5548L5.45445 10.552C5.74397 10.552 5.94053 10.5963 6.08445 10.6724C6.02117 10.7284 5.96517 10.7945 5.92373 10.8707M6.50053 11.6289C6.38378 11.628 6.27211 11.581 6.18987 11.4981C6.10763 11.4153 6.06148 11.3032 6.06149 11.1865C6.06149 10.9429 6.25805 10.7441 6.50053 10.7441C6.74301 10.7441 6.93957 10.9429 6.93957 11.1865C6.93957 11.4301 6.74301 11.6289 6.50053 11.6289ZM6.91549 10.6741C7.06109 10.5968 7.25765 10.5537 7.54549 10.5537L8.94549 10.557L9.29829 10.8729H7.07901C7.03782 10.7967 6.98229 10.7292 6.91549 10.6741ZM10.5521 10.2244H10.028V11.3243H7.14733C7.15629 11.2795 7.16077 11.2341 7.16077 11.1882C7.16039 11.1516 7.15685 11.1156 7.15013 11.0801H9.67181V6.04793L9.33861 5.70353H10.0296V6.71937H10.5532C10.6131 6.72349 10.6692 6.75018 10.7101 6.79405C10.7511 6.83791 10.7738 6.89568 10.7738 6.95569C10.7738 7.0157 10.7511 7.07347 10.7101 7.11733C10.6692 7.1612 10.6131 7.18789 10.5532 7.19201H10.0296V9.75009H10.5532C10.6837 9.75009 10.7884 9.85649 10.7884 9.98641C10.7883 10.0492 10.7634 10.1094 10.7192 10.1539C10.6749 10.1985 10.6149 10.2238 10.5521 10.2244Z" fill="black"/>
<path d="M7.09113 9.28089C7.03345 9.33297 7.04689 9.41081 7.14265 9.40297C7.21718 9.39737 7.29191 9.39476 7.36665 9.39513L8.34665 9.39401C8.42393 9.39849 8.57065 9.46849 8.57065 9.31449V8.83681C8.57065 8.57753 8.44185 8.53217 8.36457 8.84297C8.31305 9.04905 8.24977 9.23665 7.93449 9.23665H7.73009C7.64665 9.23665 7.61641 9.20473 7.60913 9.13305C7.58953 8.95161 7.58953 8.62513 7.60913 8.26785C7.61361 8.16425 7.66065 8.15529 7.76201 8.15529C7.86505 8.15529 7.89193 8.16425 7.92273 8.24825C7.95857 8.34569 8.14785 8.52153 8.14785 8.24825V7.88705C8.14785 7.61545 7.98153 7.80865 7.93617 7.88705C7.89081 7.96489 7.86617 7.96489 7.76201 7.96489C7.66065 7.96489 7.62761 7.94473 7.62089 7.84113C7.60669 7.58915 7.60669 7.33656 7.62089 7.08457C7.62537 7.01457 7.64665 6.98209 7.73009 6.98209H7.93449C8.24977 6.98209 8.24977 7.19601 8.29961 7.40321C8.35113 7.60929 8.50569 7.55721 8.50569 7.40937V6.93225C8.50569 6.77657 8.35841 6.84825 8.28169 6.85273H7.36665C7.27257 6.85273 7.23617 6.85273 7.14265 6.84489C7.04745 6.83929 7.03345 6.91657 7.09113 6.96809C7.14993 7.02073 7.16953 7.02633 7.17121 7.22625V9.02329C7.17121 9.22321 7.14993 9.23049 7.09113 9.28089ZM6.12121 6.98377C6.17441 6.93169 6.17273 6.83761 6.09881 6.84489C6.02265 6.85273 5.99409 6.85273 5.92129 6.85273C5.84681 6.85273 5.81825 6.85273 5.74545 6.84489C5.67265 6.83929 5.64857 6.91489 5.68665 6.96809C5.72473 7.02017 5.78969 7.02633 5.75945 7.22625L5.38089 8.46945C5.33665 8.62625 5.23809 8.67833 5.19609 8.46777L4.93513 7.22457C4.89425 7.02465 4.91385 7.01737 4.96257 6.96697C5.01129 6.91489 4.97937 6.83705 4.88529 6.84377C4.79121 6.85049 4.75369 6.85105 4.65793 6.85105C4.56105 6.85105 4.52465 6.85105 4.42665 6.84321C4.32977 6.83761 4.33145 6.91377 4.40089 6.96697C4.47033 7.01905 4.49329 7.02465 4.53697 7.22457L4.98665 9.18905C5.02921 9.35257 5.05777 9.46681 5.16417 9.46681C5.27057 9.46681 5.33049 9.35873 5.37305 9.19521L5.97281 7.22457C6.04841 7.03081 6.06689 7.03585 6.12121 6.98377Z" fill="black"/>
<path d="M39.7598 0H40.5998V44.8H39.7598V0Z" fill="black"/>
<path d="M48.4847 14.5534H50.662V10.5886H54.5193V14.5534H56.6966V4.94379H54.5193V8.86827H50.662V4.94379H48.4847V14.5534ZM60.2688 14.7012C61.3709 14.7012 61.9891 14.2711 62.3923 13.7067V14.5534H64.2874V9.97035C64.2874 8.06187 63.0643 7.36299 61.344 7.36299C59.6237 7.36299 58.3066 8.10219 58.1856 9.76875H60.0269C60.1075 9.16395 60.457 8.77419 61.2231 8.77419C62.1101 8.77419 62.3655 9.23115 62.3655 10.0644V10.3467H61.5725C59.4221 10.3467 57.9168 10.9649 57.9168 12.6046C57.9168 14.083 58.992 14.7012 60.2688 14.7012ZM60.8467 13.3438C60.1344 13.3438 59.8253 13.0078 59.8253 12.4971C59.8253 11.7444 60.4839 11.5025 61.6128 11.5025H62.3655V12.0939C62.3655 12.8734 61.7069 13.3438 60.8467 13.3438ZM65.8257 14.5534H67.7745V11.0321C67.7745 9.68811 68.6078 9.21771 70.0459 9.23115V7.41675C68.9035 7.43019 68.218 7.92747 67.7745 8.86827V7.52427H65.8257V14.5534ZM73.1511 14.5534H75.3418L77.8954 7.52427H76.0138L74.3472 12.5508L72.6672 7.52427H70.584L73.1511 14.5534ZM80.5111 14.7012C81.6132 14.7012 82.2315 14.2711 82.6347 13.7067V14.5534H84.5297V9.97035C84.5297 8.06187 83.3067 7.36299 81.5863 7.36299C79.866 7.36299 78.5489 8.10219 78.4279 9.76875H80.2692C80.3499 9.16395 80.6993 8.77419 81.4654 8.77419C82.3524 8.77419 82.6078 9.23115 82.6078 10.0644V10.3467H81.8148C79.6644 10.3467 78.1592 10.9649 78.1592 12.6046C78.1592 14.083 79.2343 14.7012 80.5111 14.7012ZM81.0891 13.3438C80.3767 13.3438 80.0676 13.0078 80.0676 12.4971C80.0676 11.7444 80.7262 11.5025 81.8551 11.5025H82.6078V12.0939C82.6078 12.8734 81.9492 13.3438 81.0891 13.3438ZM86.068 14.5534H88.0168V11.0321C88.0168 9.68811 88.8501 9.21771 90.2882 9.23115V7.41675C89.1458 7.43019 88.4604 7.92747 88.0168 8.86827V7.52427H86.068V14.5534ZM93.936 14.7012C94.9709 14.7012 95.8311 14.0964 96.1939 13.3841V14.5534H98.1293V4.33899H96.1939V8.57259C95.8042 7.86027 95.1053 7.36299 93.9764 7.36299C92.2157 7.36299 90.8851 8.72043 90.8851 11.0321V11.1396C90.8851 13.4782 92.2291 14.7012 93.936 14.7012ZM94.5139 13.1825C93.5463 13.1825 92.8743 12.4971 92.8743 11.0993V10.9918C92.8743 9.59403 93.4791 8.85483 94.5677 8.85483C95.6295 8.85483 96.2477 9.56715 96.2477 10.9649V11.0724C96.2477 12.4971 95.5354 13.1825 94.5139 13.1825ZM48.4847 27.4334H52.4361C54.6537 27.4334 55.8095 26.506 55.8095 24.7454V24.6916C55.8095 23.4014 55.1375 22.6891 53.8876 22.4337C54.9628 22.1246 55.4467 21.3854 55.4467 20.3774V20.3236C55.4467 18.6839 54.358 17.8238 52.2614 17.8238H48.4847V27.4334ZM50.6083 25.9281V23.1729H51.9926C53.1753 23.1729 53.6591 23.6299 53.6591 24.5169V24.5707C53.6591 25.4443 53.1753 25.9281 52.1001 25.9281H50.6083ZM50.6083 21.7751V19.3156H51.8985C52.9199 19.3156 53.3769 19.6785 53.3769 20.4849V20.5387C53.3769 21.3988 52.9603 21.7751 51.9119 21.7751H50.6083ZM59.3734 27.5812C60.5292 27.5812 61.2415 27.0436 61.6044 26.3313V27.4334H63.5398V20.4043H61.6044V24.5303C61.6044 25.5652 60.9593 26.0759 60.1395 26.0759C59.3062 26.0759 58.9164 25.619 58.9164 24.6647V20.4043H56.9811V24.9335C56.9811 26.7748 58.0025 27.5812 59.3734 27.5812ZM67.6838 27.5812C69.5385 27.5812 70.6406 26.7883 70.6406 25.2695C70.6406 23.7643 69.6729 23.3207 67.9123 23.0654C66.8908 22.9175 66.5548 22.7428 66.5548 22.2993C66.5548 21.8692 66.9177 21.5735 67.5494 21.5735C68.2214 21.5735 68.5439 21.8423 68.6515 22.4203H70.439C70.2643 20.8075 69.095 20.243 67.5359 20.243C66.0979 20.243 64.7539 20.9687 64.7539 22.4337C64.7539 23.8046 65.4796 24.3422 67.3478 24.6244C68.3558 24.7723 68.7724 24.9739 68.7724 25.4577C68.7724 25.9415 68.423 26.2238 67.6703 26.2238C66.8236 26.2238 66.5145 25.8609 66.4339 25.2292H64.6195C64.6867 26.7479 65.7887 27.5812 67.6838 27.5812ZM71.7953 27.4334H73.7307V20.4043H71.7953V27.4334ZM72.7495 19.45C73.3812 19.45 73.8651 18.9931 73.8651 18.3883C73.8651 17.7835 73.3812 17.3265 72.7495 17.3265C72.1313 17.3265 71.6475 17.7835 71.6475 18.3883C71.6475 18.9931 72.1313 19.45 72.7495 19.45ZM75.3871 27.4334H77.336V23.3745C77.336 22.3396 77.9676 21.8289 78.8009 21.8289C79.6611 21.8289 80.0374 22.2859 80.0374 23.2401V27.4334H81.9862V22.9579C81.9862 21.0763 81.0056 20.243 79.6213 20.243C78.452 20.243 77.6854 20.8209 77.336 21.5198V20.4043H75.3871V27.4334ZM86.7607 27.5812C88.6827 27.5812 89.8923 26.7345 90.1207 25.2158H88.2795C88.1585 25.8071 87.715 26.1969 86.8145 26.1969C85.7527 26.1969 85.1211 25.5249 85.0673 24.3556H90.1342V23.818C90.1342 21.3047 88.5214 20.243 86.707 20.243C84.6641 20.243 83.0916 21.6811 83.0916 23.8987V24.0062C83.0916 26.2507 84.6372 27.5812 86.7607 27.5812ZM85.0942 23.1595C85.242 22.1649 85.8334 21.587 86.707 21.587C87.6343 21.587 88.172 22.0977 88.2392 23.1595H85.0942ZM93.8946 27.5812C95.7493 27.5812 96.8514 26.7883 96.8514 25.2695C96.8514 23.7643 95.8837 23.3207 94.1231 23.0654C93.1016 22.9175 92.7656 22.7428 92.7656 22.2993C92.7656 21.8692 93.1285 21.5735 93.7602 21.5735C94.4322 21.5735 94.7548 21.8423 94.8623 22.4203H96.6498C96.4751 20.8075 95.3058 20.243 93.7467 20.243C92.3087 20.243 90.9647 20.9687 90.9647 22.4337C90.9647 23.8046 91.6904 24.3422 93.5586 24.6244C94.5666 24.7723 94.9832 24.9739 94.9832 25.4577C94.9832 25.9415 94.6338 26.2238 93.8812 26.2238C93.0344 26.2238 92.7253 25.8609 92.6447 25.2292H90.8303C90.8975 26.7479 91.9996 27.5812 93.8946 27.5812ZM100.507 27.5812C102.361 27.5812 103.463 26.7883 103.463 25.2695C103.463 23.7643 102.496 23.3207 100.735 23.0654C99.7136 22.9175 99.3776 22.7428 99.3776 22.2993C99.3776 21.8692 99.7404 21.5735 100.372 21.5735C101.044 21.5735 101.367 21.8423 101.474 22.4203H103.262C103.087 20.8075 101.918 20.243 100.359 20.243C98.9206 20.243 97.5766 20.9687 97.5766 22.4337C97.5766 23.8046 98.3024 24.3422 100.171 24.6244C101.179 24.7723 101.595 24.9739 101.595 25.4577C101.595 25.9415 101.246 26.2238 100.493 26.2238C99.6463 26.2238 99.3372 25.8609 99.2566 25.2292H97.4422C97.5094 26.7479 98.6115 27.5812 100.507 27.5812ZM51.8447 40.4612C54.1161 40.4612 55.5139 39.1038 55.5139 37.3969C55.5139 35.4078 54.3177 34.7761 51.9926 34.4804C50.5142 34.2654 50.2051 33.9428 50.2051 33.2574C50.2051 32.6123 50.6889 32.1687 51.6431 32.1687C52.5974 32.1687 53.1081 32.5719 53.2425 33.4455H55.2451C55.0703 31.5371 53.807 30.5694 51.6431 30.5694C49.5196 30.5694 48.1487 31.7924 48.1487 33.4321C48.1487 35.2868 49.1567 36.026 51.6163 36.3486C53.0275 36.5636 53.4307 36.8324 53.4307 37.5985C53.4307 38.3511 52.799 38.8753 51.8447 38.8753C50.4201 38.8753 50.0572 38.163 49.9631 37.3028H47.8799C48.0009 39.2247 49.2105 40.4612 51.8447 40.4612ZM59.958 40.4612C62.0009 40.4612 63.2105 39.3054 63.318 37.6388H61.5574C61.4633 38.5393 60.8316 38.9963 60.0521 38.9963C58.9635 38.9963 58.3318 38.2705 58.3318 36.8593V36.7518C58.3318 35.4078 59.0038 34.6551 60.0118 34.6551C60.8047 34.6551 61.302 35.0315 61.4364 35.8513H63.2777C63.103 33.8353 61.5977 33.123 59.9715 33.123C57.9689 33.123 56.3427 34.5073 56.3427 36.7787V36.8862C56.3427 39.1844 57.9017 40.4612 59.958 40.4612ZM64.4083 40.3134H66.3571V36.2545C66.3571 35.2196 66.9888 34.7089 67.8221 34.7089C68.6823 34.7089 69.0586 35.1659 69.0586 36.1201V40.3134H71.0074V35.8379C71.0074 33.9563 70.0263 33.123 68.6419 33.123C67.4727 33.123 66.7066 33.7009 66.3571 34.3998V30.099H64.4083V40.3134ZM75.8217 38.9828C74.7196 38.9828 74.1014 38.1764 74.1014 36.8324V36.7249C74.1014 35.3809 74.7465 34.6014 75.8217 34.6014C76.9103 34.6014 77.542 35.4078 77.542 36.7518V36.8459C77.542 38.1764 76.9103 38.9828 75.8217 38.9828ZM75.8083 40.4612C77.9183 40.4612 79.5177 39.05 79.5177 36.8324V36.7249C79.5177 34.5342 77.9318 33.123 75.8217 33.123C73.7116 33.123 72.1123 34.5611 72.1123 36.7652V36.8727C72.1123 39.0635 73.7116 40.4612 75.8083 40.4612ZM83.9692 38.9828C82.8671 38.9828 82.2488 38.1764 82.2488 36.8324V36.7249C82.2488 35.3809 82.894 34.6014 83.9692 34.6014C85.0578 34.6014 85.6895 35.4078 85.6895 36.7518V36.8459C85.6895 38.1764 85.0578 38.9828 83.9692 38.9828ZM83.9557 40.4612C86.0658 40.4612 87.6651 39.05 87.6651 36.8324V36.7249C87.6651 34.5342 86.0792 33.123 83.9692 33.123C81.8591 33.123 80.2597 34.5611 80.2597 36.7652V36.8727C80.2597 39.0635 81.8591 40.4612 83.9557 40.4612ZM88.891 40.3134H90.8263V30.099H88.891V40.3134Z" fill="black"/>
</g>
<defs>
<clipPath id="clip0_20213_9989">
<rect width="103.6" height="44.8" fill="white"/>
</clipPath>
</defs>
</svg>
