<svg width="113" height="45" viewBox="0 0 113 45" fill="none" xmlns="http://www.w3.org/2000/svg">
<g clip-path="url(#clip0_20213_10033)">
<path d="M112.83 0V44.8H0V0H112.83Z" fill="white"/>
<path d="M112 0.829712H0.82959V43.9705H112V0.829712Z" fill="black"/>
<path d="M11.9218 22.6157C14.6347 22.6157 17.3061 23.2628 17.3061 25.9343C17.3061 28.1162 15.1822 29.2694 13.9046 29.6095C16.3188 29.8252 18.7579 31.0945 18.7579 33.4507C18.7579 36.1636 16.2607 37.7316 13.4898 37.7067H5.85718V37.1757L7.10162 37.0928C7.79851 37.0098 7.93125 36.9185 7.95614 36.0806C7.98103 34.9191 7.98103 34.2057 7.98103 33.0525V27.27C7.98103 26.1168 7.98103 25.4033 7.95614 24.2335C7.93955 23.4039 7.79851 23.2628 7.09333 23.2297L5.85718 23.1467V22.6157H11.9218ZM10.2127 23.2463V29.4851C10.2127 29.4851 11.0424 29.5265 11.648 29.5265C13.7221 29.5265 15.008 28.5144 15.008 26.3408C15.008 24.416 13.7635 23.1882 11.7061 23.1882C11.0009 23.1882 10.2127 23.2463 10.2127 23.2463ZM10.2127 30.1571V35.2925C10.2127 36.8356 10.9594 37.1177 12.7016 37.1177C15.1241 37.1177 16.3769 35.7239 16.3769 33.5088C16.3769 30.8954 14.1203 30.1571 11.7061 30.1571H10.2127ZM23.3955 33.0691C23.3955 34.2223 23.3955 34.9357 23.4121 36.1055C23.4287 36.9351 23.5615 37.0347 24.275 37.1177L25.0548 37.2006V37.7067H19.6954V37.1923L20.4835 37.1094C21.1887 37.0347 21.3298 36.9434 21.3464 36.1055C21.363 34.9357 21.363 34.2223 21.363 33.0691V24.0261C21.363 23.0637 21.0726 22.8314 20.243 22.7734L19.3304 22.7153V22.259C20.7158 22.0931 22.093 21.8442 23.4453 21.504C23.4453 21.504 23.3873 23.5781 23.3873 25.8596V33.0774L23.3955 33.0691ZM31.4927 36.5867C30.7056 37.3064 29.708 37.7543 28.6471 37.8643C27.987 37.8583 27.3547 37.598 26.8818 37.1374C26.4089 36.6769 26.1319 36.0517 26.1084 35.392C26.1084 33.1105 28.9292 32.3556 31.4513 32.0818V29.6842C31.4513 28.5725 31.0198 28.0415 30.0907 28.0415C29.7853 28.033 29.485 28.1205 29.232 28.2917C28.979 28.4628 28.786 28.709 28.6803 28.9956C28.2655 29.7671 27.9087 30.2234 27.3446 30.2234C27.2387 30.2268 27.1332 30.2086 27.0346 30.1699C26.9359 30.1312 26.8462 30.0728 26.7709 29.9983C26.6956 29.9237 26.6363 29.8347 26.5966 29.7364C26.5568 29.6382 26.5375 29.5329 26.5398 29.427C26.5398 28.4231 28.9292 27.411 30.3478 27.411C32.5464 27.411 33.5502 28.0996 33.5502 29.8252C33.5502 30.6217 33.4507 34.7034 33.4507 35.392C33.4507 36.0889 33.7991 36.4457 34.3881 36.4457C34.8323 36.3935 35.2539 36.2214 35.6077 35.9479L35.8068 36.3876C34.8444 37.1757 33.9982 37.8477 33.0607 37.8477C32.701 37.8185 32.3584 37.6819 32.0773 37.4555C31.7963 37.2292 31.5897 36.9236 31.4844 36.5784M31.443 32.6625C29.8584 32.7787 27.9668 33.2599 27.9668 34.7034C27.983 35.2067 28.1885 35.6853 28.5423 36.0437C28.896 36.4021 29.3719 36.6138 29.875 36.6365C30.4557 36.6531 31.0115 36.454 31.4513 36.064V32.6625H31.443ZM44.7419 28.8297C44.7499 28.9528 44.7324 29.0763 44.6904 29.1924C44.6485 29.3084 44.583 29.4146 44.4981 29.5042C44.4132 29.5937 44.3107 29.6648 44.1971 29.7129C44.0834 29.761 43.961 29.7851 43.8376 29.7837C43.2569 29.7837 42.9333 29.286 42.56 28.8545C42.3861 28.6138 42.1598 28.4156 41.8983 28.2747C41.6368 28.1339 41.3468 28.0542 41.0501 28.0415C39.4987 28.0415 38.304 29.6261 38.304 31.9076C38.304 34.4214 39.5401 36.4208 42.0539 36.4208C43.0097 36.3967 43.9215 36.0148 44.6092 35.3505L44.883 35.7488C43.6219 37.0762 42.4272 37.9058 40.9339 37.9058C38.304 37.9058 36.4207 35.5331 36.4207 32.8202C36.4207 29.8086 38.2625 27.411 41.4649 27.411C43.1739 27.411 44.7502 28.1411 44.7502 28.838M49.3215 33.094C49.3215 34.2388 49.3215 34.9357 49.3381 36.1055C49.363 36.9351 49.504 37.0347 50.2009 37.1177L50.8895 37.2006V37.7067H45.6296V37.1923L46.4178 37.1094C47.123 37.0347 47.2557 36.9434 47.2806 36.1055C47.2972 34.9357 47.2972 34.2223 47.2972 33.0691V24.0261C47.2972 23.0637 47.0068 22.8314 46.1772 22.7734L45.2563 22.7153V22.259C46.6418 22.0931 48.0272 21.8442 49.3795 21.504C49.3795 21.504 49.3215 23.5781 49.3215 25.8596V32.3971L52.9884 28.8711C53.3203 28.5393 53.2124 28.2157 52.7561 28.2074L51.8518 28.1411V27.6101H56.307V28.1245C55.9086 28.0874 55.5069 28.1347 55.1281 28.2634C54.7493 28.392 54.4018 28.5991 54.1084 28.8711L50.989 31.7748L55.2118 36.3627C55.5603 36.8605 56.1244 37.1591 56.7218 37.1757L56.9541 37.1923V37.715H51.9929V37.1923L52.6732 37.1342C52.9718 37.1177 52.9884 36.902 52.8557 36.7194L51.1881 34.7366C50.6074 34.0314 49.9769 33.3511 49.3215 32.7206V33.094ZM59.0033 37.5905C58.7378 37.6154 58.4723 37.6735 58.2151 37.7648H58.1321L57.9247 34.3052H58.4557C58.8705 36.4042 59.808 37.2504 61.3428 37.2504C62.5956 37.2504 63.3256 36.5618 63.3256 35.616C63.3256 34.72 62.9274 34.3467 61.0275 33.5502C59.6089 32.9529 58.1819 32.2643 58.1819 30.4143C58.1819 28.3983 60.0403 27.4027 61.6913 27.4027C62.4213 27.4276 63.1431 27.5105 63.8566 27.6516C64.0972 27.5935 64.3295 27.5188 64.5452 27.4027H64.6281L64.6862 30.6797H64.1055C63.9976 29.0951 63.309 28.0581 61.6996 28.0581C60.6376 28.0581 59.8329 28.6554 59.8329 29.6012C59.8329 30.5968 60.4634 30.912 62.2305 31.7251C63.9147 32.5215 65.1508 33.1105 65.1508 34.6785C65.1508 36.7775 63.3505 37.9141 61.3428 37.9141C60.5585 37.8618 59.7793 37.7508 59.0115 37.5823M67.5567 35.5911C67.5567 33.9651 67.6397 31.2937 67.6895 28.6388H66.3953V28.3153C67.5727 27.4265 68.6078 26.3634 69.4649 25.1627H69.6889V27.7262H72.7917V28.614H69.6889V35.11C69.6889 36.2631 70.2364 36.7194 71.0992 36.7194C71.7237 36.6669 72.3117 36.4036 72.7668 35.9728L73.0074 36.3627C71.904 37.3583 71.0163 37.9058 69.888 37.9058C69.5784 37.9198 69.2694 37.8694 68.9803 37.7579C68.6912 37.6463 68.4284 37.476 68.2085 37.2576C67.9887 37.0393 67.8165 36.7777 67.7028 36.4895C67.5892 36.2012 67.5366 35.8925 67.5484 35.5828M73.7292 32.6791C73.7248 31.9879 73.8567 31.3025 74.1172 30.6622C74.3777 30.0218 74.7618 29.4391 75.2475 28.9472C76.2285 27.9538 77.5639 27.3908 78.96 27.382C80.3561 27.3732 81.6985 27.9193 82.6919 28.9003C83.6853 29.8812 84.2484 31.2167 84.2572 32.6128C84.266 34.01 83.7194 35.3534 82.7376 36.3476C81.7559 37.3418 80.4194 37.9053 79.0222 37.9141C77.625 37.9229 76.2815 37.3763 75.2873 36.3946C74.2932 35.4128 73.7297 34.0763 73.7209 32.6791M81.9923 32.87C81.9923 30.099 80.8806 28.083 78.8729 28.083C76.8735 28.083 75.9858 30.0409 75.9858 32.4385C75.9858 35.2095 77.1058 37.2338 79.1052 37.2338C81.1129 37.2338 81.9923 35.2759 81.9923 32.87ZM93.4661 31.0945C93.4661 29.6261 92.7775 28.755 91.4667 28.755C90.5873 28.7218 89.7244 29.0039 89.0275 29.5431V33.0691C89.0275 34.2223 89.0275 34.9357 89.0441 36.1055C89.069 36.9351 89.2101 37.0347 89.907 37.1177L90.6951 37.2006V37.7067H85.2776V37.1923L86.0658 37.1094C86.771 37.0347 86.9037 36.9434 86.9286 36.1055C86.9452 34.9357 86.9452 34.2223 86.9452 33.0691V30.2815C86.9452 29.1698 86.7129 28.7882 85.8086 28.7052L85.1449 28.6554V28.1577C86.4659 28.0034 87.7672 27.7114 89.0275 27.2865V29.0288C90.0347 28.0685 91.3474 27.493 92.736 27.4027C94.5031 27.4027 95.5484 28.5144 95.5484 30.5553V33.0691C95.5484 34.2223 95.5484 34.9357 95.565 36.1055C95.5899 36.9351 95.731 37.0347 96.4278 37.1094L97.216 37.1923V37.7067H91.7985V37.1923L92.5784 37.1094C93.2918 37.0264 93.4246 36.9351 93.4495 36.1055C93.4661 34.9357 93.4661 34.2223 93.4661 33.0691V31.0945ZM97.9461 32.7538C97.9461 30.0824 99.5887 27.4027 102.517 27.4027C105.089 27.4027 106.583 29.1117 106.748 31.667H99.8293C99.7464 34.3384 100.991 36.3959 103.662 36.3959C104.732 36.3959 105.761 35.9977 106.566 35.2925L106.823 35.7073C105.487 37.0347 104.094 37.9058 102.509 37.9058C99.7132 37.9058 97.9461 35.5331 97.9461 32.7621M99.8874 31.0199H104.583C104.583 29.51 103.836 28.0415 102.343 28.0415C100.817 28.0415 100.045 29.51 99.8957 31.0116" fill="white"/>
</g>
<defs>
<clipPath id="clip0_20213_10033">
<rect width="112.83" height="44.8" fill="white"/>
</clipPath>
</defs>
</svg>
