<svg xmlns="http://www.w3.org/2000/svg" data-name="Layer 1" width="322.1" height="113.4"><rect x="224.6" width="20.8" height="20.83" fill="#ff5000"/><path d="M181.1,27.9V0H160.3V82.5a50.2,50.2,0,0,0,1.4,12.6,24.2,24.2,0,0,0,4.7,9.8,20,20,0,0,0,8.5,6.2,31.3,31.3,0,0,0,12.2,2.2c7.1,0,13.3-1.2,18.5-3.7a43.9,43.9,0,0,0,13.8-9.8L207.1,86.3a25.5,25.5,0,0,1-8.7,6.5c-3.4,1.6-6.9,2.8-10.5,2-5.7-1.3-6.8-6.6-6.8-13.8V44.9h43.5v65.8h20.8V27.9Z" fill="#ff5000"/><path d="M314.6,69.4a33.6,33.6,0,0,0-8.7-5.3,71.9,71.9,0,0,0-11.3-3.5,80.9,80.9,0,0,1-15.1-4.7c-3.3-1.4-4.9-3.5-4.9-6.1a6.4,6.4,0,0,1,2.9-5.3c2-1.5,5.4-2.2,10.3-2.2a35.7,35.7,0,0,1,12.9,2,36.4,36.4,0,0,1,7.1,3.3l12.5-13.5a44.5,44.5,0,0,0-13.8-6.8c-5.2-1.6-11.4-2.3-18.7-2.3a46,46,0,0,0-12.2,1.7,39.6,39.6,0,0,0-11,5.1,25.2,25.2,0,0,0-7.8,8.1,20.4,20.4,0,0,0-3,11,19.9,19.9,0,0,0,2.5,10.3,24.6,24.6,0,0,0,6.6,7.4,32.9,32.9,0,0,0,8.5,4.9,69.6,69.6,0,0,0,8.9,2.8c4.5,1.1,8.2,2.1,10.9,3a46,46,0,0,1,6.4,2.8,8.5,8.5,0,0,1,3,3,8.3,8.3,0,0,1,.7,3.2,6,6,0,0,1-4.1,5.8,27,27,0,0,1-10.8,1.8,34.2,34.2,0,0,1-13.5-2.5,33.5,33.5,0,0,1-9.8-6.5l-12.5,13.6a36,36,0,0,0,15,9.6,62.5,62.5,0,0,0,21,3.3,47.3,47.3,0,0,0,13.7-1.9,36.6,36.6,0,0,0,11.3-5.2,25.1,25.1,0,0,0,7.7-8.2,21.7,21.7,0,0,0,2.8-10.8,25.4,25.4,0,0,0-2-10.4A23.4,23.4,0,0,0,314.6,69.4Z" fill="#ff5000"/><path d="M136.4,92.8a26,26,0,0,1-11.3,2.4,22.8,22.8,0,0,1-10.4-2.3,24,24,0,0,1-7.3-6,26.3,26.3,0,0,1-4.3-8.3,30.2,30.2,0,0,1-1.4-9.4,32.1,32.1,0,0,1,1.4-9.7,23.4,23.4,0,0,1,4.3-8.3,23.2,23.2,0,0,1,7.3-5.7,22.8,22.8,0,0,1,10.4-2.2,24.1,24.1,0,0,1,11,2.3,24.7,24.7,0,0,1,6.8,4.8l12.7-13.9a43.3,43.3,0,0,0-12.1-7.8,45.8,45.8,0,0,0-18.4-3.6A46.4,46.4,0,0,0,107,28.6a44.7,44.7,0,0,0-14,9.6,42.9,42.9,0,0,0-9.1,14,44,44,0,0,0-3.2,17,51.5,51.5,0,0,0,3,18,39.2,39.2,0,0,0,8.6,14,37.6,37.6,0,0,0,14,9,52.6,52.6,0,0,0,18.8,3.1,43.2,43.2,0,0,0,18.6-3.7,42.4,42.4,0,0,0,13.7-9.8L145.1,86.3A25.5,25.5,0,0,1,136.4,92.8Z" fill="#ff5000"/><path d="M71.7,43a26.7,26.7,0,0,0-7.1-9.5,32.8,32.8,0,0,0-11-6.2,43.5,43.5,0,0,0-14.4-2.2,70.8,70.8,0,0,0-13,1,56.2,56.2,0,0,0-9.8,2.4A46.6,46.6,0,0,0,9,31.9a54.6,54.6,0,0,0-5.6,3.6L15.2,48.2a76.1,76.1,0,0,1,7-3.5c3.6-1.5,8.3-2.3,14.2-2.3s9.5,1.2,12.8,3.5a11.4,11.4,0,0,1,5,9.7v2l-6.5-.4L41.8,57H36.4a53.3,53.3,0,0,0-14.9,1.9,33,33,0,0,0-11.4,5.7,27.4,27.4,0,0,0-7.5,9.4A29.9,29.9,0,0,0,0,86.5a26.5,26.5,0,0,0,2.6,12,24.2,24.2,0,0,0,6.7,8.4,28.7,28.7,0,0,0,9.1,4.9,36,36,0,0,0,10.2,1.5,36.1,36.1,0,0,0,15.3-3.1,29.3,29.3,0,0,0,10.3-7.3l.5,7.8H74.1V55.1A30.4,30.4,0,0,0,71.7,43ZM54.2,81.4a11.9,11.9,0,0,1-1.7,6,18.3,18.3,0,0,1-4.3,4.9,19.2,19.2,0,0,1-6.1,3.4,21.8,21.8,0,0,1-7.2,1.2c-4.9,0-8.6-1-11.2-3a10,10,0,0,1-3.8-8.3A12.6,12.6,0,0,1,24,76.5q4-3.9,14.1-3.9h4.7l5.2.2,6.2.4Z" fill="#ff5000"/></svg>