<svg width="339" height="48" viewBox="0 0 339 48" fill="none" xmlns="http://www.w3.org/2000/svg">
<path d="M10.3788 29.6842C13.8222 29.6842 16.2762 26.8906 16.2762 23.4472C16.2762 20.0038 14.0744 17.2102 10.3788 17.2102C6.68314 17.2102 4.48129 20.0038 4.48129 23.4472C4.48129 26.8906 6.90624 29.6842 10.3788 29.6842ZM20.7769 23.3114C20.7769 28.9178 16.6545 33.467 10.2818 33.467C4.48129 33.467 0 29.0633 0 23.4569C0 17.5594 4.59769 13.437 10.3885 13.437C16.1793 13.437 20.7769 17.7049 20.7769 23.3114Z" fill="#1B1D43"/>
<path d="M60.7691 29.6842C64.2125 29.6842 66.6667 26.8906 66.6667 23.4472C66.6667 20.0038 64.4647 17.2102 60.7691 17.2102C57.0736 17.2102 54.8717 20.0038 54.8717 23.4472C54.8717 26.8906 57.2966 29.6842 60.7691 29.6842ZM71.1577 23.3114C71.1577 28.9178 67.0352 33.467 60.6625 33.467C54.862 33.467 50.3807 29.0633 50.3807 23.4569C50.3807 17.5594 54.9784 13.437 60.7691 13.437C66.5599 13.437 71.1577 17.7049 71.1577 23.3114Z" fill="#1B1D43"/>
<path d="M94.088 25.3098C94.088 25.3098 94.088 17.6373 94.088 15.6489C94.4566 12.8747 98.3656 14.3588 98.3656 14.3588V24.7085C98.3656 27.9384 100.577 29.5098 103.303 29.5098C106.028 29.5098 108.24 27.987 108.24 24.6987C108.24 24.6987 108.25 17.6276 108.25 15.6392C108.618 12.865 112.527 14.3491 112.527 14.3491V21.0032C113.08 29.2092 120.927 29.8202 120.927 29.8202C128.736 30.9066 128.057 27.696 128.057 27.696C127.853 26.0858 126.65 25.7172 124.574 25.4456C123.284 25.2807 122.159 25.1643 122.159 25.1643C113.788 24.6309 114.613 19.1117 114.613 19.1117C114.719 14.4364 119.715 13.7283 119.715 13.7283C124.128 12.9426 127.252 13.7089 127.252 13.7089C134.129 15.1348 130.743 18.3939 130.171 18.5782C130.171 18.5782 128.338 16.9001 124.06 16.6577C118.784 16.3182 118.881 18.811 118.881 18.811C118.706 20.6249 121.034 20.9644 121.034 20.9644L126.689 21.7597C133.372 22.6908 132.557 27.4244 132.557 27.4244C132.121 33.351 125.059 33.3897 125.059 33.3897C115.398 33.9524 111.771 28.9376 111.771 28.9376C110.413 31.6341 107.716 33.4286 103.225 33.4286C97.8709 33.4286 94.0976 30.4313 94.0976 25.0382" fill="#1B1D43"/>
<path d="M31.3303 13.7476C23.6092 14.3005 21.8438 21.4783 22.0282 23.5638C21.9214 26.7162 24.1232 33.4576 32.6591 33.4672C33.7843 33.4479 34.8125 33.3412 35.7533 33.1762V29.3545C34.9385 29.5 33.9491 29.5873 32.7562 29.6164C28.7792 29.7135 26.5094 26.4447 26.5288 23.5735C26.5288 20.2368 29.2642 17.4917 32.7562 17.5305H39.6527L39.6721 26.9781C39.6721 26.9781 39.1774 34.9804 49.2943 33.3024V29.4904C43.6877 30.7029 43.9885 27.1722 43.9885 27.1722V17.5402H49.2943V13.7573H43.9885V9.29541H39.6721V13.7573H31.3303V13.7476Z" fill="#1B1D43"/>
<path d="M82.5258 29.704C85.9303 29.704 88.365 26.9106 88.365 23.4672C88.365 20.0237 86.1922 17.2302 82.5258 17.2302C78.8592 17.2302 76.6864 20.0237 76.6864 23.4672C76.6864 26.9106 79.092 29.704 82.5258 29.704ZM76.7155 39.2002C76.347 41.9743 72.438 40.4902 72.438 40.4902V23.4477C72.6901 18.0061 75.9396 13.5831 82.6324 13.4279C88.5493 13.2921 92.7978 17.6958 92.8269 23.3022C92.8657 29.2482 88.7046 33.6616 82.5451 33.3997C80.353 33.2736 78.2094 32.4103 76.7253 30.5092C76.7253 30.5092 76.7059 37.2117 76.7059 39.1905" fill="#1B1D43"/>
<path d="M263.643 15.8935C262.135 14.2971 259.941 13.3862 257.62 13.3862C255.3 13.3862 253.116 14.2971 251.607 15.8935C251.107 16.4223 250.705 17.0002 250.392 17.6367C250.078 17.0002 249.678 16.4321 249.178 15.8935C247.669 14.2971 245.476 13.3862 243.154 13.3862C240.834 13.3862 238.65 14.2971 237.132 15.8935C235.692 17.4311 235.017 19.4192 235.017 22.1419V32.964H236.838V22.1419C236.838 19.9187 237.376 18.3027 238.522 17.0687C239.649 15.8641 241.422 15.1197 243.154 15.1197C244.888 15.1197 246.661 15.8641 247.788 17.0687C248.934 18.3027 249.472 19.9089 249.472 22.1419V32.4841L249.501 32.9542H251.304V22.1321C251.304 19.9089 251.842 18.2929 252.988 17.0589C254.113 15.8543 255.886 15.1099 257.62 15.1099C259.354 15.1099 261.126 15.8543 262.252 17.0589C263.398 18.2929 263.937 19.8991 263.937 22.1321V32.9542H265.759V22.1321C265.759 19.4094 265.083 17.4311 263.643 15.8837V15.8935Z" fill="#1B1D43"/>
<path d="M306.099 15.8935C304.592 14.2971 302.397 13.3862 300.077 13.3862C297.756 13.3862 295.572 14.2971 294.063 15.8935C292.623 17.4311 291.948 19.4192 291.948 22.1419V32.964H293.769V22.1419C293.769 19.9187 294.308 18.3027 295.454 17.0687C296.58 15.8641 298.353 15.1197 300.086 15.1197C301.82 15.1197 303.593 15.8641 304.719 17.0687C305.865 18.3027 306.404 19.9089 306.404 22.1419V32.964H308.225V22.1419C308.225 19.4192 307.55 17.4409 306.11 15.8935H306.099Z" fill="#1B1D43"/>
<path d="M202.599 22.8274C202.51 20.2517 201.6 17.8816 200.013 16.1677C198.339 14.346 196.086 13.3862 193.511 13.3862C188.241 13.3862 184.422 17.5682 184.422 23.3367C184.422 29.1052 188.377 33.3754 194.049 33.3754C197.143 33.3754 199.788 32.2294 201.688 30.0651L201.991 29.7124L200.709 28.4295L200.356 28.831C198.778 30.6625 196.594 31.6321 194.038 31.6321C191.688 31.6321 189.701 30.7996 188.291 29.2228C186.968 27.744 186.234 25.648 186.234 23.3269H202.599L202.579 22.8079L202.599 22.8274ZM186.41 21.6032C187.106 17.6563 189.857 15.1197 193.511 15.1197C195.459 15.1197 197.183 15.8249 198.495 17.1764C199.611 18.3223 200.356 19.8893 200.601 21.6032H186.41Z" fill="#1B1D43"/>
<path d="M287.961 22.8274C287.874 20.2517 286.953 17.8816 285.376 16.1677C283.701 14.346 281.448 13.3862 278.872 13.3862C273.604 13.3862 269.784 17.5682 269.784 23.3367C269.784 29.1052 273.741 33.3754 279.411 33.3754C282.507 33.3754 285.151 32.2294 287.05 30.0651L287.364 29.7124L286.081 28.4295L285.729 28.831C284.152 30.6625 281.968 31.6321 279.411 31.6321C277.06 31.6321 275.073 30.7996 273.663 29.2228C272.34 27.744 271.606 25.648 271.606 23.3269H287.971L287.952 22.8079L287.961 22.8274ZM271.762 21.6032C272.458 17.6563 275.209 15.1197 278.863 15.1197C280.812 15.1197 282.535 15.8249 283.848 17.1764C284.964 18.3321 285.709 19.8893 285.954 21.6032H271.762Z" fill="#1B1D43"/>
<path d="M173.824 29.869L166.645 14.0912L166.509 13.7974H164.55L173.305 32.9638H174.354L183.109 13.7974H181.15L173.824 29.869Z" fill="#1B1D43"/>
<path d="M140.31 7.5C139.517 7.5 138.9 8.11701 138.9 8.91031C138.9 9.7036 139.517 10.3206 140.31 10.3206C141.104 10.3206 141.721 9.7036 141.721 8.91031C141.721 8.11701 141.104 7.5 140.31 7.5Z" fill="#1B1D43"/>
<path d="M141.221 13.7974H139.4V32.9639H141.221V13.7974Z" fill="#1B1D43"/>
<path d="M212.207 22.1713C209.709 21.3584 207.545 20.6532 207.545 18.5867C207.545 16.3146 209.66 15.1197 211.757 15.1197C213.548 15.1197 215.037 15.6682 216.291 16.8043L216.653 17.1373L217.877 15.8151L217.476 15.4821C216.164 14.395 214.557 13.3862 211.746 13.3862C208.191 13.3862 205.713 15.5311 205.713 18.5867C205.713 21.9362 208.838 22.9548 211.59 23.8461C214.263 24.7177 216.575 25.462 216.575 27.8811C216.575 30.3001 214.283 31.6419 212.079 31.6419C209.876 31.6419 208.28 30.9856 206.517 29.3011L206.174 28.978L204.872 30.1825L205.233 30.5449C207.134 32.445 209.376 33.3754 212.07 33.3754C215.615 33.3754 218.387 30.9661 218.387 27.8811C218.387 24.1986 214.949 23.0722 212.187 22.1713H212.207Z" fill="#1B1D43"/>
<path d="M331.338 22.1713C328.84 21.3584 326.676 20.6532 326.676 18.5867C326.676 16.3146 328.792 15.1197 330.888 15.1197C332.68 15.1197 334.168 15.6682 335.422 16.8043L335.784 17.1373L337.009 15.8151L336.607 15.4821C335.295 14.395 333.688 13.3862 330.877 13.3862C327.322 13.3862 324.844 15.5311 324.844 18.5867C324.844 21.9362 327.969 22.9548 330.721 23.8461C333.394 24.7177 335.706 25.462 335.706 27.8811C335.706 30.3001 333.414 31.6419 331.21 31.6419C329.007 31.6419 327.411 30.9856 325.648 29.3011L325.305 28.978L324.003 30.1825L324.364 30.5449C326.265 32.445 328.507 33.3754 331.201 33.3754C334.746 33.3754 337.518 30.9661 337.518 27.8811C337.518 24.1986 334.08 23.0722 331.318 22.1713H331.338Z" fill="#1B1D43"/>
<path d="M160.418 15.8935C158.909 14.2971 156.716 13.3862 154.394 13.3862C152.073 13.3862 149.889 14.2971 148.371 15.8935C146.931 17.4311 146.255 19.4192 146.255 22.1419V32.964H148.077V22.1419C148.077 19.9187 148.616 18.3027 149.761 17.0687C150.888 15.8641 152.661 15.1197 154.394 15.1197C156.128 15.1197 157.901 15.8641 159.026 17.0687C160.172 18.3027 160.712 19.9089 160.712 22.1419V32.964H162.533V22.1419C162.533 19.4192 161.856 17.4409 160.418 15.8935Z" fill="#1B1D43"/>
<path d="M224.645 8.62646H222.824V24.6197C222.824 27.3423 223.499 29.3207 224.939 30.8682C226.446 32.4645 228.641 33.3753 230.961 33.3753H231.461V31.6419H230.961C229.229 31.6419 227.456 30.8975 226.329 29.693C225.183 28.4589 224.645 26.8527 224.645 24.6197V15.5409H232.079V13.8074H224.645V8.63626V8.62646Z" fill="#1B1D43"/>
<path d="M314.679 8.62646H312.858V24.6197C312.858 27.3423 313.533 29.3207 314.973 30.8682C316.481 32.4645 318.675 33.3753 320.996 33.3753H321.495V31.6419H320.996C319.263 31.6419 317.49 30.8975 316.364 29.693C315.218 28.4589 314.679 26.8527 314.679 24.6197V15.5409H322.113V13.8074H314.679V8.63626V8.62646Z" fill="#1B1D43"/>
</svg>
