<svg width="180" height="45" viewBox="0 0 180 45" fill="none" xmlns="http://www.w3.org/2000/svg">
<path d="M47.2656 17.0346H40.8278V22.3284H38.8268V9.93228H47.6733V11.8258H40.8278V15.138H47.2656V17.0346ZM60.1814 17.4423C60.1814 20.8859 57.8533 22.5495 54.9204 22.5495C51.9875 22.5495 49.6609 20.8859 49.6609 17.4423V9.93228H51.6634V17.2899C51.6634 19.6554 53 20.629 54.9204 20.629C56.8408 20.629 58.1804 19.6554 58.1804 17.2899V9.93228H60.1814V17.4423ZM71.2037 22.3284H62.3408V9.93228H64.3404V20.4349H71.2037V22.3284ZM74.8818 17.0405V20.4752H77.8834C79.4603 20.4752 80.5132 20.1765 80.5132 18.7385C80.5132 17.3407 79.4678 17.0376 77.8834 17.0376L74.8818 17.0405ZM74.8818 11.8348V15.1754H77.628C79.0168 15.1754 80.2309 14.9603 80.2309 13.4804C80.2309 12.0558 79.0004 11.8378 77.6086 11.8378L74.8818 11.8348ZM77.6893 9.95916C80.3369 9.95916 82.329 10.8716 82.329 13.3326C82.329 14.6079 81.5062 15.6697 80.4161 15.9728C81.5943 16.3148 82.6128 17.387 82.6128 18.8101C82.6128 21.2816 80.7969 22.3538 77.9715 22.3538H72.8822V9.95916H77.6893ZM87.0211 11.8094V15.2978H90.066C91.6788 15.2978 92.4314 14.7139 92.4314 13.5193C92.4314 12.3246 91.634 11.8094 90.066 11.8094H87.0211ZM90.1213 9.93228C92.972 9.93228 94.5117 11.2091 94.5117 13.5163C94.5117 15.6234 92.9004 17.0226 90.3766 17.1107L94.4594 22.3255H91.9805L88.0306 17.1137H87.0211V22.3284H85.02V9.93377L90.1213 9.93228ZM96.9338 9.93228H98.9349V22.3284H96.9338V9.93228ZM112.618 11.7034L111.149 13.1295C110.74 12.6476 110.229 12.2624 109.653 12.0019C109.077 11.7413 108.451 11.6118 107.819 11.6227C105.28 11.6227 103.428 13.4551 103.428 16.1296C103.428 18.8042 105.288 20.6395 107.731 20.6395C109.99 20.6395 111.315 19.4687 111.637 17.4213H108.352V15.5621H113.807C113.816 15.7219 113.825 15.8817 113.825 16.0415C113.825 19.6001 111.567 22.5495 107.732 22.5495C104.536 22.5495 101.332 20.2661 101.332 16.1281C101.332 12.3948 104.057 9.70679 107.82 9.70679C109.796 9.70679 111.495 10.4535 112.621 11.7079M117.664 15.138H124.357V9.93228H126.36V22.3284H124.357V17.0346H117.664V22.3284H115.665V9.93228H117.664V15.138ZM127.961 9.93228V11.8258H131.972V22.3284H133.974V11.8258H137.986V9.93228H127.961Z" fill="#003DA5"/>
<path d="M6.87826 10.6863C6.24529 11.9721 5.84295 13.3591 5.68957 14.784C5.68522 14.8327 5.69105 14.8818 5.70671 14.9282C5.72237 14.9745 5.7475 15.0171 5.78051 15.0532C5.81352 15.0893 5.85368 15.1181 5.89845 15.1379C5.94321 15.1576 5.99159 15.1678 6.0405 15.1678H11.4822C11.5782 15.1671 11.6702 15.1295 11.7391 15.0627C11.8081 14.996 11.8487 14.9053 11.8526 14.8094C11.9053 13.4444 12.0454 12.0841 12.2722 10.7371C12.2802 10.6973 12.2792 10.6562 12.2693 10.6169C12.2594 10.5775 12.2408 10.5409 12.2149 10.5097C12.189 10.4784 12.1564 10.4534 12.1195 10.4364C12.0827 10.4195 12.0425 10.4109 12.0019 10.4115H7.3173C7.22547 10.4113 7.13542 10.4369 7.05749 10.4855C6.97957 10.5341 6.91693 10.6037 6.87677 10.6863" fill="#0077C8"/>
<path d="M18.0768 3.73328C16.9344 3.73328 15.7203 5.40582 14.8721 8.11771C14.8594 8.15964 14.8566 8.20393 14.8639 8.24712C14.8711 8.29032 14.8883 8.33124 14.9141 8.36668C14.9398 8.40211 14.9734 8.43111 15.0123 8.45139C15.0511 8.47167 15.0941 8.48269 15.1379 8.48358H27.4549C27.4927 8.48339 27.5297 8.47255 27.5617 8.45232C27.5937 8.43208 27.6193 8.40325 27.6357 8.36914C27.652 8.33502 27.6584 8.29699 27.6542 8.2594C27.65 8.2218 27.6352 8.18615 27.6117 8.15654C26.4407 6.76895 24.9806 5.6541 23.3336 4.89004C21.6865 4.12598 19.8924 3.73118 18.0768 3.73328Z" fill="#00A9E0"/>
<path d="M28.8213 10.4115H14.5988C14.5133 10.4106 14.4303 10.4402 14.3646 10.4949C14.2989 10.5496 14.2549 10.6259 14.2404 10.7102C13.9953 12.0574 13.8456 13.4202 13.7924 14.7885C13.7897 14.838 13.7972 14.8876 13.8143 14.9341C13.8314 14.9807 13.8578 15.0233 13.8919 15.0593C13.926 15.0953 13.967 15.1241 14.0125 15.1437C14.0581 15.1634 14.1071 15.1736 14.1567 15.1738H30.113C30.1625 15.1738 30.2114 15.1635 30.2566 15.1434C30.3018 15.1233 30.3423 15.0939 30.3754 15.0571C30.4085 15.0204 30.4335 14.9771 30.4487 14.93C30.464 14.8829 30.4692 14.8332 30.4639 14.784C30.3088 13.3601 29.9044 11.9746 29.2693 10.6908C29.2273 10.608 29.1632 10.5385 29.0841 10.49C29.005 10.4415 28.914 10.4159 28.8213 10.416" fill="#0077C8"/>
<path d="M11.5136 17.0942H5.92556C5.89085 17.0938 5.85645 17.1008 5.82456 17.1145C5.79268 17.1282 5.76401 17.1484 5.7404 17.1739C5.71678 17.1993 5.69874 17.2294 5.68742 17.2622C5.67611 17.2951 5.67176 17.3299 5.67468 17.3645C5.91704 19.7332 6.83576 21.9822 8.32121 23.8431C9.80667 25.7041 11.7962 27.0983 14.0523 27.8596C14.0834 27.8693 14.1166 27.8695 14.1478 27.8604C14.1791 27.8513 14.2069 27.8332 14.2279 27.8084C14.249 27.7835 14.2622 27.7531 14.266 27.7207C14.2698 27.6884 14.264 27.6557 14.2494 27.6266C12.8188 25.1253 12.0004 21.286 11.8511 17.4227C11.8469 17.3358 11.8096 17.2538 11.7468 17.1935C11.6841 17.1333 11.6006 17.0993 11.5136 17.0986M18.0693 28.5226C21.1357 28.5311 24.0971 27.4064 26.3848 25.3646C28.6726 23.3227 30.1253 20.5077 30.464 17.46C30.4696 17.4131 30.465 17.3655 30.4506 17.3205C30.4361 17.2755 30.4121 17.2342 30.3802 17.1993C30.3483 17.1645 30.3093 17.1369 30.2658 17.1185C30.2222 17.1001 30.1752 17.0913 30.128 17.0927H14.1284C14.0832 17.0926 14.0383 17.1018 13.9967 17.1195C13.955 17.1372 13.9174 17.1632 13.886 17.1958C13.8546 17.2284 13.8301 17.2671 13.8141 17.3094C13.798 17.3517 13.7906 17.3969 13.7924 17.4421C14.0508 23.8634 16.1668 28.5212 18.0753 28.5226" fill="#003DA5"/>
<path d="M12.8263 8.19391C13.152 6.95401 13.63 5.75922 14.2494 4.63679C14.2657 4.60749 14.2728 4.57393 14.2696 4.54055C14.2665 4.50716 14.2532 4.47551 14.2317 4.44979C14.2102 4.42406 14.1814 4.40547 14.1491 4.39647C14.1168 4.38746 14.0825 4.38847 14.0508 4.39935C11.9108 5.12799 10.0088 6.42402 8.54785 8.14911C8.52331 8.17933 8.50783 8.21589 8.5032 8.25455C8.49857 8.2932 8.50499 8.33238 8.52171 8.36754C8.53843 8.4027 8.56477 8.4324 8.59768 8.45321C8.63058 8.47402 8.66871 8.48508 8.70764 8.48511H12.441C12.528 8.48358 12.612 8.45352 12.6803 8.39957C12.7486 8.34561 12.7972 8.27074 12.8188 8.18645" fill="#00A9E0"/>
<path d="M46.9817 28.6452C45.8494 27.8438 44.4935 27.4196 43.1065 27.4326C41.1159 27.4326 39.6554 28.3525 39.6554 29.9011C39.6554 31.1316 40.5678 31.8827 42.6824 32.1217L44.0353 32.271C46.238 32.5189 47.8403 33.3865 47.8403 35.4473C47.8403 37.8546 45.6466 39.0582 42.9736 39.0582C41.1159 39.0582 39.2761 38.3757 38.1785 37.5096L38.7758 36.6509C39.6419 37.3409 41.2533 38.0308 42.9691 38.0308C45.0598 38.0308 46.7203 37.208 46.7203 35.5354C46.7203 34.1914 45.6422 33.5359 43.5843 33.3059L42.1687 33.1521C39.9033 32.8952 38.5324 31.8768 38.5324 29.9757C38.5324 27.6924 40.5678 26.4097 43.1154 26.4097C45.0359 26.4097 46.4695 27.007 47.5387 27.7716L46.9817 28.6452ZM56.7944 31.7588L56.1388 32.4412C55.823 32.1131 55.4436 31.8528 55.0238 31.6762C54.604 31.4995 54.1526 31.4103 53.6972 31.4138C51.8753 31.4138 50.485 32.8295 50.485 34.7679C50.485 36.7062 51.8753 38.1129 53.6972 38.1129C54.6248 38.1079 55.5125 37.7352 56.1657 37.0765L56.7944 37.768C56.0477 38.5983 54.9531 39.0597 53.7241 39.0597C51.2198 39.0597 49.4591 37.2184 49.4591 34.7679C49.4591 32.3173 51.2213 30.4641 53.7241 30.4641C54.9546 30.4641 56.0507 30.927 56.7944 31.7588ZM59.6511 32.0425C60.3067 30.9449 61.4745 30.4671 62.6154 30.4671C64.7061 30.4671 66.1202 31.7588 66.1202 33.8211V38.9268H65.1093V34.1302C65.1093 32.4502 64.1356 31.4228 62.4377 31.4228C60.8712 31.4228 59.6496 32.5473 59.6496 34.184V38.9268H58.6431V26.1857H59.6511V32.0425ZM76.702 34.7679C76.702 37.2184 74.8353 39.0597 72.3713 39.0597C69.9073 39.0597 68.0526 37.2184 68.0526 34.7679C68.0526 32.3173 69.8984 30.4641 72.3669 30.4641C74.8353 30.4641 76.702 32.3173 76.702 34.7679ZM69.0755 34.7679C69.0755 36.7092 70.5002 38.1129 72.3609 38.1129C74.2216 38.1129 75.6611 36.7047 75.6611 34.7679C75.6611 32.831 74.2365 31.4138 72.3609 31.4138C70.4853 31.4138 69.0755 32.8295 69.0755 34.7679ZM79.7439 38.9268H78.7285V26.1857H79.7439V38.9268ZM90.2122 38.9268H89.2131V37.3244C88.5396 38.3698 87.4211 39.0597 85.9129 39.0597C83.5773 39.0597 81.7539 37.2453 81.7539 34.7679C81.7539 32.2904 83.5773 30.4641 85.9129 30.4641C87.4256 30.4641 88.5396 31.1644 89.2131 32.1993V30.6H90.2122V38.9268ZM82.7799 34.7679C82.7799 36.6435 84.1343 38.1129 86.0279 38.1129C87.9214 38.1129 89.2654 36.6793 89.2654 34.7679C89.2654 32.8564 87.9125 31.4138 86.0279 31.4138C84.1164 31.4138 82.7799 32.8833 82.7799 34.7679ZM98.0074 30.7777L97.7505 31.7588C97.2914 31.5325 96.7855 31.4174 96.2736 31.4228C94.8848 31.4228 93.8933 32.5473 93.8933 34.2288V38.9268H92.8927V30.6H93.8843V32.0156C94.1292 31.5472 94.4979 31.1548 94.9502 30.8813C95.4025 30.6077 95.9212 30.4634 96.4498 30.4641C96.9863 30.4471 97.5193 30.5544 98.0074 30.7777ZM104.832 33.8823V38.9268H103.752V26.5321H108.355C111.087 26.5321 112.733 27.8851 112.733 30.2042C112.733 32.5234 111.09 33.8748 108.355 33.8748L104.832 33.8823ZM104.832 27.5565V32.8534H108.328C110.398 32.8534 111.613 31.9574 111.613 30.2087C111.613 28.46 110.401 27.5536 108.328 27.5536L104.832 27.5565ZM119.871 30.7777L119.616 31.7588C119.157 31.5328 118.651 31.4177 118.139 31.4228C116.749 31.4228 115.759 32.5473 115.759 34.2288V38.9268H114.758V30.6H115.75V32.0156C115.994 31.5473 116.363 31.155 116.815 30.8815C117.267 30.6079 117.785 30.4635 118.314 30.4641C118.85 30.4471 119.383 30.5544 119.871 30.7777ZM129.064 34.7679C129.064 37.2184 127.198 39.0597 124.734 39.0597C122.27 39.0597 120.415 37.2184 120.415 34.7679C120.415 32.3173 122.261 30.4641 124.729 30.4641C127.198 30.4641 129.064 32.3173 129.064 34.7679ZM121.438 34.7679C121.438 36.7092 122.862 38.1129 124.723 38.1129C126.584 38.1129 128.023 36.7047 128.023 34.7679C128.023 32.831 126.599 31.4138 124.723 31.4138C122.847 31.4138 121.438 32.8295 121.438 34.7679ZM137.806 32.2277V30.6H138.814V38.3653C138.814 41.1339 136.895 42.5765 134.443 42.5765C133.072 42.5765 131.763 42.1285 130.94 41.3729L131.454 40.6381C132.306 41.3036 133.359 41.6624 134.44 41.6566C136.307 41.6566 137.803 40.5859 137.803 38.4086V37.2229C137.157 38.2847 136.052 38.9746 134.555 38.9746C132.211 38.9746 130.423 37.2139 130.423 34.7186C130.423 32.2232 132.215 30.4715 134.555 30.4715C136.055 30.4641 137.16 31.1674 137.806 32.2277ZM131.454 34.7141C131.454 36.5733 132.771 38.0233 134.664 38.0233C136.532 38.0233 137.885 36.5987 137.885 34.7141C137.885 32.8295 136.532 31.4138 134.664 31.4138C132.771 31.4138 131.454 32.8743 131.454 34.7141ZM146.609 30.7777L146.347 31.7588C145.887 31.5325 145.382 31.4174 144.87 31.4228C143.481 31.4228 142.489 32.5473 142.489 34.2288V38.9268H141.49V30.6H142.48V32.0156C142.726 31.5464 143.095 31.1536 143.549 30.88C144.002 30.6064 144.522 30.4625 145.052 30.4641C145.588 30.4471 146.121 30.5544 146.609 30.7777ZM155.605 38.9268H154.605V37.3244C153.933 38.3698 152.813 39.0597 151.304 39.0597C148.969 39.0597 147.147 37.2453 147.147 34.7679C147.147 32.2904 148.969 30.4671 151.304 30.4671C152.819 30.4671 153.933 31.1674 154.605 32.2023V30.6H155.605V38.9268ZM148.173 34.7679C148.173 36.6435 149.526 38.1129 151.419 38.1129C153.313 38.1129 154.658 36.6793 154.658 34.7679C154.658 32.8564 153.304 31.4138 151.419 31.4138C149.512 31.4138 148.176 32.8833 148.176 34.7679H148.173ZM172.242 33.8211V38.9268H171.233V34.1302C171.233 32.4502 170.252 31.4228 168.545 31.4228C166.978 31.4228 165.758 32.5473 165.758 34.184V38.9268H164.749V34.1302C164.749 32.4502 163.777 31.4228 162.077 31.4228C160.511 31.4228 159.291 32.5473 159.291 34.184V38.9268H158.293V30.6H159.294V32.0604C159.948 30.9449 161.116 30.4671 162.266 30.4671C163.823 30.4671 165.009 31.1839 165.505 32.4084C166.124 31.0465 167.446 30.4671 168.735 30.4671C170.818 30.4641 172.242 31.7588 172.242 33.8211Z" fill="#003DA5"/>
</svg>
