<svg width="56" height="56" viewBox="0 0 56 56" fill="none" xmlns="http://www.w3.org/2000/svg">
<g clip-path="url(#clip0_20213_10010)">
<path d="M0 0H56V56H0V0Z" fill="#000F46"/>
<path d="M39.3779 11.3109L35.7058 6.54211C35.1691 6.87755 34.3233 7.20711 33.4716 7.20711C32.6199 7.20711 32.0074 7.12843 31.2899 6.98549C30.4004 6.80755 29.3913 6.60917 27.7899 6.60917C26.1886 6.60917 25.1795 6.81049 24.2899 6.98549C23.5695 7.12829 22.9599 7.20711 22.1083 7.20711C21.2566 7.20711 20.4108 6.87755 19.8741 6.54211L16.1963 11.3109C16.6513 11.7484 17.4795 12.7342 17.4795 14.1342C17.4795 15.088 17.3395 15.9512 17.1791 16.9517C16.9604 18.2962 16.7154 19.8217 16.7154 22.0909C16.7154 25.9817 19.1974 29.3359 23.1904 30.8409C26.0808 31.9287 27.2883 32.7309 27.787 33.1714C28.2858 32.728 29.4933 31.9287 32.3838 30.8409C36.3795 29.3359 38.8588 25.9846 38.8588 22.0909C38.8588 19.8217 38.6108 18.2962 38.3949 16.9517C38.2316 15.9512 38.0945 15.088 38.0945 14.1342C38.0945 12.7342 38.9229 11.7455 39.3779 11.3109Z" fill="white"/>
<path d="M35.7058 6.54223L39.3779 11.3109C38.9229 11.7484 38.0945 12.7342 38.0945 14.1342C38.0945 15.088 38.2345 15.9514 38.395 16.9517C38.6138 18.2964 38.8588 19.8217 38.8588 22.0909C38.8588 25.9817 36.3766 29.3359 32.3838 30.8409C29.4933 31.9289 28.2858 32.7309 27.787 33.1714C27.2883 32.728 26.0808 31.9289 23.1904 30.8409C19.1945 29.3359 16.7154 25.9846 16.7154 22.0909C16.7154 19.8217 16.9633 18.2964 17.1791 16.9517C17.3425 15.9514 17.4795 15.088 17.4795 14.1342C17.4795 12.7371 16.6513 11.7484 16.1963 11.3109L19.8683 6.54209C20.405 6.87753 21.2508 7.20709 22.1025 7.20709C22.9541 7.20709 23.5666 7.12841 24.2841 6.98547C25.1738 6.80753 26.1829 6.60915 27.7841 6.60915C29.3854 6.60915 30.3945 6.81047 31.2841 6.98547C32.0045 7.12827 32.6141 7.20709 33.4658 7.20709C34.3233 7.20709 35.1663 6.87767 35.7058 6.54223ZM35.7729 6.16003L35.5513 6.29723C35.07 6.59753 34.2708 6.91841 33.4688 6.91841C32.6025 6.91841 32.0133 6.83665 31.3425 6.70253C30.4383 6.52473 29.4175 6.32033 27.787 6.32033C26.1566 6.32033 25.1329 6.52473 24.2316 6.70253C23.5608 6.83665 22.9716 6.91841 22.1054 6.91841C21.3033 6.91841 20.5041 6.59753 20.0229 6.29709L19.8013 6.16003L19.6438 6.36723L15.9716 11.1359L15.8141 11.34L15.9979 11.5178C16.4441 11.9467 17.1938 12.8567 17.1938 14.1342C17.1938 15.0646 17.0566 15.9162 16.8963 16.905C16.6775 18.2614 16.4266 19.7984 16.4266 22.0909C16.4266 26.1042 18.9788 29.5605 23.0883 31.1092C26.0225 32.2146 27.1716 33.0109 27.5975 33.3871L27.787 33.5564L27.9766 33.3871C28.3995 33.0109 29.5488 32.2146 32.4858 31.1092C36.5954 29.5605 39.1475 26.1071 39.1475 22.0909C39.1475 19.7984 38.8995 18.2614 38.6779 16.905C38.5175 15.9162 38.3804 15.0617 38.3804 14.1342C38.3804 12.8567 39.13 11.9467 39.5763 11.518L39.76 11.34L39.6025 11.1359L35.9333 6.36709L35.7729 6.16003Z" fill="#000F46"/>
<path d="M37.3509 14.0876C37.3509 12.8276 37.8963 11.8563 38.4066 11.2235L35.4959 7.44627C34.9475 7.73803 34.265 7.90421 33.4716 7.90421C32.5471 7.90421 31.8675 7.81391 31.1441 7.66803C30.2866 7.49877 29.3125 7.30627 27.7841 7.30627C26.2559 7.30627 25.2816 7.49891 24.4241 7.66803C23.7009 7.81083 23.0213 7.90421 22.0966 7.90421C21.3034 7.90421 20.6209 7.73803 20.0725 7.44641L17.1616 11.2235C17.6721 11.8563 18.2175 12.8276 18.2175 14.0876C18.2175 15.0997 18.0746 15.9922 17.9054 17.0247C17.6925 18.343 17.4504 19.8364 17.4504 22.0442C17.4504 25.6172 19.7459 28.703 23.4441 30.0972C25.7396 30.9605 27.0463 31.6692 27.7841 32.1826C28.5221 31.6692 29.8288 30.9605 32.1241 30.0972C35.8225 28.706 38.1179 25.6201 38.1179 22.0442C38.1179 19.8335 37.8759 18.3401 37.6629 17.0247C37.4938 15.9922 37.3509 15.0997 37.3509 14.0876Z" fill="#000F46"/>
<path d="M19.3958 8.59246C17.952 8.2629 17.284 8.05584 17.284 8.05584C17.284 8.92496 17.7303 9.35658 17.7303 9.35658C17.7303 9.35658 17.8265 9.67746 18.1008 10.1558M37.3683 13.0958C38.0187 12.7311 38.1908 12.5825 38.4183 11.9261C38.4183 11.9261 38.9315 11.48 39.1474 11.1183C39.7365 10.4941 39.9174 9.72702 39.9233 9.72114C40.3812 9.17878 40.5299 8.42908 40.5299 8.42908C40.9908 7.70584 41.049 7.06128 41.049 7.06128C41.049 7.06128 39.9845 7.41702 37.7153 8.1404C37.3858 8.2454 36.1695 8.6654 36.1695 8.6654" fill="#000F46"/>
<path d="M20.1716 16.1116L20.3961 16.6805L20.9941 16.5055L20.7025 17.0334L21.2129 17.4271L20.6004 17.4796L20.6295 18.1009L20.1833 17.6984L19.702 18.1009L19.7458 17.5088L19.1625 17.3775L19.6816 17.013L19.3958 16.4791L19.9441 16.6746L20.1716 16.1116ZM23.4586 17.5816L22.9104 17.4009L23.1933 17.9259L22.6741 18.2846L23.275 18.4159L23.2166 19.0166L23.692 18.6141L24.1529 19.0166L24.115 18.3955L24.7304 18.343L24.2286 17.958L24.5116 17.4241L23.9136 17.5846L23.695 17.0305L23.4586 17.5816ZM19.2936 21.1663L18.7454 20.9855L19.0225 21.5046L18.512 21.8634L19.0954 21.9946L19.0458 22.5925L19.527 22.1841L19.9733 22.5925L19.9441 21.9655L20.5566 21.913L20.052 21.5191L20.3379 21L19.737 21.1663L19.5183 20.6034L19.2936 21.1663ZM23.4791 21.385L22.9541 21.3938L23.3916 21.7234L23.2311 22.2571L23.6745 21.9363L24.1208 22.2571L23.9545 21.7234L24.392 21.388H23.8525L23.6775 20.8688L23.4791 21.385ZM23.4354 25.0659L22.887 24.8763L23.1641 25.4013L22.645 25.76L23.237 25.8913L23.1933 26.4891L23.6686 26.0809L24.1208 26.4979L24.077 25.8854L24.6983 25.8125L24.1936 25.4188L24.4795 24.8996L23.8875 25.0688L23.6686 24.5L23.4354 25.0659ZM28.7786 26.4921C29.1113 26.3259 29.1986 26.1655 29.3066 25.9584L29.3154 25.9409C29.3386 25.8941 29.3591 25.8475 29.3795 25.7979C29.4145 25.7134 29.4554 25.62 29.5283 25.5063V25.5004C27.7316 23.4588 26.4658 21.0671 26.0283 20.233C26.0254 20.2271 26.0166 20.23 26.0166 20.2359C25.9904 20.9591 26.005 22.4641 26.5125 23.4588C26.7983 24.0159 26.845 24.0713 27.6091 25.0105L27.7286 25.1591L27.8133 25.2613C27.8161 25.2671 27.8133 25.273 27.8075 25.27C27.7113 25.2234 27.5595 25.1241 27.5595 25.1241C27.335 24.9959 26.807 24.5816 26.3433 23.9109C26.3404 23.905 26.3316 23.908 26.3316 23.9138C26.3083 24.9025 26.8158 25.8329 27.1541 26.1975C27.4808 26.5504 27.9475 26.6029 28.1983 26.6029C28.4229 26.6029 28.6386 26.5591 28.7786 26.4921ZM32.0483 27.1163C32.4975 27.09 33.0516 26.915 33.25 26.6291C33.3111 26.5534 33.4104 26.4484 33.6408 26.3171C33.7808 26.2441 33.915 26.1975 34.0345 26.1566C34.3875 26.0371 34.6208 25.9584 34.6179 25.3138C32.1329 23.8263 31.1236 22.33 31.1908 22.3213C31.1908 22.3213 31.6225 22.7588 32.2495 23.2663C32.7979 23.7096 33.9558 24.678 34.9679 25.13C35.0379 25.165 34.9708 26.11 34.3991 26.3666C34.3495 26.39 34.2766 26.4191 34.1891 26.4513C33.8916 26.5621 33.4425 26.7284 33.4891 27.0316C33.5036 27.058 33.6 27.0959 33.8013 27.0959C34.2475 27.0959 34.8279 26.918 35.0495 26.5241C35.137 26.3666 35.2013 26.2237 35.2595 26.0984C35.4404 25.7046 35.5513 25.4625 36.0645 25.3516C35.8486 25.1213 34.7141 23.9109 34.1891 23.348C33.635 22.753 33.2325 22.0821 33.1886 22.0091C33.1886 22.0063 33.0983 21.8634 32.9641 21.773C32.4011 21.3355 31.7916 21.2159 31.252 21.1109C30.66 21.0059 30.3654 20.895 30.1641 20.7025C29.8258 20.3875 29.8813 19.883 29.9045 19.6934C29.9045 19.6816 29.9075 19.67 29.9075 19.6584C29.8754 19.6934 29.8229 19.778 29.7995 19.813C29.712 19.9559 29.5779 20.1688 29.33 20.1688C29.3036 20.1688 29.2745 20.1659 29.2454 20.16C29.05 20.125 28.9129 20.0288 28.805 19.6496C28.7758 19.5505 28.7204 19.5184 28.697 19.5155C28.665 19.5155 28.6504 19.5271 28.6416 19.5359C28.5541 19.6291 28.5745 19.9705 28.6066 20.1221C28.6154 20.1891 28.595 20.2271 28.5775 20.2475C28.5541 20.2766 28.5163 20.2913 28.4725 20.2913C28.42 20.2913 28.3733 20.268 28.3529 20.233C28.2874 20.1376 28.228 20.0383 28.175 19.9355C28.1341 20.09 28.0554 20.2563 27.8745 20.2591C27.7433 20.2591 27.6266 20.1541 27.5013 20.0434C27.3613 19.918 27.2445 19.8216 27.1454 19.8216C27.1133 19.8216 27.0841 19.8305 27.052 19.8509C26.9995 19.8859 26.9441 19.9034 26.8886 19.9034C26.8186 19.9034 26.7575 19.8741 26.7108 19.8188C26.5416 19.6 26.7575 19.3171 26.842 19.2238C26.7866 19.1859 26.6641 19.148 26.5125 19.148C26.3986 19.148 26.1245 19.1713 26.005 19.3755C25.967 19.5009 26.04 19.6438 26.0983 19.7605C26.317 20.2416 28.0436 23.3275 29.817 25.2846C29.9308 25.4159 29.9425 25.5325 29.8579 25.6463C29.6186 25.9816 29.537 26.2471 29.6158 26.4337C29.715 26.67 30.0329 26.7225 30.0358 26.7225C30.1146 26.7381 30.1947 26.746 30.275 26.7459C30.625 26.7459 30.7386 26.5563 30.87 26.3375C31.0391 26.0341 31.2054 25.97 31.3161 25.97C31.3775 25.97 31.4213 25.9875 31.4386 25.9963L31.4445 25.9991C31.4854 26.0196 31.5379 26.0809 31.5554 26.1596C31.57 26.2209 31.5729 26.32 31.4941 26.4309L31.4911 26.4337C31.4183 26.5155 31.287 26.5766 31.1733 26.6321C31.0595 26.6875 30.9311 26.7488 30.937 26.7954C30.9545 26.8596 31.395 27.1104 31.987 27.1104C32.0104 27.1163 32.0279 27.1163 32.0483 27.1163ZM28.9916 21.4725C29.3036 21.9275 30.1379 23.1409 31.567 24.7684C31.567 24.7684 31.6663 24.9025 31.5233 25.1738L31.4591 25.27L31.4125 25.168C31.4125 25.168 31.3688 25.0688 31.2754 24.9638C29.5283 22.96 28.7786 21.2391 28.7875 21.2334C28.7875 21.2363 28.8254 21.2334 28.9916 21.4725ZM33.2879 21.6388C33.3608 21.5863 33.3986 21.4463 33.3986 21.2159C33.3986 21.0905 33.3986 20.9709 33.4745 20.8716C33.5086 20.8252 33.5523 20.7866 33.6026 20.7584C33.6529 20.7303 33.7087 20.7132 33.7661 20.7084C33.6379 20.6325 33.4861 20.548 33.3141 20.4546C32.8854 20.2213 32.2525 19.8771 31.4854 19.3113C31.6691 19.5591 31.9054 19.8071 32.1736 20.0405L32.27 20.125C32.2641 20.1338 32.1591 20.0988 32.1591 20.0988C32.1504 20.0959 31.9463 20.0259 31.8179 19.9441C31.815 19.9413 31.8091 19.9384 31.8033 19.9355C31.43 19.7225 31.0741 19.3784 30.797 18.9584C30.7941 18.9525 30.4295 18.3575 29.9861 17.3513C29.855 17.0509 29.1433 15.8434 28.8691 15.5866C28.4404 15.4991 27.892 15.4934 27.7345 15.4934C27.65 15.4934 27.577 15.4963 27.5304 15.4991C27.2036 15.5196 26.9586 15.575 26.8304 15.6246C26.2704 17.1763 26.0895 18.2671 26.04 18.9116L26.0341 18.9641C26.181 18.8987 26.34 18.8649 26.5008 18.865C26.8011 18.865 27.0695 18.9816 27.125 19.1391C27.1686 19.2821 27.1045 19.358 27.0404 19.4309C27.0025 19.4775 26.9616 19.5213 26.9441 19.5884C27.0064 19.5563 27.0753 19.5393 27.1454 19.5388C27.3641 19.5388 27.5508 19.705 27.6879 19.8275L27.6908 19.8305C27.7986 19.9296 27.8454 19.9588 27.8658 19.9705C27.8863 19.9384 27.9386 19.813 27.9679 19.3784V19.3725C27.7404 18.0309 28.4404 17.083 28.4404 17.083C28.4404 17.083 27.9854 18.623 28.3236 19.565C28.382 19.3316 28.5191 19.2559 28.6329 19.2384C28.6504 19.2355 28.6679 19.2325 28.6854 19.2325C28.8311 19.2325 29.0091 19.3375 29.0763 19.5709C29.1579 19.8566 29.2133 19.8655 29.295 19.883C29.3055 19.8853 29.3162 19.8862 29.327 19.8859C29.4086 19.8859 29.4611 19.8188 29.5604 19.6613C29.642 19.53 29.7441 19.3638 29.9279 19.3638C29.9505 19.364 29.973 19.3669 29.995 19.3725C30.0854 19.393 30.2079 19.4863 30.1845 19.6613C30.065 20.5888 30.4791 20.6705 31.3045 20.8309C31.7595 20.9213 32.3225 21.0291 32.862 21.3588C32.8008 21.2334 32.6986 21.1196 32.6258 21.0409C32.6002 21.0139 32.5759 20.9856 32.5529 20.9563L32.515 20.9038L32.5791 20.9096C32.585 20.9096 33.1275 20.9621 33.2529 21.6475H33.2558C33.2616 21.6563 33.2733 21.6505 33.2879 21.6388ZM33.8713 20.965C33.842 20.965 33.8129 20.9679 33.7808 20.9766C33.6729 21.0029 33.6641 21.0875 33.6611 21.2421C33.6583 21.3559 33.6554 21.493 33.5825 21.6213C33.9063 21.5513 34.1104 21.385 34.1075 21.1866C34.1045 21.1138 34.0725 21.0496 34.02 21.0088C33.982 20.9796 33.9295 20.965 33.8713 20.965ZM30.0241 16.7591C30.03 16.768 30.0416 16.768 30.0504 16.7591C30.2838 16.4791 30.1233 15.8841 30.0736 15.6596C30.4033 15.858 30.8554 15.998 31.1033 16.0213C31.1325 15.7384 31.0595 15.4496 30.937 15.1113C31.3075 15.3796 31.8586 15.54 32.0454 15.5313C32.0861 15.2338 31.8675 14.6738 31.8529 14.595C31.9929 14.6505 32.3225 14.8371 32.5995 14.8691C32.6725 14.6884 32.7191 14.3938 32.6929 14.108C32.6929 14.108 32.1795 14.2071 31.9229 14.2071C31.8529 14.2071 31.7886 14.2041 31.7333 14.1984C31.5904 14.1866 31.3279 14.1371 31.0683 14.0816C30.9195 14.0496 30.7679 14.0234 30.6366 14C30.5841 13.9912 30.5316 13.9825 30.485 13.9709C30.3334 13.9433 30.1805 13.9228 30.027 13.9096C29.957 13.9038 29.8229 13.898 29.7616 13.898C29.7586 13.898 29.7586 13.898 29.7586 13.9008C29.6683 14.4638 29.3386 14.9625 29.1608 15.2338C29.1345 15.2746 29.1111 15.3096 29.0936 15.3359V15.3388C29.4408 15.8259 29.9366 16.6221 30.0241 16.7591ZM23.8641 13.2388C23.7358 13.125 23.6891 12.9909 23.73 12.8596C23.4936 12.8305 23.0854 12.7546 22.7586 12.5738C22.6158 12.6059 22.155 12.6991 21.5775 12.6991C21.4491 12.6991 21.315 12.6963 21.172 12.6875C21.1838 12.6963 21.1954 12.7021 21.207 12.7109C21.3295 12.7896 21.452 12.8712 21.5745 12.8946C21.6241 12.8859 21.7408 12.8771 22.0354 12.8568C22.0791 12.8537 22.1258 12.8509 22.1695 12.8509C22.4786 12.8509 22.817 12.9587 23.202 13.1834C23.2341 13.195 23.5491 13.3205 23.7154 13.405C23.7416 13.37 23.7941 13.3116 23.8641 13.2387V13.2388ZM37.3333 12.8041C37.5958 12.7341 37.8933 12.4659 38.0595 12.1625C37.727 12.358 37.4529 12.4366 37.135 12.4366C37.0736 12.4366 37.0066 12.4338 36.9336 12.428C36.887 12.5037 36.8345 12.6466 36.5779 12.7721C36.8375 12.8771 37.202 12.8391 37.3333 12.8041ZM33.1245 12.8684C33.2586 12.8537 33.3783 12.8391 33.4833 12.8275C34.1658 12.7487 34.2708 12.7371 34.3758 12.67C34.3904 12.6612 34.4138 12.6378 34.44 12.6087C34.5245 12.5241 34.65 12.3987 34.7929 12.3813C34.8133 12.3784 34.8336 12.3755 34.8513 12.3725C34.8686 12.3697 34.8891 12.3666 34.9066 12.3637C34.9679 12.355 35.0204 12.3434 35.067 12.3084C35.1866 12.2237 35.2975 12.145 35.4083 12.1391H35.4141C35.5016 12.1391 35.5395 12.2238 35.5483 12.253C35.5716 12.2966 35.5686 12.4016 35.5629 12.4775C35.5978 12.47 35.632 12.4592 35.665 12.4453C35.6736 12.4425 35.6854 12.4366 35.7 12.4309C35.7436 12.4134 35.805 12.3871 35.8604 12.3696C35.8983 12.358 35.9275 12.3521 35.9566 12.3521C36.0208 12.3521 36.0586 12.3843 36.0966 12.425C36.1579 12.4891 36.1929 12.5796 36.2016 12.6466C36.3883 12.5941 36.5575 12.4688 36.6304 12.3784C36.3504 12.2996 35.9886 12.1275 35.77 11.8562C35.6766 11.7396 35.6416 11.6259 35.6329 11.5412C34.6354 11.9205 32.932 12.2996 32.3779 12.4162C32.3954 12.4805 32.3954 12.5446 32.3779 12.6059C32.3624 12.661 32.3344 12.7119 32.2963 12.7546C32.3575 12.8071 32.4916 12.9384 32.4916 12.9384C32.4916 12.9384 33.0429 12.8771 33.1245 12.8684ZM24.2404 12.568C24.2153 12.52 24.2004 12.4674 24.1966 12.4134C23.5433 12.0196 22.7966 11.9 22.3736 11.8621C22.4961 12.0371 22.645 12.1743 22.8316 12.2909C23.2604 12.5562 23.94 12.5971 24.0333 12.603C24.0711 12.5941 24.1529 12.5796 24.2404 12.568ZM22.435 12.3491C22.2745 12.2121 22.1491 12.0546 22.0383 11.8591C21.8311 11.8825 21.627 11.8971 21.4258 11.8971C20.7929 11.8971 20.1745 11.7716 19.5416 11.515C19.8566 11.8359 20.405 12.2675 20.8716 12.3666C21.0961 12.4016 21.3325 12.4191 21.5745 12.4191C21.9245 12.4191 22.2279 12.3841 22.435 12.3491ZM35.7175 11.2059C35.7261 11.1912 35.7758 11.1271 35.8575 11.0659C35.9013 11.0309 35.9479 11.0016 35.9975 10.9812L36.0411 10.9638C36.2191 10.885 36.4058 10.8062 36.5136 10.7246L36.5458 10.7013C36.6275 10.643 36.7033 10.5846 36.7616 10.4737C36.4613 10.4591 36.2016 10.3834 36.0295 10.3163C34.2066 10.713 32.4683 11.4013 31.9141 11.6316C32.0366 11.7455 32.0629 11.8971 31.9958 12.0925C32.0775 12.0984 32.1504 12.1216 32.2145 12.1653C32.5091 12.1013 34.6908 11.6375 35.7175 11.2059ZM38.0479 11.83C38.2666 11.6696 38.5583 11.4537 38.8063 11.1272C38.1763 11.3896 37.6833 11.445 37.0154 11.4509H36.9686C36.4904 11.4509 36.1491 11.375 35.9829 11.3284C35.9654 11.3459 35.9536 11.3605 35.9479 11.3662C35.9391 11.3809 35.8663 11.5091 36.0004 11.6725C36.225 11.9497 36.6566 12.11 36.8929 12.1363C36.9713 12.1459 37.0501 12.1507 37.1291 12.1509C37.3275 12.1537 37.6395 12.1216 38.0479 11.83ZM21.9041 11.5909C21.837 11.4362 21.7845 11.2787 21.732 11.1241L21.7233 11.1038C21.595 10.7275 21.2683 10.6225 21.2333 10.6138C19.6786 10.2871 18.5733 9.77663 18.0191 9.38589C18.2145 9.83795 18.41 10.2434 18.725 10.5875C19.1041 11.0047 19.6145 11.2875 20.3263 11.4771H20.332C20.5508 11.5325 20.7666 11.5705 20.9736 11.588C21.1341 11.6025 21.2945 11.6084 21.4491 11.6084C21.601 11.6134 21.753 11.6076 21.9041 11.5909ZM31.5145 11.48H31.5379C31.7683 11.3778 33.565 10.6078 35.595 10.1237C35.172 9.94869 34.7754 9.86707 34.3554 9.86707C34.0375 9.86707 33.702 9.91383 33.3345 10.013C32.1591 10.325 31.4211 10.7916 31.0625 11.0687C31.1236 11.0834 31.1761 11.1096 31.2258 11.1475C31.3483 11.2409 31.4125 11.3603 31.4125 11.4888C31.4475 11.483 31.4825 11.48 31.5145 11.48ZM37.0445 11.1622C37.4529 11.1622 38.0625 11.1155 38.6283 10.9025C39.165 10.6925 39.4479 10.1266 39.55 9.86707C38.7654 10.2871 38.0391 10.4066 37.065 10.4709C36.9804 10.7334 36.8286 10.8441 36.7091 10.9316L36.68 10.955C36.5983 11.0163 36.4875 11.0746 36.3825 11.1241C36.5195 11.1388 36.75 11.1621 37.0445 11.1621V11.1622ZM24.6195 13.7609C24.9695 13.4516 25.127 13.3641 25.5763 13.1716C25.8533 12.81 26.2354 12.5941 26.635 12.568C26.1713 12.2005 25.865 11.8241 25.862 11.2437C25.8591 10.6663 25.5236 10.0741 25.2175 9.85545C24.7275 9.48207 24.0741 9.45001 23.167 9.40913C22.5545 9.38001 21.8604 9.34795 21.0408 9.20501C21.0291 9.20221 19.6204 8.91913 19.2266 8.82869C19.215 8.82589 18.1825 8.61589 17.6254 8.44369C17.7011 8.69163 17.917 8.94545 18.267 9.20207C18.3108 9.23133 19.3461 9.92839 21.2361 10.328L21.2566 10.3337C21.2566 10.3337 21.3908 10.363 21.4375 10.3716C23.0445 10.6809 23.3829 10.7771 23.415 10.7859C23.9108 10.9259 24.3163 11.1066 24.4679 11.2555C24.5379 11.3196 24.6195 11.4187 24.6254 11.4246L24.6954 11.5091L24.3861 11.3925C24.0216 11.2553 23.7329 11.1562 23.342 11.06C23.3304 11.0572 23.0591 10.9784 21.8545 10.7422C21.9143 10.8273 21.9615 10.9205 21.9945 11.0191L22.0033 11.0396C22.0645 11.2175 22.1258 11.4013 22.2075 11.5734C22.5079 11.585 23.4558 11.6609 24.29 12.1421C24.4008 12.005 24.5758 11.9759 24.707 11.9759H24.7275C24.7203 11.8653 24.757 11.7563 24.8295 11.6725C24.9404 11.5441 25.1066 11.5297 25.2204 11.5297C25.2466 11.5297 25.2729 11.5297 25.2933 11.5325C25.3254 11.4771 25.407 11.4187 25.4566 11.3866C25.5295 11.34 25.6783 11.305 25.687 11.305L25.7686 11.2875L25.6608 11.4216C25.5208 11.62 25.5558 11.7716 25.5558 11.7746L25.5675 11.8155L25.4245 11.798C25.3925 11.795 25.3604 11.7921 25.3225 11.7921C25.1883 11.7921 25.0775 11.8184 25.0425 11.8593C24.9636 11.9496 25.0279 12.075 25.0279 12.078L25.1358 12.2908L25.0833 12.285C25.0454 12.2822 25.0045 12.2762 24.9666 12.2734C24.882 12.2646 24.7945 12.253 24.7186 12.253C24.602 12.253 24.532 12.2762 24.5029 12.3258L24.5 12.3346C24.4708 12.3871 24.4329 12.46 24.6983 12.7138L24.742 12.7575L24.6808 12.7663C24.6779 12.7663 24.2958 12.8159 24.1091 12.883C24.0595 12.9005 24.0304 12.9266 24.0245 12.9558C24.0216 12.9734 24.0245 13.0316 24.1558 13.1075L24.2929 13.1891C24.2929 13.1891 23.9866 13.338 23.9808 13.5363L24.6195 13.7609ZM21.7291 9.68045C21.7261 9.68045 21.7291 9.67751 21.7291 9.67751C21.8808 9.67751 22.5895 9.80295 22.9979 9.84663C23.2079 9.87295 24.2783 10.0071 24.5933 10.1966C24.9054 10.3805 25.057 10.7071 25.1561 10.9696L25.2086 11.1125C25.2086 11.1125 25.165 11.1125 24.9929 10.9316C24.8763 10.7859 24.7041 10.5671 24.4475 10.4388C23.7066 10.083 22.4961 10.0946 21.7291 9.68045ZM36.8754 10.1937H36.9454C37.5316 10.1705 38.6954 10.0275 39.3313 9.64839C39.8591 9.36545 40.0166 8.96001 40.1508 8.59545C40.1432 8.59867 40.1354 8.60157 40.1275 8.60413C39.9875 8.66251 39.827 8.72957 39.5704 8.81707L39.445 8.85795C39.1125 8.97163 38.6108 9.12339 38.1063 9.26045C37.2604 9.49089 36.5079 9.84089 36.1025 10.048C36.2745 10.1091 36.5575 10.1937 36.8754 10.1937ZM28.735 11.2146C28.9391 11.0368 28.9333 10.8968 28.9129 10.8091C28.805 10.5409 28.6008 10.3746 28.3061 10.3191L26.95 10.1325C26.9444 10.1399 26.9396 10.1477 26.9354 10.1559C26.947 10.1616 26.9616 10.1705 26.9763 10.1762C27.1279 10.2521 27.4429 10.4096 27.5566 10.7421C27.5916 10.8413 27.6529 10.8471 28.0086 10.8675L28.1166 10.8734C28.2011 10.8791 28.2391 10.8821 28.3033 10.888C28.455 10.9055 28.5686 11.0308 28.592 11.0541C28.6125 11.0775 28.6766 11.1591 28.6913 11.2525L28.735 11.2147V11.2146ZM32.1386 13.0318C32.162 13.0259 32.1854 13.02 32.2058 13.0141C32.0511 12.8421 31.8616 12.7225 31.8616 12.7225L31.9666 12.67C32.0511 12.6262 32.1036 12.5766 32.1154 12.5272C32.1211 12.5037 32.1154 12.4834 32.1008 12.4512C32.0629 12.3755 31.987 12.3375 31.8791 12.3375C31.8354 12.3375 31.7945 12.3434 31.7683 12.3491L31.5233 12.3871L31.6195 12.2063C31.7858 11.8796 31.6954 11.8184 31.6545 11.7891C31.6003 11.7495 31.535 11.7281 31.4679 11.728C31.395 11.728 31.3336 11.7512 31.2811 11.7716C31.2679 11.7774 31.2543 11.7823 31.2404 11.7863L30.9895 11.8766C30.9895 11.8766 31.08 11.6813 31.0858 11.6696C31.1441 11.5441 31.1558 11.4568 31.0508 11.3721C31.007 11.34 30.9604 11.3225 30.9108 11.3225C30.8613 11.3225 30.8086 11.34 30.7561 11.375L30.52 11.5355L30.5316 11.4683C30.5725 11.2233 30.3304 10.8821 30.3304 10.8821C30.3304 10.8821 30.4675 10.8938 30.6541 10.9959C30.6658 11.0016 30.6745 11.0075 30.6833 11.0105C31.0186 10.6983 31.7916 10.1325 33.2616 9.74163C33.6554 9.63663 34.0141 9.58707 34.3554 9.58707C34.8366 9.58707 35.2886 9.68633 35.7786 9.89927C36.0558 9.75045 36.9745 9.27795 38.0361 8.98927C38.5904 8.83751 39.13 8.65663 39.337 8.58663L39.6929 8.45839C40.0313 8.32413 40.4395 8.09369 40.635 7.48413L36.3825 8.90751C35.7466 9.16133 34.6033 9.25471 33.5911 9.33913C33.1011 9.38001 32.6404 9.41795 32.2991 9.47045C30.4179 9.79707 30.2225 10.7041 30.1175 11.1941C30.1127 11.2237 30.1059 11.253 30.097 11.2816C30.0125 11.7338 29.8286 12.0896 29.5545 12.3405C29.6186 12.3375 29.6945 12.3375 29.7295 12.3375C29.9279 12.3434 30.0679 12.3959 30.2166 12.46C30.2691 12.4834 30.3245 12.5066 30.38 12.5328C30.4236 12.5534 30.4704 12.5738 30.517 12.5941C30.727 12.6875 31.01 12.7721 31.4533 12.8975L31.4883 12.9063C31.5991 12.9384 31.6866 12.9616 31.7625 12.988C31.8325 13.0112 31.9463 13.058 31.9754 13.0696C32.0308 13.058 32.0863 13.0463 32.1386 13.0318ZM28.8341 10.2434C28.9391 10.188 28.9479 10.0305 28.9333 9.97795C28.8895 9.82619 28.7758 9.71251 28.5979 9.63957C28.5016 9.60457 28.3761 9.59001 28.2275 9.59001C27.7666 9.59001 27.1775 9.76501 27.0461 9.93413L28.3529 10.083C28.42 10.0916 28.595 10.1296 28.7758 10.258C28.7991 10.255 28.8166 10.2491 28.8341 10.2434ZM21.0816 13.1775C21.0086 13.1047 20.895 13.0637 20.8045 13.055C20.6179 13.0434 20.4108 13.1191 20.2329 13.2855C20.6354 13.3087 20.6966 13.4866 20.9125 13.3175L21.0816 13.1775ZM21.1925 13.2884L21.0554 13.443C20.892 13.6412 21.0554 13.7025 21.07 14.0788C21.2304 13.9184 21.3061 13.723 21.3004 13.5509C21.2945 13.4634 21.2595 13.3555 21.1925 13.2884ZM20.682 13.7521L20.5683 13.9243C20.437 14.1459 20.6091 14.1809 20.6763 14.5513C20.8104 14.3675 20.86 14.1663 20.825 13.9941C20.8104 13.9096 20.7579 13.8075 20.682 13.7521ZM20.3145 14.35L20.227 14.5309C20.1279 14.7613 20.297 14.7759 20.4108 15.123C20.5186 14.9305 20.5391 14.7263 20.4836 14.5659C20.4575 14.4871 20.3961 14.3966 20.3145 14.35ZM20.5216 13.6472C20.4341 13.5975 20.3116 13.5887 20.2211 13.6062C20.0404 13.6441 19.8595 13.7784 19.737 13.9855C20.1308 13.898 20.2388 14.0496 20.3991 13.828L20.5216 13.6471V13.6472ZM20.125 14.2625C20.0258 14.2305 19.9033 14.245 19.8158 14.283C19.6408 14.3588 19.4861 14.528 19.4045 14.7613C19.7808 14.595 19.9208 14.7263 20.0375 14.4725L20.125 14.2625ZM19.9908 14.8225C19.9238 14.8721 19.877 14.9596 19.8595 15.0325C19.8275 15.1813 19.8654 15.3591 19.9791 15.5225C20.0461 15.1988 20.195 15.1696 20.0841 14.9741L19.9908 14.8225ZM22.8083 14.0846L22.7616 14.3005C22.712 14.5716 22.8986 14.5425 23.1058 14.8896C23.1729 14.6563 23.1436 14.4346 23.0475 14.2771C22.9979 14.1984 22.9075 14.1138 22.8083 14.0846ZM22.6595 14.0409C22.5691 14.0146 22.4554 14.0321 22.3766 14.0671C22.2191 14.14 22.082 14.3005 22.015 14.5163C22.3533 14.353 22.4845 14.4696 22.5866 14.2334L22.6595 14.0409ZM22.4845 14.7059C22.397 14.665 22.2833 14.665 22.2016 14.6913C22.0354 14.7409 21.8779 14.878 21.7758 15.0821C22.1345 14.9713 22.2483 15.1055 22.3825 14.8866L22.4845 14.7059ZM22.1258 15.3096C22.047 15.26 21.9361 15.2455 21.8545 15.26C21.6883 15.2863 21.5161 15.4 21.3936 15.5838C21.7554 15.5225 21.8458 15.6684 22.0033 15.473L22.1258 15.3096ZM22.645 14.7816L22.54 14.9771C22.4175 15.225 22.6041 15.2484 22.7091 15.6363C22.8375 15.4291 22.8725 15.2105 22.82 15.0296C22.7936 14.9421 22.7295 14.8371 22.645 14.7816ZM22.2716 15.403L22.1286 15.578C21.9566 15.7996 22.1375 15.8638 22.1666 16.2721C22.3358 16.0913 22.4145 15.8755 22.4 15.6859C22.3911 15.5925 22.3475 15.4759 22.2716 15.403ZM21.8545 15.8141L21.6736 15.7996C21.4491 15.7909 21.4929 15.9396 21.2361 16.1466C21.4316 16.173 21.6095 16.1234 21.7263 16.0271C21.7875 15.9805 21.8429 15.8959 21.8545 15.8141ZM28.9625 14.0991C29.0004 14.4696 29.0325 14.7875 28.8779 15.0734V15.0763C28.8489 15.1496 28.8168 15.2216 28.7816 15.2921C28.3441 15.2163 27.8629 15.2105 27.7258 15.2105C27.6411 15.2105 27.5683 15.2134 27.5158 15.2163C27.3086 15.228 27.1163 15.2571 26.9558 15.298C26.9763 15.2309 27.0111 15.1288 27.0754 15.0441L27.1104 14.9946L27.0491 14.9975C27.02 15.0005 26.9908 15.0005 26.9616 15.0005C26.7195 15.0005 26.5766 14.9421 26.4658 14.7991C26.39 14.6941 26.3695 14.563 26.4133 14.4491C26.4483 14.35 26.527 14.2509 26.6 14.1546C26.6641 14.07 26.8041 13.8484 26.8508 13.7521C26.88 13.6938 26.9091 13.6325 26.9354 13.5655C26.9966 13.6471 27.087 13.7025 27.2125 13.7316C27.2782 13.7484 27.3458 13.7573 27.4136 13.758C27.5363 13.758 27.6645 13.7287 27.825 13.6616C27.612 13.8513 27.0141 13.9709 27.0141 13.9709C26.9995 13.9884 27.0083 14.0116 27.0286 14.0205C27.0345 14.0234 27.0404 14.0234 27.0433 14.0263C27.1205 14.0462 27.1999 14.056 27.2795 14.0555C27.5304 14.0555 27.7608 13.9562 28.0116 13.8366C28.417 13.6238 28.9129 12.9471 28.9333 12.918C28.9625 12.8771 29.0033 12.8421 29.0441 12.8187C28.8661 13.1337 28.9041 13.478 28.942 13.8396C28.945 13.9271 28.9536 14.0116 28.9625 14.0991ZM28.6036 14.4959C28.5045 14.6825 28.3995 14.8459 28.035 14.8605C27.5858 14.8809 27.472 14.56 27.472 14.56C27.4983 14.7 27.6061 15.1141 28.0379 15.0966C28.5891 15.0734 28.6036 14.4959 28.6036 14.4959ZM29.2133 14.6009L29.2395 14.5659C29.2716 14.525 29.2979 14.4755 29.3008 14.4666C29.4641 14.1663 29.4904 13.93 29.502 13.828L29.505 13.8134C29.505 13.8134 29.5283 13.6266 29.6013 13.6266C30.0708 13.6266 30.6366 13.72 31.08 13.8075C31.1966 13.8309 31.3191 13.8541 31.4358 13.8775C31.5875 13.9153 31.7536 13.933 31.9286 13.933C32.1795 13.933 32.4508 13.895 32.7308 13.8191L33.88 13.4809C33.9266 13.4691 33.9733 13.4605 34.02 13.4487C34.1863 13.4109 34.3466 13.37 34.5333 13.37C34.5858 13.3672 34.6791 13.3816 34.7286 13.3816C35.1311 13.3816 35.6008 13.1805 35.7379 13.0755C35.8808 12.9646 35.907 12.8683 35.9275 12.7546C35.9363 12.7021 35.9333 12.67 35.9186 12.6525C35.9141 12.6478 35.9087 12.6441 35.9026 12.6416C35.8966 12.6391 35.8902 12.6379 35.8836 12.638C35.8486 12.638 35.7904 12.6612 35.7145 12.6905C35.6095 12.7312 35.1138 12.8683 35.0088 12.8741C35.0291 12.8391 35.102 12.7691 35.172 12.7166C35.2654 12.6466 35.3529 12.5796 35.3645 12.4541C35.3645 12.4309 35.347 12.4221 35.3325 12.4221C35.3236 12.4221 35.3091 12.4309 35.3004 12.4338C35.2625 12.4541 35.2275 12.4805 35.1925 12.5066C35.1079 12.568 35.0204 12.6321 34.9036 12.6321H34.892C34.7666 12.6438 34.6936 12.7166 34.6179 12.7925C34.5363 12.8741 34.4516 12.9588 34.2941 12.9791L32.6463 13.195C32.5208 13.2096 32.3983 13.2359 32.2816 13.2622C32.1679 13.2884 32.0483 13.3146 31.9316 13.3291C31.7013 13.2388 31.4386 13.1659 31.185 13.0959C30.835 12.9966 30.5054 12.9062 30.2691 12.778C30.237 12.7605 29.9336 12.6 29.6333 12.6C29.5633 12.6 29.4961 12.6088 29.4379 12.6263H29.432C29.397 12.6496 29.0791 12.8771 29.12 13.5013C29.1375 13.755 29.155 13.9359 29.1725 14.0816C29.1813 14.1663 29.19 14.2363 29.1958 14.3063C29.1958 14.3209 29.2045 14.4521 29.2016 14.5541L29.2133 14.6009ZM26.8158 12.8012H26.772C26.4045 12.8012 26.0661 12.9966 25.7629 13.3788C25.3691 13.545 25.0658 13.7462 24.707 14.0205C24.6545 14.0146 24.2258 13.8541 23.8116 13.6996C23.5608 13.6063 23.3011 13.5071 23.1029 13.4371C22.8229 13.2416 22.4816 13.1221 22.2716 13.093C22.2272 13.0866 22.1823 13.0837 22.1375 13.0841C21.9158 13.0841 21.6416 13.1309 21.557 13.1716C21.5454 13.1746 21.525 13.1863 21.522 13.2096C21.522 13.2213 21.525 13.233 21.5336 13.2418C21.5454 13.2534 21.5629 13.2591 21.595 13.2591C21.627 13.2591 21.6708 13.2534 21.7233 13.2446C21.7933 13.2359 21.8808 13.2213 21.9683 13.2213C22.2191 13.2213 22.362 13.3205 22.4233 13.5334C22.3329 13.5509 22.3008 13.5771 22.2686 13.6062C22.2336 13.6384 22.2016 13.6675 22.085 13.685L22.0558 13.6909H22.0529C22.0325 13.6966 22.0179 13.7084 22.0179 13.723C22.015 13.7434 22.0325 13.7608 22.0383 13.7637C22.0645 13.7841 22.1054 13.7959 22.155 13.7959C22.2045 13.7959 22.26 13.7841 22.3036 13.7637C22.3504 13.7405 22.4058 13.7346 22.4641 13.7287C22.5614 13.7183 22.6556 13.6886 22.7413 13.6413C23.0445 13.7696 23.3361 13.9591 23.6133 14.21C23.8 14.3791 24.0129 14.5746 24.4241 14.7905C24.4504 14.8021 24.4883 14.8138 24.532 14.8138C24.602 14.8138 24.6808 14.7846 24.7711 14.7234C25.025 14.5746 26.3375 13.8162 26.4686 13.7491H26.4716L26.4745 13.7463C26.632 13.5946 26.7225 13.2766 26.7341 13.2387C26.74 13.2184 26.7458 13.1921 26.7545 13.1659C26.7866 13.0521 26.8304 12.8975 26.8361 12.8159L26.8391 12.8012H26.8158ZM29.5866 10.78C29.4875 10.8763 29.3941 10.9055 29.3241 10.9055C29.2507 10.9044 29.1782 10.8885 29.1111 10.8587C29.1083 10.8909 29.117 10.9316 29.1286 10.9609C29.1579 11.0366 29.2336 11.0805 29.3036 11.0805C29.4613 11.0805 29.5866 10.9375 29.5866 10.78ZM29.082 10.5934C29.2104 10.675 29.3211 10.6955 29.4145 10.6546C29.537 10.5991 29.5895 10.4563 29.5925 10.4388C29.61 10.325 29.5604 10.3075 29.4933 10.2871C29.435 10.2666 29.365 10.2434 29.3591 10.1413C29.3591 10.1034 29.3475 10.08 29.327 10.0684C29.292 10.045 29.2279 10.0625 29.1958 10.0771C29.1754 10.3016 29.0586 10.4066 28.9741 10.4563L29.082 10.5934ZM27.7958 9.44413C27.7958 9.44413 27.6413 9.37413 27.472 9.35957C27.265 9.34207 27.1279 9.38589 27.0491 9.42383C26.9208 9.48501 26.8595 9.64545 26.9266 9.74457C27.125 9.58413 27.4429 9.49089 27.7958 9.44413ZM29.0645 12.4775C28.9945 12.4541 28.9508 12.4425 28.8866 12.4162C28.4229 12.2325 28.6008 11.7805 28.5366 11.4216C28.5279 11.3488 28.5075 11.2759 28.4141 11.305C28.3704 11.3166 28.2041 11.4975 27.9416 11.4041C28.0436 11.3721 28.137 11.34 28.2013 11.2905C28.2886 11.2233 28.3179 11.1359 28.2741 11.0746C28.2479 11.0309 28.1866 11.0221 28.137 11.0368C28.0933 11.0512 28.0436 11.1212 28.0583 11.1912C28.0583 11.1912 27.9533 11.203 27.8425 11.098C27.7958 11.0541 27.717 11.0396 27.6266 11.0425C27.4983 11.0513 27.4166 11.0191 27.37 10.8762C27.3145 10.6371 27.0608 10.4446 26.8566 10.3366C26.8041 10.4709 26.7545 10.5613 26.7575 10.7216C26.772 10.8296 26.9645 10.8091 27.0345 10.8209C27.2329 10.8705 26.9061 11.0105 26.9091 11.1066C26.8886 11.0775 26.8741 11.0191 26.9033 10.993C26.9529 10.923 26.8479 10.9287 26.8216 10.8937C26.8158 11.0834 26.667 11.3487 26.6786 11.4159C26.6816 11.4334 26.8479 11.445 26.8479 11.445C26.8916 11.4859 26.8625 11.5646 26.8683 11.62C26.8683 11.6228 26.8741 11.6259 26.877 11.6259C26.8886 11.6316 26.947 11.6375 26.9645 11.6375C26.9791 11.6403 26.9936 11.6521 26.9936 11.6666C26.9936 11.6841 26.982 11.6959 26.9645 11.6959C26.9645 11.6959 26.9411 11.6959 26.915 11.69C26.9266 11.7396 26.9236 11.7922 26.9936 11.8213C27.0286 11.8709 26.9791 12.008 27.0695 12.0313C27.3204 12.0896 27.647 11.8066 27.9183 11.6171C27.8775 11.7775 27.6529 11.9496 27.5975 12.11C27.5975 12.11 27.5886 12.3666 27.5333 12.5328C27.4661 12.7341 27.2504 12.6963 27.09 12.7778C27.09 12.7896 27.087 12.8041 27.0841 12.8216C27.0811 12.845 27.0754 12.8713 27.0754 12.9005V12.915C27.0754 12.9209 27.0725 12.9296 27.0725 12.9413C27.0608 13.0463 27.0286 13.3291 27.2095 13.4255C27.2679 13.4546 27.335 13.4691 27.4136 13.4691C27.5945 13.4691 27.822 13.3905 28.067 13.2416C28.3295 13.0841 28.4666 12.9616 28.6154 12.8305C28.753 12.6981 28.9034 12.5799 29.0645 12.4775ZM32.9029 14.0555C33.1916 14.5191 33.635 14.5075 33.9411 14.42C33.5911 14.3034 33.4658 14.2421 33.2033 13.9709C33.2063 13.9709 33.04 14.0234 32.9029 14.0555ZM26.6436 15.2746C26.5445 15.2455 26.492 15.2221 26.4075 15.1638C26.1391 14.983 25.9786 14.595 26.1711 14.2596C26.1741 14.2509 26.1858 14.2305 26.2208 14.175C26.075 14.2655 24.8033 15.0121 24.8033 15.0121C24.8033 15.0121 24.8091 15.1055 24.9345 15.1521C25.1941 15.2338 25.5061 15.1609 25.6811 15.1259C25.5586 15.2571 25.407 15.5255 25.4886 15.8259C25.7454 15.7616 25.8679 15.718 26.0604 15.4263C26.0545 15.6975 26.037 16.1466 26.2763 16.3684C26.317 16.2488 26.46 15.8084 26.6436 15.2746ZM33.4775 13.898C33.6088 14.0291 33.807 14.2071 34.262 14.2859C34.5041 14.3238 34.9066 14.2713 35.07 14.2275C34.6179 14.1196 34.367 13.9184 34.1161 13.7084C34.0375 13.723 33.7313 13.8016 33.4775 13.898ZM34.472 13.6208C34.6558 13.7696 34.8863 13.9563 35.2713 14.0555C35.7291 14.1663 36.3416 13.895 36.3766 13.86C35.9741 13.8396 35.6708 13.6996 35.3588 13.5012C34.9795 13.6966 34.615 13.5624 34.472 13.6208ZM35.662 13.3525C35.8661 13.4634 36.0295 13.5275 36.2191 13.5771C36.7208 13.7288 37.0329 13.3643 37.1758 13.1543C37.1816 13.1455 37.1816 13.128 37.167 13.128C36.5166 13.125 36.4641 13.0666 36.2104 12.9587C36.1725 13.0434 36.0411 13.2505 35.662 13.3525Z" fill="white"/>
<path d="M27.787 29.7791C32.8708 29.7791 33.7458 33.8654 38.9608 33.8654C42.1195 33.8654 42.1808 32.5237 42.1808 32.5237L41.647 29.782C42.3383 28.9566 45.1674 29.0529 45.1674 29.0529L42.7145 25.8737C40.4336 26.0195 38.5611 26.6088 38.5611 27.5975V30.5434C35.487 30.5434 33.4336 26.4745 27.7899 26.4745C22.1461 26.4745 20.0899 30.5434 17.0186 30.5434V27.5975C17.0186 26.6116 15.1433 26.0225 12.8654 25.8737L10.4124 29.0529C10.4124 29.0529 13.2446 28.9537 13.9329 29.782L13.399 32.5237C13.399 32.5237 13.4604 33.8654 16.619 33.8654C21.8283 33.8654 22.7062 29.7791 27.787 29.7791Z" fill="#000F46"/>
<path d="M39.9524 28.834C41.1658 29.1695 41.2795 29.3853 41.3087 29.5078C41.332 29.6333 41.3029 29.7499 41.2154 29.8608C40.9062 30.2545 39.9729 30.5199 38.8324 30.5403V28.2712C39.0599 28.5045 39.4304 28.6912 39.9524 28.834ZM38.8354 27.5858C38.8354 28.1428 39.4158 28.3995 40.0283 28.5687C41.192 28.8895 41.4954 29.1287 41.5858 29.4612C42.1312 29.0412 43.0908 28.8633 44.5986 28.8049L42.554 26.1449C41.7958 26.2208 40.9586 26.3374 40.3695 26.5124C39.4536 26.7837 38.8354 27.1687 38.8354 27.5858ZM41.4165 30.059C40.9674 30.5958 39.7949 30.8028 38.8354 30.8203H38.5583C37.1699 30.8203 36.0208 30.0678 34.6908 29.1987C32.9904 28.0874 31.0683 26.8303 28.064 26.7574H27.5099C24.5029 26.8303 22.5837 28.0874 20.8833 29.1987C19.5533 30.0678 18.404 30.8203 17.0158 30.8203H16.7387C15.779 30.8028 14.6065 30.5958 14.1574 30.059L13.6761 32.5324C13.717 32.6958 14.0524 33.5912 16.6133 33.5912C19.1508 33.5912 20.5945 32.6112 22.1229 31.5758C23.5695 30.5928 25.0658 29.5808 27.5099 29.5078H28.064C30.5083 29.5808 32.0045 30.5928 33.4512 31.5758C34.9795 32.6112 36.4233 33.5912 38.9608 33.5912C41.5215 33.5912 41.8599 32.6928 41.8979 32.5324L41.4165 30.059ZM15.6215 28.834C14.4083 29.1695 14.2945 29.3853 14.2654 29.5078C14.242 29.6333 14.2712 29.7499 14.3587 29.8608C14.6679 30.2545 15.6012 30.5199 16.7415 30.5403V28.2712C16.514 28.5045 16.1465 28.6912 15.6215 28.834ZM15.2074 26.5095C14.6183 26.3345 13.7811 26.2178 13.0229 26.142L10.9783 28.802C12.4861 28.8603 13.4429 29.0412 13.9911 29.4583C14.0787 29.1287 14.382 28.8895 15.5487 28.5658C16.1583 28.3965 16.7415 28.1399 16.7415 27.5828C16.7387 27.1687 16.1204 26.7837 15.2074 26.5095Z" fill="white"/>
<path d="M41.0959 32.3575C41.0959 32.3575 41.1659 32.6695 41.1542 32.687C41.1542 32.687 41.1162 32.7016 41.1017 32.6929C41.0901 32.6666 41.0814 32.6609 41.0171 32.6725C41.0171 32.6725 40.0517 32.8884 40.0342 32.8766C40.0342 32.8766 40.0226 32.8388 40.0342 32.8213C40.1012 32.7979 40.1012 32.7834 40.0955 32.7513L39.8301 31.5584C39.8242 31.5263 39.8184 31.5145 39.7251 31.5116C39.7251 31.5116 39.7162 31.4738 39.728 31.4563L40.6642 31.2491C40.7255 31.2345 40.7314 31.2229 40.743 31.182C40.743 31.182 40.778 31.1675 40.7955 31.1791C40.7955 31.1791 40.8684 31.5 40.8567 31.5175C40.8567 31.5175 40.8187 31.5263 40.8014 31.5175C40.7896 31.497 40.7809 31.4884 40.7196 31.5029C40.7196 31.5029 40.1567 31.6284 40.1537 31.6138C40.1537 31.6166 40.2151 31.8995 40.2151 31.9434C40.2151 31.9463 40.2151 31.9491 40.2121 31.9491C40.2151 31.9491 40.5534 31.8734 40.5534 31.8734C40.6176 31.8588 40.6205 31.8529 40.6321 31.812C40.6321 31.812 40.673 31.7975 40.6876 31.8034C40.6876 31.8034 40.7664 32.1241 40.7546 32.1416C40.7546 32.1416 40.7137 32.1563 40.6992 32.1534C40.6905 32.1329 40.673 32.1184 40.6087 32.13C40.6087 32.13 40.3084 32.197 40.2792 32.2029C40.288 32.2438 40.3492 32.515 40.3464 32.5559C40.3464 32.5587 40.3434 32.5616 40.3434 32.5616C40.3462 32.5616 40.9559 32.4275 40.9559 32.4275C41.0201 32.4129 41.023 32.407 41.0346 32.3634C41.0346 32.3634 41.0726 32.3459 41.0901 32.3545L41.0959 32.3575ZM35.1662 31.5525C35.1662 31.5525 35.2012 31.57 35.2071 31.5904C35.2071 31.5904 35.0146 31.885 34.9942 31.8879C34.9942 31.8879 34.9621 31.8704 34.9564 31.8529C34.968 31.8266 34.968 31.8091 34.9126 31.7741C34.9126 31.7741 34.1162 31.252 34.1134 31.2316C34.1134 31.2316 34.1337 31.1966 34.1514 31.1909C34.2037 31.217 34.2184 31.2113 34.2359 31.182L34.9037 30.1641C34.9242 30.135 34.9271 30.1204 34.8746 30.0591C34.8746 30.0591 34.8921 30.0241 34.9126 30.0213C34.9126 30.0213 35.2917 30.2691 35.2946 30.2895C35.2946 30.2895 35.2801 30.3245 35.2596 30.3304C35.1926 30.2954 35.178 30.3013 35.1576 30.3304C35.1576 30.3304 34.5684 31.2288 34.5509 31.2288L35.0526 31.5584C35.1051 31.5904 35.1167 31.5904 35.1662 31.5525ZM25.4801 29.05C25.4801 29.05 25.4596 29.085 25.4451 29.0879C25.4276 29.0791 25.4159 29.0734 25.4042 29.0763C25.3255 29.1316 25.2992 29.3125 24.9812 29.4059C24.6021 29.5225 24.2492 29.3125 24.1237 28.8984C23.9692 28.3938 24.2376 28.0641 24.573 27.9591C24.8559 27.8804 24.9726 28 25.0076 27.962C25.0337 27.9329 25.0484 27.9095 25.0659 27.9125L25.098 27.9154L25.0892 27.9563C25.0892 27.9563 25.0105 28.3238 24.9959 28.3354L24.9637 28.3295C24.9637 28.3295 24.958 28.2859 24.923 28.2479C24.8705 28.1925 24.7509 28.175 24.6546 28.2041C24.5351 28.2391 24.2696 28.3413 24.4126 28.805C24.4884 29.0266 24.6401 29.222 24.9287 29.1463C25.0134 29.12 25.0921 29.0588 25.1271 28.9916C25.1271 28.9916 25.1621 28.9188 25.1212 28.8313C25.1212 28.8313 25.1387 28.802 25.1562 28.802L25.4801 29.05ZM17.0014 31.6575C16.8876 31.5379 16.7271 31.4709 16.5462 31.465C16.3626 31.462 16.2021 31.5204 16.0826 31.6341C15.9426 31.7654 15.8637 31.9666 15.858 32.197C15.8464 32.6463 16.1087 32.9525 16.5112 32.9641C16.6951 32.967 16.8555 32.9116 16.9751 32.795C17.1151 32.6638 17.1937 32.4625 17.1996 32.2291C17.2026 32.0016 17.1326 31.7945 17.0014 31.6575ZM16.8934 32.2234C16.8905 32.4013 16.8437 32.5384 16.7592 32.62C16.698 32.6813 16.6134 32.7104 16.5142 32.7075C16.278 32.7016 16.1526 32.5238 16.1584 32.2088C16.1612 32.0279 16.2109 31.8937 16.2955 31.812C16.3567 31.7538 16.4384 31.7245 16.5376 31.7275C16.6367 31.7304 16.7184 31.7625 16.7767 31.8238C16.8584 31.9084 16.8992 32.0454 16.8934 32.2234ZM38.9901 31.535L38.3892 31.532C38.3746 31.5466 38.3717 31.5845 38.3717 31.5845C38.4301 31.605 38.4387 31.6195 38.4359 31.6575L38.433 32.8766C38.433 32.9145 38.4271 32.9234 38.3776 32.932L38.3659 32.9845C38.3805 32.9991 38.9287 33.002 38.9287 33.002C39.168 33.002 39.3517 32.9409 39.4742 32.8184C39.5996 32.6959 39.6609 32.512 39.6609 32.27C39.6637 31.815 39.413 31.5379 38.9901 31.535ZM39.3605 32.2729C39.3576 32.6316 39.2437 32.7454 38.8821 32.7454H38.7246C38.7392 32.7425 38.7421 31.8763 38.7451 31.7975C38.7684 31.7975 38.888 31.8004 38.888 31.8004C39.2467 31.8004 39.3634 31.917 39.3634 32.27V32.2729H39.3605ZM29.4059 27.545C29.4059 27.545 29.5255 27.615 29.543 27.6209C29.5605 27.6266 29.5809 27.615 29.5984 27.6004L29.6421 27.6354C29.6421 27.6354 29.3942 27.9534 29.3737 27.9563C29.3737 27.9563 29.3387 27.9359 29.3301 27.9213C29.3301 27.9213 29.3359 27.8834 29.3387 27.8745C29.3534 27.8045 29.2192 27.7084 29.018 27.685C28.9421 27.6734 28.8837 27.685 28.843 27.717C28.8021 27.7463 28.7934 27.7813 28.7905 27.8163C28.7787 27.927 28.9217 27.9795 29.088 28.0379C29.3301 28.1254 29.6305 28.2304 29.5896 28.5775C29.5751 28.6884 29.5167 28.7875 29.4264 28.8604C29.333 28.9334 29.1637 29.015 28.8809 28.9741C28.8809 28.9741 28.6037 28.9245 28.3996 28.7875C28.3996 28.7875 28.3937 28.7816 28.3384 28.8195L28.3005 28.7904L28.3092 28.7788C28.3092 28.7788 28.5192 28.455 28.5396 28.4491L28.5776 28.4695C28.5776 28.4695 28.5746 28.4959 28.5746 28.5045C28.563 28.6095 28.8109 28.6941 28.9276 28.7088C29.0646 28.7263 29.1609 28.7116 29.2164 28.6679C29.2426 28.6445 29.2687 28.6038 29.2776 28.5484C29.2951 28.4288 29.1376 28.3734 28.9626 28.3091C28.7292 28.2245 28.4405 28.1225 28.4784 27.8163C28.5046 27.615 28.6767 27.3963 29.0734 27.4459C29.1894 27.4586 29.302 27.4922 29.4059 27.545ZM31.8034 28.2684C31.783 28.277 31.7684 28.312 31.7684 28.312C31.8151 28.3529 31.8121 28.3616 31.8092 28.3675L31.7305 28.4579L30.8846 29.3154C30.8846 29.3154 30.8612 29.3388 30.8351 29.3416C30.8205 29.3445 30.8001 29.3475 30.7826 29.3475L30.7621 29.3941L31.1384 29.5691L31.1589 29.5225C31.1516 29.5183 31.1455 29.5122 31.1412 29.505C31.1355 29.4963 31.1355 29.4875 31.1384 29.4759L31.1589 29.4438C31.1589 29.4438 31.3251 29.2659 31.3309 29.2541C31.3426 29.2629 31.7684 29.4584 31.7684 29.4613C31.7655 29.4816 31.7362 29.712 31.7362 29.712C31.7362 29.712 31.7305 29.7384 31.7276 29.747C31.7251 29.7514 31.7217 29.7553 31.7177 29.7583C31.7137 29.7613 31.7091 29.7634 31.7042 29.7645C31.6926 29.7645 31.6837 29.7645 31.678 29.7616L31.6576 29.8084L32.0339 29.9834L32.0542 29.9366C32.0425 29.9234 32.0327 29.9087 32.0251 29.8929C32.0105 29.8725 32.0162 29.8375 32.0162 29.8375L32.1214 28.6388L32.1359 28.5279C32.1389 28.5191 32.1476 28.5016 32.1884 28.5163C32.2059 28.5075 32.2234 28.4725 32.2234 28.4725C32.2234 28.452 31.8034 28.2684 31.8034 28.2684ZM31.8005 29.2338C31.8005 29.2338 31.5292 29.1084 31.4855 29.0879C31.6133 28.9464 31.7416 28.8054 31.8705 28.665C31.8705 28.665 31.8034 29.2191 31.8005 29.2338ZM36.2396 30.832C36.2192 30.8379 36.2046 30.8729 36.2046 30.8729C36.2484 30.9166 36.2455 30.9254 36.2426 30.9284L36.1609 31.0159C36.1609 31.0159 35.2859 31.8413 35.2859 31.8441C35.2859 31.8441 35.2626 31.8675 35.2362 31.8704C35.2189 31.8729 35.2013 31.8739 35.1837 31.8734L35.1605 31.917L35.5309 32.1037L35.5542 32.06C35.547 32.0557 35.541 32.0497 35.5367 32.0425C35.5309 32.0338 35.5309 32.025 35.5367 32.0134C35.5426 32.0045 35.5601 31.9841 35.5601 31.9841C35.5601 31.9841 35.7321 31.812 35.7409 31.8004C35.7526 31.8091 36.1696 32.0191 36.1726 32.022C36.1696 32.0425 36.1317 32.2729 36.1317 32.2729C36.1317 32.2729 36.1259 32.2991 36.1201 32.3079C36.1142 32.3166 36.1084 32.3225 36.0967 32.3225C36.0851 32.3225 36.0762 32.3225 36.0705 32.3195L36.0471 32.3634L36.4176 32.55L36.4409 32.5063C36.4292 32.4888 36.4205 32.4741 36.4117 32.4595C36.4001 32.4391 36.403 32.4041 36.403 32.4041L36.5487 31.2084L36.5692 31.0975C36.5721 31.0888 36.5809 31.0713 36.6217 31.0888C36.6392 31.0829 36.6567 31.045 36.6567 31.045C36.6509 31.0304 36.2396 30.832 36.2396 30.832ZM36.2017 31.7975C36.2017 31.7975 35.9362 31.6634 35.8926 31.64C35.9159 31.6138 36.2484 31.2754 36.2921 31.2288C36.2892 31.2316 36.2046 31.7829 36.2017 31.7975ZM28.2014 28.5541C28.2014 28.5541 28.213 28.875 28.1984 28.8895C28.1984 28.8895 28.1576 28.8984 28.143 28.8866C28.1371 28.8604 28.1284 28.8516 28.0642 28.8516C28.0642 28.8516 27.0755 28.8838 27.0609 28.8691C27.0609 28.8691 27.058 28.8284 27.0696 28.8138C27.1396 28.802 27.1426 28.7904 27.1426 28.7554L27.1046 27.5334C27.1046 27.5013 27.1017 27.4866 27.0084 27.4663C27.0084 27.4663 27.0084 27.4284 27.023 27.4138L27.9826 27.3845C28.0467 27.3816 28.0555 27.37 28.073 27.332C28.073 27.332 28.1109 27.3263 28.1255 27.3409C28.1255 27.3409 28.1371 27.6704 28.1226 27.685C28.1226 27.685 28.0846 27.6879 28.0701 27.6763C28.0642 27.6529 28.0555 27.6441 27.9914 27.647C27.9914 27.647 27.4167 27.6645 27.4137 27.65C27.4137 27.6529 27.4226 27.9416 27.4137 27.9854C27.4137 27.9884 27.4109 27.9913 27.4109 27.9913L27.7609 27.9795C27.8251 27.9766 27.8309 27.9738 27.8484 27.9329C27.8484 27.9329 27.8921 27.9241 27.9037 27.9329C27.9037 27.9329 27.9212 28.2625 27.9067 28.277C27.9067 28.277 27.863 28.2829 27.8514 28.277C27.8455 28.2538 27.8337 28.2363 27.7667 28.2391C27.7667 28.2391 27.4576 28.2479 27.4312 28.2479C27.4342 28.2888 27.443 28.5659 27.4342 28.6095C27.4342 28.6125 27.4312 28.6125 27.4312 28.6125L28.0584 28.592C28.1226 28.5891 28.1284 28.5834 28.1459 28.5454C28.1459 28.5454 28.1867 28.5338 28.2014 28.5484V28.5541ZM18.1037 31.3425C18.1037 31.3425 18.2351 31.3716 18.2555 31.3716C18.273 31.3716 18.2905 31.3541 18.2992 31.3338L18.3517 31.3513C18.3517 31.3513 18.2205 31.7216 18.203 31.7334C18.203 31.7334 18.1621 31.7245 18.1505 31.7129C18.1505 31.7129 18.1446 31.675 18.1446 31.6663C18.1359 31.5991 17.9814 31.5495 17.7889 31.5875C17.7159 31.602 17.6664 31.6313 17.6371 31.6691C17.608 31.707 17.6109 31.745 17.6196 31.777C17.643 31.885 17.7889 31.8879 17.9639 31.8909C18.2146 31.8966 18.5267 31.9025 18.5937 32.235C18.6136 32.3434 18.5906 32.4553 18.5296 32.547C18.4655 32.6434 18.3342 32.7716 18.0601 32.8184C18.0601 32.8184 17.7887 32.8563 17.5584 32.795C17.5584 32.795 17.5496 32.792 17.5117 32.8416L17.468 32.827L17.4709 32.8125C17.4709 32.8125 17.5642 32.4479 17.5817 32.4363L17.6226 32.445C17.6226 32.445 17.6284 32.4713 17.6312 32.48C17.6517 32.582 17.9084 32.582 18.0221 32.5588C18.1534 32.5325 18.238 32.4888 18.2787 32.4304C18.2964 32.4013 18.308 32.3545 18.2992 32.2991C18.2789 32.1825 18.1184 32.1795 17.9317 32.1738C17.6896 32.1679 17.3921 32.162 17.3309 31.8645C17.293 31.6691 17.3834 31.4154 17.7684 31.3395C17.888 31.3279 18.0017 31.325 18.1037 31.3425ZM21.2537 31.0537C21.2537 31.0537 21.4287 31.322 21.4259 31.3425C21.4259 31.3425 21.3967 31.3716 21.3792 31.3688C21.3587 31.3484 21.3471 31.3454 21.2946 31.3804C21.2946 31.3804 20.4662 31.92 20.4459 31.917C20.4459 31.917 20.4226 31.885 20.4255 31.8645C20.4809 31.8179 20.4751 31.8063 20.4576 31.777L19.7896 30.7534C19.7721 30.7241 19.7605 30.7154 19.673 30.7445C19.673 30.7445 19.6526 30.7125 19.6555 30.692L20.4576 30.17C20.5101 30.135 20.513 30.1204 20.5071 30.0795C20.5071 30.0795 20.5362 30.0534 20.5567 30.0591C20.5567 30.0591 20.7376 30.3334 20.7317 30.3537C20.7317 30.3537 20.6996 30.377 20.6821 30.3741C20.6646 30.3566 20.653 30.3538 20.5976 30.3888C20.5976 30.3888 20.1164 30.7038 20.1076 30.692C20.1076 30.695 20.2651 30.937 20.2796 30.9779V30.9838C20.2826 30.9838 20.5742 30.7941 20.5742 30.7941C20.6296 30.7591 20.6296 30.7534 20.6237 30.7095C20.6237 30.7095 20.6559 30.6804 20.6705 30.6804C20.6705 30.6804 20.8571 30.9516 20.8514 30.972C20.8514 30.972 20.8162 31.0013 20.8046 31.0013C20.7871 30.9838 20.7667 30.9779 20.7142 31.0129C20.7142 31.0129 20.4546 31.1791 20.4312 31.1966C20.4546 31.2316 20.6062 31.465 20.6209 31.5029V31.5088C20.6237 31.5088 21.1459 31.1675 21.1459 31.1675C21.2012 31.1325 21.2012 31.1238 21.1984 31.08C21.1984 31.08 21.2276 31.0509 21.248 31.0537H21.2537ZM22.4526 28.9509C22.4467 28.9713 22.4642 29.0034 22.4642 29.0034C22.5255 28.9916 22.5312 29.0004 22.5312 29.0034L22.5576 29.12L22.7267 30.3129C22.7267 30.3129 22.7326 30.3479 22.7209 30.3684C22.7121 30.3829 22.7034 30.3975 22.6917 30.415L22.7151 30.4588L23.0826 30.2634L23.0592 30.2195C23.0534 30.2225 23.0446 30.2225 23.0359 30.2225C23.0242 30.2225 23.0155 30.2166 23.0126 30.2079C23.0067 30.1991 23.0009 30.1729 23.0009 30.1729C23.0009 30.1729 22.9601 29.9338 22.9542 29.9191C22.9659 29.9163 23.383 29.6975 23.383 29.6945C23.3976 29.712 23.5637 29.8725 23.5637 29.8725C23.5637 29.8725 23.5814 29.8929 23.5871 29.9016C23.59 29.9059 23.5915 29.911 23.5915 29.9162C23.5915 29.9214 23.59 29.9265 23.5871 29.9309C23.5829 29.9381 23.5769 29.9441 23.5696 29.9484L23.593 29.992L23.9605 29.7966L23.9371 29.7529C23.9167 29.7529 23.8992 29.7529 23.8846 29.75C23.8614 29.747 23.8351 29.7238 23.8351 29.7238L22.9455 28.9129L22.8667 28.8341C22.8609 28.8254 22.8521 28.8079 22.8901 28.7845C22.8959 28.7641 22.8755 28.7291 22.8755 28.7291C22.8521 28.732 22.4526 28.9509 22.4526 28.9509ZM23.2196 29.5429C23.2196 29.5429 22.9571 29.68 22.9134 29.7063C22.9076 29.6713 22.8201 29.2045 22.8084 29.1434C22.8084 29.1434 23.208 29.5313 23.2196 29.5429ZM30.8496 29.225C30.8496 29.225 30.8146 29.2425 30.8001 29.2366C30.7912 29.2191 30.7855 29.2075 30.7709 29.2045C30.6746 29.2075 30.5521 29.3416 30.2371 29.2454C29.858 29.1345 29.6771 28.7641 29.7996 28.347C29.9484 27.8395 30.3567 27.7141 30.6921 27.8134C30.9721 27.9038 31.0042 28.067 31.0537 28.0554C31.0917 28.0466 31.118 28.035 31.1296 28.0466L31.1559 28.067L31.1267 28.0963C31.1267 28.0963 30.8584 28.3616 30.8409 28.3616L30.8176 28.3413C30.8176 28.3413 30.838 28.3034 30.8292 28.2509C30.8146 28.175 30.7242 28.0963 30.628 28.067C30.5084 28.032 30.2314 27.9679 30.0942 28.4375C30.0359 28.665 30.0562 28.91 30.3362 29.0091C30.4209 29.0325 30.5201 29.0266 30.5871 28.9888C30.5871 28.9888 30.6571 28.9479 30.6717 28.8516C30.6717 28.8516 30.7037 28.837 30.7155 28.8459L30.8496 29.225ZM15.3651 31.2841L14.7117 31.1588C14.6942 31.1704 14.6971 31.2084 14.6971 31.2084C14.7584 31.2434 14.7612 31.2579 14.7526 31.2929L14.5192 32.4916C14.5134 32.5266 14.5017 32.5413 14.4492 32.5384C14.4317 32.55 14.4287 32.5966 14.4287 32.5966C14.4317 32.5995 14.8664 32.6813 14.8664 32.6813L14.8751 32.6316C14.8255 32.6054 14.8167 32.5909 14.8167 32.5675C14.8167 32.5616 14.8167 32.5559 14.8196 32.55C14.8196 32.55 14.913 32.0775 14.913 32.0716C14.913 32.0863 15.1987 32.1416 15.1987 32.1416C15.5662 32.2145 15.7412 32.0163 15.7821 31.8091C15.8259 31.602 15.7355 31.3541 15.3651 31.2841ZM15.2017 31.8763C15.2017 31.8763 14.9655 31.8295 14.9626 31.8295C14.9771 31.7859 15.0209 31.5234 15.0296 31.4825C15.0559 31.4884 15.2687 31.5291 15.2687 31.5291C15.4467 31.567 15.5109 31.6254 15.4876 31.7538C15.4612 31.882 15.3855 31.9113 15.2017 31.8763ZM22.5867 30.447C22.5342 30.4559 22.5137 30.447 22.4292 30.3975L22.0121 30.1613C22.1784 29.9804 22.1551 29.7791 22.0587 29.6334C21.9421 29.4554 21.7087 29.3416 21.3909 29.5459L20.8337 29.9075C20.8309 29.9279 20.8601 29.9541 20.8601 29.9541C20.9271 29.9366 20.9387 29.9454 20.9592 29.9745L21.6242 30.9984C21.6446 31.0275 21.6476 31.0479 21.6037 31.08C21.6009 31.1004 21.6301 31.1354 21.6301 31.1354C21.6359 31.1354 22.0034 30.8934 22.0034 30.8934L21.9712 30.8409C21.9187 30.8554 21.9012 30.8525 21.8837 30.835C21.8809 30.8291 21.8751 30.8263 21.8721 30.8204C21.8721 30.8204 21.6214 30.4354 21.6184 30.4295C21.6184 30.4295 21.6971 30.38 21.7642 30.3363C21.8342 30.3829 22.2484 30.6191 22.2542 30.622C22.2659 30.6309 22.2367 30.66 22.228 30.6659C22.2251 30.6745 22.2601 30.7213 22.2601 30.7213C22.2687 30.7241 22.6187 30.4909 22.6187 30.4909C22.613 30.482 22.5867 30.447 22.5867 30.447ZM21.2887 29.925C21.3121 29.9104 21.493 29.7909 21.493 29.7909C21.6476 29.6945 21.7321 29.6916 21.8051 29.7995C21.8751 29.9104 21.843 29.9863 21.6855 30.0854C21.6855 30.0854 21.4842 30.2166 21.4812 30.2195C21.4609 30.1816 21.3092 29.96 21.2887 29.925ZM26.8596 28.8634C26.8071 28.8516 26.7926 28.8341 26.7312 28.7554L26.4367 28.3763C26.6584 28.2741 26.7137 28.0788 26.6846 27.9095C26.6467 27.7025 26.4746 27.5041 26.1042 27.5713L25.4509 27.6909C25.4392 27.7084 25.4567 27.7434 25.4567 27.7434C25.5267 27.755 25.5326 27.7666 25.5414 27.8016L25.7601 29.0034C25.7659 29.0384 25.763 29.0559 25.7105 29.0704C25.6987 29.0879 25.7105 29.1316 25.7105 29.1316C25.7162 29.1345 26.148 29.0529 26.148 29.0529L26.1362 28.9916C26.0809 28.9829 26.0664 28.9741 26.0576 28.9538C26.0546 28.9479 26.0546 28.942 26.0517 28.9363C26.0517 28.9363 25.9701 28.4841 25.9671 28.4784C25.9671 28.4784 26.0576 28.4638 26.1392 28.4491C26.1859 28.5191 26.4776 28.8984 26.4805 28.9013C26.4892 28.9129 26.4512 28.9275 26.4396 28.9304C26.4337 28.9363 26.4484 28.9916 26.4484 28.9916C26.4542 28.9975 26.8684 28.9188 26.8684 28.9188C26.8714 28.9041 26.8596 28.8634 26.8596 28.8634ZM25.8621 27.8804C25.8884 27.8745 26.1014 27.8366 26.1014 27.8366C26.2792 27.8075 26.3609 27.8366 26.3842 27.965C26.4076 28.0934 26.3462 28.1516 26.1626 28.1838C26.1626 28.1838 25.9262 28.2275 25.9234 28.2275C25.9234 28.1838 25.8709 27.9213 25.8621 27.8804ZM19.6846 32.1795C19.6992 32.2145 19.7109 32.2204 19.7721 32.2145L19.7955 32.2613L19.7809 32.267C19.7809 32.267 19.4426 32.4216 19.4105 32.4334C19.4105 32.4334 19.3871 32.3925 19.3901 32.3809C19.3987 32.375 19.4164 32.3545 19.4164 32.34C19.4157 32.3275 19.4116 32.3154 19.4046 32.305C19.4046 32.305 18.973 31.3716 18.9555 31.3191L18.658 31.4591C18.6114 31.4825 18.5996 31.4941 18.5996 31.535C18.5996 31.5409 18.5996 31.5495 18.6026 31.5584C18.6026 31.5584 18.5705 31.5845 18.5501 31.5759C18.5501 31.5759 18.4012 31.2579 18.4071 31.2375C18.4071 31.2375 18.4364 31.217 18.4537 31.22C18.4714 31.2434 18.483 31.2491 18.5414 31.22L19.3871 30.835C19.4426 30.8087 19.4542 30.8059 19.4542 30.7591C19.4542 30.7591 19.4776 30.7416 19.498 30.7359C19.498 30.7359 19.6584 31.0625 19.6526 31.08C19.6526 31.08 19.6205 31.1034 19.603 31.0975C19.5796 31.0625 19.5651 31.0391 19.5096 31.0654C19.5096 31.0654 19.2442 31.1909 19.2326 31.1909C19.2414 31.1995 19.6846 32.1795 19.6846 32.1795ZM37.2021 32.8154C36.8376 32.7134 36.7034 32.48 36.7967 32.127L37.0096 31.3513C37.0184 31.3163 37.0009 31.287 36.9542 31.2666C36.9542 31.2463 36.9659 31.2113 36.9659 31.2113C36.9659 31.2113 37.2634 31.29 37.3946 31.3309C37.3946 31.3309 37.3859 31.3716 37.3714 31.3834C37.3246 31.3775 37.313 31.395 37.3042 31.43L37.0912 32.2116C37.068 32.2991 37.0737 32.3779 37.1087 32.4391C37.1409 32.4975 37.1964 32.5384 37.2751 32.5616C37.3537 32.582 37.4237 32.5734 37.4821 32.5441C37.5434 32.5091 37.5901 32.445 37.6162 32.3575L37.8409 31.5788C37.8496 31.5438 37.8496 31.5234 37.8087 31.5029C37.8001 31.4854 37.8146 31.4445 37.8146 31.4445C37.9459 31.4795 38.2434 31.5641 38.2434 31.5641C38.2434 31.5641 38.2376 31.602 38.2259 31.6166C38.1762 31.6109 38.1442 31.6284 38.1355 31.6604L37.9109 32.4334C37.803 32.7891 37.5637 32.9175 37.2021 32.8154ZM32.7542 30.4295C32.7484 30.4238 32.7396 30.4209 32.7337 30.415C32.7337 30.415 32.9117 29.4641 32.9584 29.3038C32.9614 29.295 32.9612 29.2863 32.9642 29.2775C32.903 29.3766 32.4421 30.1029 32.4421 30.1029C32.4363 30.1093 32.4332 30.1177 32.4334 30.1263C32.4334 30.1379 32.4421 30.1554 32.4684 30.1845L32.4421 30.2284C32.4421 30.2284 32.1242 30.027 32.1037 30.0125C32.1037 30.0125 32.1242 29.9745 32.1359 29.9716C32.1621 29.9863 32.1912 29.9716 32.2059 29.9513L32.8767 28.8925C32.8884 28.872 32.8912 28.8575 32.8592 28.8166C32.8592 28.8166 32.8709 28.7788 32.8942 28.7729C32.8942 28.7729 33.323 29.0413 33.323 29.047C33.323 29.047 33.3026 29.0791 33.288 29.085C33.2587 29.0791 33.2442 29.0995 33.2384 29.1054C33.2237 29.1288 33.0721 29.9309 33.0692 29.9366C33.0751 29.9338 33.7342 29.4525 33.7517 29.432C33.7576 29.4263 33.7662 29.4029 33.7487 29.3795C33.7487 29.362 33.7692 29.33 33.7692 29.33C33.7751 29.327 34.198 29.6013 34.198 29.6013C34.2037 29.6216 34.1746 29.6509 34.1746 29.6509C34.1251 29.6391 34.1105 29.6479 34.0987 29.6684L33.428 30.727C33.4134 30.7504 33.4164 30.7825 33.4396 30.8C33.4426 30.8116 33.4162 30.8466 33.4162 30.8466C33.393 30.835 33.0751 30.6309 33.0751 30.6309L33.1042 30.587C33.1421 30.5987 33.1626 30.5988 33.1714 30.5929C33.1801 30.59 33.183 30.5841 33.1887 30.5754C33.1887 30.5754 33.6496 29.8491 33.7137 29.75C33.708 29.7559 33.6992 29.7616 33.6905 29.7675C33.568 29.8784 32.7805 30.4441 32.7805 30.4441C32.7687 30.4384 32.7601 30.4325 32.7542 30.4295Z" fill="#000F46"/>
<path d="M6.90081 42.105H49.3238V42.347H6.90081V42.105ZM12.2033 36.68H12.0866L11.6841 36.6684C11.6608 36.6684 11.5879 36.6684 11.5879 36.7325C11.5879 36.7645 11.6141 36.7879 11.6491 36.7879L11.7804 36.7995C11.8882 36.8229 11.9204 36.8666 11.9291 37.0009L11.9379 37.8641V37.9488L10.2433 37.94L10.2491 37.8613L10.2579 36.9979C10.2666 36.8609 10.2957 36.8113 10.3833 36.7966L10.4766 36.785C10.5116 36.785 10.5408 36.7616 10.5408 36.7295C10.5408 36.6888 10.5086 36.6654 10.4445 36.6654L10.1179 36.6741H9.99831L9.59861 36.6625C9.53449 36.6625 9.50243 36.6829 9.50243 36.7266C9.50243 36.7588 9.52875 36.782 9.56375 36.782L9.69199 36.7938C9.80287 36.817 9.83493 36.8609 9.84081 36.995L9.84949 37.8613V38.567C9.84949 38.9434 9.84949 39.267 9.82905 39.4334C9.81155 39.5529 9.79405 39.617 9.73581 39.6288L9.62199 39.6434C9.57831 39.6434 9.55787 39.6695 9.55787 39.6988C9.55787 39.76 9.62787 39.76 9.65405 39.76L9.98081 39.7513H10.0945L10.5408 39.7629C10.6254 39.7629 10.6341 39.7191 10.6341 39.7016C10.6341 39.6754 10.6138 39.6463 10.5729 39.6463L10.3949 39.6316C10.3016 39.617 10.2783 39.5559 10.2636 39.4363C10.2433 39.27 10.2433 38.9463 10.2433 38.57V38.15L11.9408 38.1559L11.932 38.57C11.932 38.9463 11.932 39.27 11.9116 39.4363C11.897 39.5529 11.8766 39.62 11.8183 39.6316L11.7045 39.6463C11.6608 39.6463 11.6404 39.6754 11.6404 39.7016C11.6404 39.7629 11.7104 39.7629 11.7366 39.7629L12.0663 39.7541H12.177L12.6263 39.7659C12.7136 39.7659 12.7224 39.722 12.7224 39.7045C12.7224 39.6784 12.702 39.6491 12.6583 39.6491L12.4804 39.6345C12.3841 39.62 12.3608 39.5588 12.3491 39.4391C12.3288 39.2729 12.3288 38.9491 12.3288 38.5729V37.867L12.3374 37.0038C12.3463 36.8666 12.3752 36.817 12.4599 36.8025L12.5533 36.7909C12.5911 36.7909 12.6174 36.7675 12.6174 36.7354C12.6174 36.6713 12.5474 36.6713 12.5211 36.6713L12.2033 36.68ZM14.7758 36.6595C14.721 36.6706 14.6654 36.6774 14.6095 36.68L13.6908 36.6829L13.6354 36.68L13.2358 36.6713C13.2124 36.6713 13.1395 36.6713 13.1395 36.7325C13.1395 36.7645 13.1658 36.785 13.2008 36.7879L13.3291 36.7995C13.4341 36.8084 13.4691 36.8666 13.4779 37.0009L13.4866 37.8641V38.57C13.4866 38.9463 13.4866 39.27 13.4663 39.4363C13.4486 39.5559 13.4313 39.62 13.3729 39.6316C13.3554 39.6345 13.2591 39.6463 13.2591 39.6463C13.2124 39.6491 13.1979 39.6725 13.1979 39.7016C13.1979 39.7629 13.2679 39.7629 13.2911 39.7629L13.6179 39.7541L13.8366 39.757L14.6766 39.7745C14.8341 39.7745 14.8895 39.7745 14.9216 39.6491C14.942 39.5645 14.9741 39.2875 14.9741 39.2525C14.9741 39.2234 14.9741 39.162 14.9188 39.162C14.8691 39.162 14.8604 39.2175 14.8545 39.2466C14.8283 39.4013 14.7845 39.4741 14.6913 39.512C14.592 39.5529 14.4199 39.5529 14.3179 39.5529C13.9299 39.5529 13.892 39.5034 13.8833 39.2525V38.2141C13.8833 38.217 14.452 38.2375 14.452 38.2375C14.5891 38.252 14.627 38.3075 14.6329 38.3541C14.6416 38.4009 14.6474 38.4795 14.6474 38.4795C14.6533 38.5234 14.6708 38.5466 14.7058 38.5466C14.7641 38.5466 14.7641 38.4738 14.7641 38.4416L14.7788 38.1879L14.8108 37.9604C14.8108 37.902 14.7699 37.8963 14.7613 37.8991C14.7408 37.8991 14.7088 37.94 14.6795 37.9575C14.6154 37.9954 14.6154 37.9984 14.5074 38.007L13.8716 38.0159L13.8774 36.8988C13.9241 36.89 14.3529 36.8929 14.417 36.9016C14.6358 36.925 14.6591 36.9745 14.6766 37.0213L14.697 37.1525C14.697 37.2254 14.7408 37.2341 14.7613 37.2341C14.7816 37.2341 14.8079 37.2225 14.8195 37.1641L14.8341 36.96L14.837 36.8959L14.8604 36.7588L14.8691 36.7063C14.8691 36.645 14.8341 36.6391 14.8224 36.6391C14.8108 36.6391 14.8108 36.6538 14.7758 36.6595ZM20.2124 36.8463L20.2095 39.1475C20.2095 39.5063 20.1804 39.617 20.1104 39.6288C20.0404 39.6404 19.9558 39.652 19.9558 39.652C19.9091 39.655 19.8916 39.6784 19.8916 39.7075C19.8916 39.7688 19.9588 39.7688 19.9879 39.7688L20.3088 39.76H20.4341L20.8016 39.7688C20.8308 39.7688 20.9038 39.7688 20.9038 39.7075C20.9038 39.6813 20.892 39.6579 20.8395 39.652C20.8395 39.652 20.7229 39.6404 20.647 39.6288C20.5713 39.617 20.5216 39.5295 20.5129 39.1913C20.5129 39.1913 20.4691 37.5025 20.4633 37.3509C20.5624 37.4616 21.4549 38.4416 21.4549 38.4416C21.8895 38.9113 22.4613 39.4916 22.5049 39.5325C22.7354 39.76 22.7733 39.7979 22.8199 39.7979C22.8813 39.7979 22.887 39.7513 22.887 39.4829L22.8929 37.132C22.8929 36.8813 22.9133 36.8259 23.0183 36.8025L23.1088 36.7909C23.1613 36.785 23.1845 36.7588 23.1845 36.7325C23.1845 36.6741 23.1145 36.6741 23.0824 36.6741L22.8141 36.6829H22.6566L22.3241 36.6741C22.2863 36.6741 22.2133 36.6741 22.2133 36.7325C22.2133 36.7704 22.2279 36.7879 22.2774 36.7909L22.467 36.8113C22.5633 36.8259 22.5954 36.89 22.5983 37.1641C22.5983 37.1641 22.6333 38.7479 22.642 39.1241C22.5633 39.0395 22.3416 38.8004 22.3416 38.8004L21.732 38.1354L20.4195 36.7209C20.3641 36.6566 20.3263 36.6216 20.2913 36.6216C20.2183 36.6159 20.2124 36.7063 20.2124 36.8463ZM24.1558 36.68H24.0304L23.6863 36.6713C23.6629 36.6713 23.5929 36.6713 23.5929 36.7354C23.5929 36.7675 23.6133 36.7879 23.6541 36.7909L23.7708 36.8054C23.832 36.8141 23.8758 36.8609 23.8845 37.0038L23.8933 37.867V38.5729C23.8933 38.9491 23.8933 39.2729 23.8729 39.4391C23.8554 39.5616 23.8379 39.6229 23.7795 39.6345L23.6658 39.6491C23.6133 39.655 23.6016 39.6784 23.6016 39.7045C23.6016 39.7659 23.6745 39.7659 23.6979 39.7659L24.0274 39.757H24.1383L24.5874 39.7688C24.6749 39.7688 24.6808 39.725 24.6808 39.7075C24.6808 39.6813 24.6633 39.655 24.6195 39.652L24.4445 39.6375C24.3483 39.6229 24.3249 39.5616 24.3133 39.442C24.2929 39.2759 24.2929 38.952 24.2929 38.5759V37.87L24.3016 37.0066C24.3104 36.8695 24.3395 36.82 24.4241 36.8054L24.5204 36.7938C24.5613 36.7909 24.5845 36.7704 24.5845 36.7384C24.5845 36.6741 24.5116 36.6741 24.4883 36.6741L24.1558 36.68ZM27.8541 36.68H27.7024L27.402 36.6713C27.3613 36.6713 27.2824 36.6713 27.2824 36.7325C27.2824 36.7529 27.2913 36.782 27.3583 36.7879L27.5013 36.8025C27.5333 36.8084 27.5391 36.8404 27.5333 36.8666L27.4983 37.0095C27.4166 37.275 26.9208 38.5759 26.6699 39.165C26.6204 39.0309 25.9263 37.1816 25.9263 37.1816C25.8679 37.0329 25.8183 36.9045 25.8183 36.8609C25.8183 36.8404 25.8241 36.8141 25.8533 36.8084L25.9933 36.7909C26.0633 36.785 26.0633 36.75 26.0633 36.7325C26.0633 36.6741 25.9758 36.6741 25.9233 36.6741L25.6316 36.6829H25.4508L25.0804 36.6741C25.0249 36.6741 24.9463 36.6741 24.9463 36.7325C24.9463 36.7675 24.9638 36.7879 25.0104 36.7909L25.1533 36.8054C25.2729 36.8259 25.3341 36.8754 25.4216 37.097L26.4133 39.582C26.4891 39.7688 26.5095 39.827 26.5766 39.827C26.6263 39.827 26.6438 39.7863 26.702 39.655L26.772 39.5034L27.2679 38.3395L27.5041 37.765L27.7404 37.1963C27.8454 36.9309 27.9038 36.8638 27.9504 36.8316C28.0174 36.7879 28.0991 36.7879 28.1254 36.7879C28.1924 36.7879 28.2041 36.75 28.2041 36.7295C28.2041 36.6916 28.172 36.6713 28.1049 36.6713L27.8541 36.68ZM33.9733 37.3684C33.9733 37.6425 34.0638 37.8991 34.507 38.2638L34.6879 38.4125C35.0438 38.7041 35.1399 38.8529 35.1399 39.1125C35.1399 39.3604 34.9533 39.6141 34.5974 39.6141C34.4516 39.6141 34.1045 39.5763 34.0316 39.2291L34.0199 39.0863C34.0199 39.0629 34.0199 39.0104 33.9616 39.0104C33.9091 39.0104 33.9033 39.0688 33.8974 39.1009L33.8945 39.1416L33.877 39.5325C33.877 39.6404 33.8799 39.6754 33.9558 39.7134C34.1104 39.7891 34.2913 39.8241 34.507 39.8241C34.752 39.8241 34.9679 39.7629 35.1313 39.6491C35.3938 39.4625 35.487 39.1709 35.487 38.9579C35.487 38.6429 35.3879 38.3834 34.8891 37.9895L34.7783 37.902C34.3933 37.587 34.2999 37.4588 34.2999 37.2516C34.2999 36.992 34.4866 36.817 34.7638 36.817C35.0963 36.817 35.207 36.9541 35.2391 37.0154C35.2595 37.0563 35.2858 37.1584 35.2888 37.205C35.2916 37.2341 35.2974 37.2866 35.3499 37.2866C35.4083 37.2866 35.4083 37.205 35.4083 37.1641L35.4229 36.7704V36.7413C35.4229 36.6888 35.3733 36.6829 35.3529 36.6829C35.3324 36.6829 35.2188 36.6625 35.2188 36.6625C35.1049 36.6334 34.9824 36.6216 34.8395 36.6216C34.3204 36.6159 33.9733 36.9191 33.9733 37.3684ZM42.5833 36.68H42.4141L42.2129 36.6713C42.1313 36.6713 42.1166 36.7063 42.1166 36.7266C42.1166 36.7675 42.1574 36.782 42.1954 36.7938C42.2158 36.8025 42.242 36.8054 42.242 36.8784C42.242 36.9366 42.2216 37.0009 42.1779 37.0679C42.1108 37.1816 41.6586 37.9575 41.5363 38.1995C41.402 37.9779 40.8858 37.0884 40.8274 36.9804C40.7983 36.925 40.7808 36.8813 40.7808 36.8375C40.7808 36.82 40.7924 36.8054 40.8158 36.7909L40.8363 36.782C40.8624 36.7704 40.8916 36.7616 40.8916 36.7266C40.8916 36.6888 40.8624 36.6684 40.8099 36.6684L40.527 36.677H40.3783L40.0749 36.6684C39.9963 36.6684 39.9904 36.7179 39.9904 36.7266C39.9904 36.7616 40.0195 36.785 40.0604 36.785C40.0895 36.785 40.1595 36.8054 40.2149 36.8434C40.2938 36.8959 40.3929 37.0038 40.4774 37.132C40.6233 37.345 41.157 38.2259 41.1833 38.2841C41.2358 38.4009 41.2736 38.4854 41.2736 38.6925V39.0366L41.262 39.4363C41.2563 39.515 41.2358 39.6141 41.1629 39.6288L41.0491 39.6434C40.9966 39.6491 40.9849 39.6695 40.9849 39.6988C40.9849 39.76 41.0549 39.76 41.0783 39.76L41.4079 39.7513H41.5186L41.9649 39.76C42.0495 39.76 42.0583 39.7163 42.0583 39.6988C42.0583 39.6725 42.0379 39.6434 41.997 39.6434L41.8191 39.6288C41.7316 39.617 41.6908 39.5588 41.682 39.4363L41.6704 39.0366V38.6925C41.6704 38.5641 41.6704 38.4416 41.7286 38.3016C41.7958 38.1384 42.3558 37.1963 42.4899 37.0329C42.5804 36.922 42.6213 36.8784 42.697 36.8345C42.7524 36.7995 42.8224 36.782 42.8661 36.782C42.9274 36.782 42.9479 36.747 42.9479 36.7179C42.9479 36.6916 42.9274 36.6625 42.8661 36.6625L42.5833 36.68ZM44.062 38.2141C44.062 37.5959 44.4995 36.6129 45.6749 36.6129C46.6374 36.6129 47.282 37.2313 47.282 38.15C47.282 39.1184 46.5966 39.8241 45.6516 39.8241C44.5579 39.8241 44.062 38.99 44.062 38.2141ZM44.5054 38.1034C44.5054 38.99 45.0216 39.6113 45.7595 39.6113C45.9404 39.6113 46.8388 39.547 46.8388 38.2638C46.8388 37.2663 46.2204 36.8113 45.6488 36.8113C44.9429 36.8141 44.5054 37.307 44.5054 38.1034ZM49.2304 36.677C49.2158 36.677 49.1838 36.68 49.1838 36.68L48.1979 36.6829L48.1454 36.68L47.7458 36.6713C47.7224 36.6713 47.6495 36.6713 47.6495 36.7354C47.6495 36.7675 47.6699 36.7879 47.7138 36.7909L47.842 36.8025C47.9499 36.817 47.9849 36.8695 47.9908 37.0038L47.9995 37.87V38.5759C47.9995 38.952 47.9995 39.2759 47.9791 39.442C47.9616 39.5616 47.9441 39.6259 47.8858 39.6375L47.772 39.652C47.7195 39.6579 47.7108 39.6784 47.7108 39.7075C47.7108 39.7688 47.7838 39.7688 47.8041 39.7688L48.1308 39.76H48.2445L48.6908 39.7716C48.7754 39.7716 48.787 39.7279 48.787 39.7104C48.787 39.6841 48.7724 39.6579 48.7229 39.655L48.5479 39.6404C48.4516 39.6288 48.4283 39.5645 48.4166 39.4479C48.3963 39.2816 48.3963 38.955 48.3963 38.5816V38.2404C48.5449 38.2345 48.9066 38.2375 48.997 38.2463C49.1049 38.2609 49.1661 38.325 49.1808 38.3716C49.1954 38.4184 49.2013 38.4738 49.2013 38.5088C49.2013 38.5466 49.2245 38.57 49.2595 38.57C49.3179 38.57 49.3179 38.5 49.3179 38.462L49.3354 38.1966L49.3674 37.9691C49.3733 37.9138 49.3295 37.9079 49.3179 37.9079C49.2888 37.9079 49.2713 37.9313 49.2566 37.9516C49.2216 37.9984 49.1866 38.0129 49.0874 38.0188L48.9095 38.0216L48.3963 38.0245L48.3991 36.9104C48.4049 36.8959 49.0204 36.9075 49.0204 36.9075C49.1633 36.9104 49.2536 36.9688 49.2683 37.0184C49.2799 37.0563 49.3004 37.1584 49.3004 37.1584C49.3149 37.237 49.3499 37.237 49.3588 37.237C49.3791 37.237 49.4113 37.2313 49.4199 37.17C49.4199 37.17 49.4316 36.9513 49.4404 36.9016C49.4433 36.8754 49.4638 36.7645 49.4638 36.7645L49.4724 36.712C49.4783 36.6684 49.4491 36.642 49.417 36.645C49.382 36.642 49.2974 36.6713 49.2304 36.677ZM19.3958 36.68H19.2704L18.8999 36.6713C18.8766 36.6713 18.8066 36.6713 18.8066 36.7325C18.8066 36.7645 18.8329 36.7879 18.8679 36.7879L18.9963 36.7995C19.1158 36.8141 19.1391 36.8754 19.1449 37.0009L19.1538 37.867V38.3688C19.1538 38.85 19.0866 39.1359 18.9291 39.3341C18.7863 39.5063 18.5529 39.6113 18.3224 39.6113C18.0949 39.6113 17.9258 39.5763 17.7363 39.3984C17.5933 39.2613 17.4445 39.0395 17.4445 38.43V37.867L17.4533 37.0009C17.462 36.8609 17.4913 36.8113 17.5758 36.7995L17.672 36.7879C17.7129 36.785 17.7363 36.7645 17.7363 36.7325C17.7363 36.6713 17.6663 36.6713 17.6399 36.6713L17.3424 36.68H17.1588L16.7795 36.6713C16.7563 36.6713 16.6833 36.6713 16.6833 36.7325C16.6833 36.7645 16.7095 36.7879 16.7474 36.7879L16.8758 36.7995C16.9808 36.8113 17.0158 36.8666 17.0245 37.0009L17.0333 37.867V38.4534C17.0333 39.1038 17.2258 39.372 17.392 39.5325C17.6633 39.7891 18.0395 39.827 18.2408 39.827C18.4566 39.827 18.7804 39.795 19.0895 39.5209C19.4249 39.2204 19.4688 38.71 19.4688 38.2988V37.867L19.4774 37.0009C19.4863 36.8638 19.5154 36.817 19.5999 36.7995L19.6933 36.7879C19.7341 36.785 19.7574 36.7645 19.7574 36.7325C19.7574 36.6713 19.6874 36.6713 19.6641 36.6713L19.3958 36.68ZM6.63537 36.7034C6.62949 36.7179 6.54199 37.0913 6.54199 37.1409C6.54199 37.1904 6.56831 37.2079 6.59449 37.2079C6.63537 37.2079 6.65287 37.1729 6.66169 37.1466L6.72581 37.027C6.78111 36.9425 6.86861 36.9163 7.11081 36.9134C7.11081 36.9134 7.55405 36.9075 7.67361 36.9045V38.5729C7.67361 38.9491 7.67361 39.2729 7.65331 39.4391C7.63581 39.5588 7.61831 39.6229 7.55993 39.6345C7.46655 39.6491 7.44611 39.6491 7.44611 39.6491C7.40243 39.6491 7.38493 39.6754 7.38493 39.7045C7.38493 39.7659 7.45493 39.7659 7.47831 39.7659L7.80787 39.757H7.91861L8.36493 39.7688C8.44949 39.7688 8.45831 39.725 8.45831 39.7075C8.45831 39.6813 8.43787 39.652 8.39699 39.652L8.22199 39.6375C8.12581 39.6229 8.10243 39.5616 8.09081 39.445C8.07037 39.2788 8.07037 38.952 8.07037 38.5759V36.9075C8.12581 36.9075 8.54581 36.9163 8.54581 36.9163C8.93081 36.925 8.99787 37.0184 9.00949 37.1116L9.01243 37.1554C9.01523 37.1934 9.02125 37.2516 9.07655 37.2516C9.08537 37.2516 9.13493 37.2488 9.13493 37.17L9.13773 37.0416L9.14655 36.7295C9.14655 36.7063 9.14655 36.6479 9.09699 36.6479L9.04743 36.6566C8.99199 36.6684 8.88405 36.6888 8.69743 36.6888H7.19243C7.19243 36.6888 6.90963 36.6741 6.88023 36.6684C6.83732 36.6583 6.79457 36.6477 6.75199 36.6363L6.70243 36.6216H6.69963C6.66463 36.6188 6.65007 36.6625 6.63537 36.7034ZM30.1145 36.6595C30.0329 36.677 29.9483 36.68 29.9483 36.68L29.0295 36.6829L28.9741 36.68L28.5745 36.6713C28.5513 36.6713 28.4783 36.6713 28.4783 36.7325C28.4783 36.7645 28.5045 36.785 28.5395 36.7879L28.6679 36.7995C28.7729 36.8084 28.8079 36.8666 28.8166 37.0009L28.8254 37.8641V38.57C28.8254 38.9463 28.8254 39.27 28.8049 39.4363C28.7874 39.5559 28.7699 39.62 28.7116 39.6316C28.6941 39.6345 28.5979 39.6463 28.5979 39.6463C28.5513 39.6491 28.5366 39.6725 28.5366 39.7016C28.5366 39.7629 28.6066 39.7629 28.6299 39.7629L28.9566 39.7541L29.1754 39.757L30.0154 39.7745C30.1729 39.7745 30.2283 39.7745 30.2604 39.6491C30.2808 39.5645 30.3129 39.2875 30.3129 39.2525C30.3129 39.2234 30.3129 39.162 30.2574 39.162C30.2079 39.162 30.1991 39.2175 30.1933 39.2466C30.167 39.4013 30.1233 39.4741 30.0299 39.512C29.9308 39.5529 29.7588 39.5529 29.6566 39.5529C29.2688 39.5529 29.2308 39.5034 29.222 39.2525V38.2141C29.222 38.217 29.7908 38.2375 29.7908 38.2375C29.9279 38.252 29.9658 38.3075 29.9716 38.3541C29.9804 38.4009 29.9863 38.4795 29.9863 38.4795C29.992 38.5234 30.0095 38.5466 30.0445 38.5466C30.1029 38.5466 30.1029 38.4738 30.1029 38.4416L30.1174 38.1879L30.1495 37.9604C30.1495 37.902 30.1088 37.8963 30.0999 37.8991C30.0795 37.8991 30.0474 37.94 30.0183 37.9575C29.9541 37.9954 29.9541 37.9984 29.8463 38.007L29.2104 38.0159L29.2163 36.8988C29.2629 36.89 29.6916 36.8929 29.7558 36.9016C29.9745 36.925 29.9979 36.9745 30.0154 37.0213L30.0358 37.1525C30.0358 37.2254 30.0795 37.2341 30.0999 37.2341C30.1204 37.2341 30.1466 37.2225 30.1583 37.1641L30.1729 36.96L30.1758 36.8959L30.1991 36.7588L30.2079 36.7063C30.2079 36.645 30.1729 36.6391 30.1613 36.6391C30.1495 36.6391 30.1495 36.6538 30.1145 36.6595ZM36.3883 36.68H36.2629L35.9188 36.6713C35.8954 36.6713 35.8254 36.6713 35.8254 36.7354C35.8254 36.7675 35.8458 36.7879 35.8866 36.7909L36.0033 36.8054C36.0645 36.8141 36.1083 36.8609 36.117 37.0038L36.1258 37.867V38.5729C36.1258 38.9491 36.1258 39.2729 36.1054 39.4391C36.0879 39.5616 36.0704 39.6229 36.012 39.6345L35.8983 39.6491C35.8458 39.655 35.8341 39.6784 35.8341 39.7045C35.8341 39.7659 35.907 39.7659 35.9304 39.7659L36.2599 39.757H36.3708L36.8199 39.7688C36.9074 39.7688 36.9133 39.725 36.9133 39.7075C36.9133 39.6813 36.8958 39.655 36.852 39.652L36.677 39.6375C36.5808 39.6229 36.5574 39.5616 36.5458 39.442C36.5254 39.2759 36.5254 38.952 36.5254 38.5759V37.87L36.5341 37.0066C36.5429 36.8695 36.572 36.82 36.6566 36.8054L36.7529 36.7938C36.7936 36.7909 36.817 36.7704 36.817 36.7384C36.817 36.6741 36.7441 36.6741 36.7208 36.6741L36.3883 36.68ZM37.1786 36.7034C37.1729 36.7179 37.0854 37.0913 37.0854 37.1409C37.0854 37.1904 37.1116 37.2079 37.1379 37.2079C37.1788 37.2079 37.1963 37.1729 37.2049 37.1466L37.2691 37.027C37.3245 36.9425 37.412 36.9163 37.6541 36.9134C37.6541 36.9134 38.0974 36.9075 38.217 36.9045V38.5729C38.217 38.9491 38.217 39.2729 38.1966 39.4391C38.1791 39.5588 38.1616 39.6229 38.1033 39.6345C38.0099 39.6491 37.9895 39.6491 37.9895 39.6491C37.9458 39.6491 37.9283 39.6754 37.9283 39.7045C37.9283 39.7659 37.9983 39.7659 38.0216 39.7659L38.3513 39.757H38.462L38.9083 39.7688C38.9929 39.7688 39.0016 39.725 39.0016 39.7075C39.0016 39.6813 38.9813 39.652 38.9404 39.652L38.7654 39.6375C38.6691 39.6229 38.6458 39.5616 38.6341 39.445C38.6136 39.2788 38.6138 38.952 38.6138 38.5759V36.9075C38.6691 36.9075 39.0891 36.9163 39.0891 36.9163C39.4741 36.925 39.5413 37.0184 39.5529 37.1116L39.5558 37.1554C39.5586 37.1934 39.5645 37.2516 39.6199 37.2516C39.6288 37.2516 39.6783 37.2488 39.6783 37.17L39.6813 37.0416L39.6899 36.7295C39.6899 36.7063 39.6899 36.6479 39.6404 36.6479L39.5908 36.6566C39.5354 36.6684 39.4274 36.6888 39.2408 36.6888H37.7358C37.7358 36.6888 37.4529 36.6741 37.4236 36.6684C37.3945 36.6625 37.2954 36.6363 37.2954 36.6363L37.2458 36.6216H37.2429C37.2049 36.6188 37.1904 36.6625 37.1786 36.7034ZM33.6291 39.7045C33.6291 39.7659 33.5533 39.7659 33.5008 39.7659H33.3491C33.1245 39.7659 33.0166 39.7454 32.9058 39.687C32.7424 39.5995 32.6083 39.4245 32.407 39.1591C32.407 39.1591 31.9258 38.4854 31.9083 38.4825C31.9083 38.4825 31.3949 38.4738 31.3949 38.4766V38.5729C31.3949 38.9491 31.3949 39.2729 31.4154 39.442C31.427 39.5616 31.4504 39.6229 31.5466 39.6345L31.7216 39.6491C31.7741 39.652 31.7858 39.6784 31.7858 39.7045C31.7858 39.722 31.777 39.7659 31.6895 39.7659L31.2433 39.7541H31.1791L30.8174 39.7659C30.7941 39.7659 30.7213 39.7659 30.7213 39.7045C30.7213 39.6754 30.7329 39.655 30.7824 39.6491L30.8963 39.6345C30.9545 39.6229 30.972 39.5559 30.9895 39.4391C31.0099 39.2729 31.0099 38.9491 31.0099 38.5729V37.867L31.0013 37.0009C30.9924 36.8666 30.9574 36.8113 30.8524 36.7995L30.7241 36.7879C30.6863 36.785 30.6599 36.7645 30.6599 36.7325C30.6599 36.6713 30.7299 36.6713 30.7563 36.6713L31.1558 36.68L31.3424 36.677L31.6838 36.6684C31.9316 36.6684 32.2116 36.6888 32.4363 36.8491C32.5441 36.9279 32.7249 37.135 32.7249 37.4209C32.7249 37.7504 32.5733 38.045 32.2495 38.3513C32.2729 38.3804 32.3283 38.4504 32.3283 38.4504C32.6113 38.815 32.8563 39.1329 33.0691 39.3545C33.2733 39.5704 33.4366 39.617 33.5416 39.6345L33.562 39.6375C33.5999 39.6463 33.6291 39.6754 33.6291 39.7045ZM32.3313 37.6338C32.3313 37.1495 32.0833 36.8609 31.6663 36.8609C31.5408 36.8609 31.4388 36.8754 31.4066 36.8841C31.3979 36.887 31.3949 36.8929 31.3949 36.9045V38.217C31.3949 38.2259 31.3949 38.2316 31.4095 38.2404C31.4563 38.2695 31.6254 38.2988 31.8149 38.2988C31.8995 38.2988 32.0104 38.29 32.0979 38.2288C32.2466 38.1266 32.3313 37.905 32.3313 37.6338ZM11.2991 44.7329C11.2991 44.7329 9.78243 47.9209 9.64243 48.2095C9.61611 48.1541 7.97993 44.7766 7.97993 44.7766C7.90405 44.622 7.86331 44.5784 7.80213 44.5784C7.76125 44.5784 7.70875 44.6075 7.68243 44.7504L7.07581 48.752C7.04361 48.9766 6.98831 49.1954 6.83655 49.2245L6.65581 49.242C6.60905 49.245 6.54199 49.242 6.54199 49.3004C6.54199 49.385 6.63243 49.385 6.66743 49.385L7.04375 49.3734L7.27405 49.3645L7.46949 49.3704L7.91875 49.382C7.99743 49.382 8.08199 49.3763 8.08199 49.2975C8.08199 49.2595 8.04993 49.2479 7.97419 49.2391L7.72037 49.207C7.60361 49.1809 7.54817 49.1195 7.54817 49.0263L7.56581 48.7404C7.56581 48.7404 7.84581 46.6025 7.88081 46.3284C7.93037 46.41 8.17831 46.9379 8.17831 46.9379L8.51655 47.6641C8.58949 47.8334 9.06493 48.7579 9.22243 49.0584L9.23993 49.0934C9.33331 49.2684 9.38875 49.3734 9.44993 49.3734C9.51713 49.3734 9.54905 49.312 9.69213 49.0204L11.0308 46.235C11.0308 46.2584 11.3954 48.93 11.3954 48.93C11.4041 48.9854 11.407 49.0291 11.407 49.0641C11.407 49.137 11.3924 49.172 11.3749 49.1779C11.3341 49.1954 11.2961 49.2188 11.2961 49.2595C11.2961 49.315 11.3604 49.3325 11.4888 49.3413C11.7308 49.3588 12.5766 49.3791 12.737 49.3791C12.8508 49.3791 12.912 49.35 12.912 49.2945C12.912 49.2363 12.8363 49.2363 12.7983 49.2363C12.7136 49.2363 12.597 49.2304 12.422 49.175C12.2413 49.1195 12.1858 48.9359 12.1333 48.5684L11.5733 44.7766C11.5529 44.6395 11.512 44.5725 11.4479 44.5725C11.3836 44.5754 11.3486 44.6338 11.2991 44.7329ZM18.4538 44.7213L18.1299 44.73L17.8179 44.7241L17.2899 44.7125C17.217 44.7125 17.1413 44.7184 17.1413 44.7825C17.1413 44.8525 17.2024 44.8466 17.2608 44.8525L17.4591 44.87C17.6574 44.8875 17.7013 45.0129 17.7099 45.2054C17.7216 45.4009 17.7216 45.57 17.7216 46.5063V47.5854C17.7216 48.1484 17.7216 48.6325 17.6895 48.8891C17.6633 49.0875 17.6283 49.1925 17.5233 49.2129L17.3045 49.2363C17.2463 49.242 17.1908 49.242 17.1908 49.3004C17.1908 49.3763 17.2958 49.3763 17.3279 49.3763L17.7508 49.3645L18.1008 49.3588L19.0574 49.382L19.8858 49.3938C20.2095 49.3938 20.2474 49.3616 20.2883 49.2159C20.3379 49.035 20.3816 48.577 20.3816 48.507C20.3816 48.4488 20.3816 48.3875 20.3174 48.3875C20.2445 48.3875 20.2388 48.4545 20.2329 48.4925C20.2213 48.6063 20.1483 48.7754 20.0783 48.8513C19.9354 49.0059 19.7166 49.0175 19.3724 49.0175C18.8824 49.0175 18.7366 48.9709 18.6404 48.8863C18.5179 48.7813 18.5179 48.3525 18.5179 47.5795V46.5004C18.5179 45.5641 18.5179 45.395 18.5295 45.1995C18.5413 44.975 18.5966 44.8904 18.7454 44.8641L18.9816 44.8466C19.0458 44.8466 19.107 44.8379 19.107 44.7766C19.107 44.7154 19.037 44.7066 18.9641 44.7066L18.4538 44.7213ZM22.3649 49.0204C22.5283 49.0875 22.6683 49.0934 22.8083 49.0934C22.9308 49.0934 23.5345 49.0554 23.5345 48.3234C23.5345 48.0841 23.4763 47.4863 22.9454 47.1129C22.817 47.0195 22.677 46.9816 22.4438 46.97L22.1813 46.9641C22.1695 46.9641 22.1608 46.967 22.1608 46.9934V48.4488C22.1608 48.8484 22.1783 48.9445 22.3649 49.0204ZM22.4029 44.9925L22.2045 45.0041C22.1724 45.0129 22.1608 45.0275 22.1608 45.0945V46.6113C22.1608 46.655 22.1724 46.6609 22.1929 46.6638L22.4788 46.6813C22.6595 46.6813 22.8024 46.6609 22.9104 46.5675C23.0708 46.4363 23.1554 46.2145 23.1554 45.9288C23.1554 45.567 22.9513 44.9925 22.4029 44.9925ZM22.5079 44.7095C23.7358 44.7095 23.8291 45.427 23.8291 45.6459C23.8291 46.1184 23.5841 46.4159 23.2166 46.7134C23.7533 46.9059 24.3191 47.3491 24.3191 48.0434C24.3191 48.717 23.8088 49.3966 22.6654 49.3966L22.4729 49.3879L22.2338 49.3763L21.7758 49.3588L21.4258 49.3645L21.0029 49.3763C20.9679 49.3763 20.8658 49.3763 20.8658 49.3004C20.8658 49.242 20.9183 49.2391 20.9795 49.2363L21.1983 49.2129C21.312 49.1895 21.3413 49.0525 21.3645 48.8891C21.3938 48.6325 21.3938 48.1454 21.3938 47.5854V46.5063C21.3938 45.57 21.3938 45.4038 21.382 45.2054C21.3704 45.0129 21.347 44.8904 21.1283 44.87L20.892 44.8525C20.822 44.8466 20.7724 44.8525 20.7724 44.7825C20.7724 44.7184 20.8513 44.7125 20.9213 44.7125L21.5191 44.7241L21.7554 44.73L22.1988 44.7184L22.5079 44.7095ZM25.8241 46.8563C25.8241 48.195 26.5913 49.1313 27.6938 49.1313C28.1166 49.1313 29.1024 48.9388 29.1024 47.1625C29.1024 45.8588 28.3704 44.9516 27.3204 44.9516C26.7604 44.9488 25.8241 45.1966 25.8241 46.8563ZM24.9491 47.0459C24.9491 45.8791 25.7483 44.625 27.4983 44.625C29.0383 44.625 29.992 45.5116 29.992 46.935C29.992 48.4254 28.942 49.4666 27.437 49.4666C25.7279 49.4666 24.9491 48.2125 24.9491 47.0459ZM34.5479 44.7241L33.6641 44.7125C33.5941 44.7125 33.5213 44.7184 33.5213 44.7825C33.5213 44.8525 33.7138 44.8554 33.8566 44.87C34.0316 44.8875 34.0988 45.0129 34.1104 45.2054C34.122 45.4009 34.122 45.57 34.122 46.5063V47.2734C34.122 47.9295 34.0958 48.4604 33.772 48.7841C33.4774 49.0788 33.0895 49.1109 32.9349 49.1109C32.722 49.1109 32.4449 49.0816 32.1766 48.8629C31.9316 48.6616 31.7041 48.3409 31.7041 47.3638V46.5034C31.7041 45.567 31.7041 45.4009 31.7158 45.2025C31.7304 44.9779 31.7829 44.8934 31.9316 44.867L32.1066 44.8495C32.1563 44.8438 32.2204 44.8495 32.2204 44.7795C32.2204 44.7154 32.1416 44.7095 32.0716 44.7095L31.6224 44.7213L31.3163 44.73L30.9895 44.7213L30.4208 44.7095C30.3479 44.7095 30.272 44.7154 30.272 44.7795C30.272 44.8495 30.3363 44.8466 30.3916 44.8495C30.3916 44.8495 30.447 44.8525 30.6279 44.867C30.8088 44.8816 30.8699 45.01 30.8786 45.2025C30.8904 45.3979 30.8904 45.567 30.8904 46.5034V47.3988C30.8904 48.1775 31.0654 48.6966 31.4416 49.035C31.9141 49.4638 32.5441 49.4638 32.8124 49.4638C33.1713 49.4638 33.6379 49.4141 34.0988 49.0175C34.6149 48.5741 34.6879 47.8625 34.6879 47.1595V46.5034C34.6879 45.567 34.6879 45.4009 34.6995 45.2025C34.7113 44.9779 34.7666 44.8934 34.9154 44.867L35.0904 44.8495C35.1633 44.8438 35.2158 44.8409 35.2158 44.7795C35.2158 44.7154 35.1429 44.7095 35.0729 44.7095L34.5479 44.7241ZM37.1116 47.0866C37.2254 47.1245 37.3974 47.1479 37.5724 47.1479C37.8174 47.1479 37.8933 47.1216 37.9983 47.0459C38.1324 46.9495 38.3541 46.7016 38.3541 46.1388C38.3541 45.2638 37.7738 45.0304 37.4295 45.0304C37.2633 45.0304 37.1641 45.0391 37.1088 45.0538C37.0738 45.0625 37.0649 45.08 37.0649 45.1238V46.9904C37.0679 47.0545 37.0795 47.072 37.1116 47.0866ZM37.5491 44.7125C37.9195 44.7125 38.3424 44.7445 38.6866 44.9779C38.8324 45.077 39.1095 45.3834 39.1095 45.8295C39.1095 46.3341 38.8674 46.7454 38.3045 47.2063C38.3191 47.2266 38.5116 47.4659 38.5116 47.4659C38.9608 48.0316 39.3166 48.4779 39.6286 48.8075C39.9613 49.1516 40.2004 49.2013 40.2995 49.2216L40.3141 49.2245C40.3841 49.2391 40.4016 49.277 40.4016 49.3034C40.4016 49.3791 40.3113 49.3791 40.2704 49.3791H39.8504C39.5149 49.3791 39.3516 49.35 39.1854 49.2595C38.9258 49.1225 38.6983 48.8454 38.3395 48.3525L38.0274 47.912L37.7329 47.5066C37.7066 47.4745 37.6774 47.4688 37.6338 47.4688L37.0999 47.457C37.0736 47.457 37.0649 47.4659 37.0649 47.492V47.5766C37.0649 48.1425 37.0649 48.6325 37.0941 48.8891C37.1145 49.0816 37.1554 49.1925 37.3216 49.2129L37.6191 49.2363C37.6979 49.2363 37.7066 49.28 37.7066 49.3004C37.7066 49.3763 37.6016 49.3763 37.5695 49.3763L36.8666 49.3616L36.6683 49.3559L36.4204 49.3616L35.9216 49.3734C35.8866 49.3734 35.7845 49.3734 35.7845 49.2975C35.7845 49.2391 35.8429 49.2391 35.8983 49.2334L36.117 49.21C36.2338 49.1866 36.2599 49.0495 36.2833 48.8863C36.3124 48.6295 36.3124 48.1425 36.3124 47.5825V46.5034C36.3124 45.567 36.3124 45.3979 36.3008 45.2025C36.2891 45.007 36.2483 44.8904 36.047 44.867L35.8108 44.8495C35.7729 44.8495 35.6913 44.8495 35.6913 44.7795C35.6913 44.7154 35.7699 44.7095 35.8399 44.7095L36.4349 44.7213L36.6799 44.727L37.132 44.7184L37.5491 44.7125ZM41.3874 44.8291L41.332 48.4634C41.3263 48.9913 41.2999 49.1634 41.1513 49.21C41.0782 49.2308 41.0025 49.2407 40.9266 49.2391C40.8945 49.2391 40.8129 49.2391 40.8129 49.3034C40.8129 49.3791 40.9004 49.3791 40.9616 49.3791L41.4749 49.3645H41.7491L42.3004 49.3763C42.3499 49.3763 42.4579 49.3763 42.4579 49.3004C42.4579 49.2363 42.3733 49.2363 42.3383 49.2363C42.2479 49.2363 42.1691 49.2304 42.0641 49.1925C41.9329 49.1459 41.8716 48.9475 41.8599 48.5245C41.8599 48.5245 41.7929 46.0309 41.7929 45.9754C41.8279 46.0045 41.9183 46.1038 41.9183 46.1038C42.1779 46.3866 42.7145 46.9759 43.2454 47.5066L44.0591 48.3204L45.0566 49.3091C45.1266 49.3791 45.2024 49.4491 45.2754 49.4491C45.3599 49.4491 45.3688 49.347 45.3688 49.245L45.4358 45.3716C45.4416 45.0275 45.4533 44.8934 45.6108 44.8641L45.7916 44.8466C45.8879 44.8409 45.917 44.8234 45.917 44.7766C45.917 44.7066 45.8238 44.7066 45.7595 44.7066L45.3104 44.7213L45.1995 44.727L44.9838 44.7213L44.4966 44.7095C44.4238 44.7095 44.3216 44.7095 44.3216 44.7795C44.3216 44.8409 44.3829 44.8495 44.4354 44.8495C44.5199 44.8495 44.6249 44.8495 44.7154 44.8845C44.8438 44.94 44.9079 45.0334 44.9138 45.4241C44.9138 45.4241 44.972 48.02 44.9749 48.1834L44.9604 48.1659C44.9604 48.16 44.5286 47.7109 44.5286 47.7109L43.6188 46.7688C42.6854 45.8413 41.7258 44.8088 41.717 44.8L41.6588 44.7388C41.5858 44.66 41.5391 44.6075 41.4779 44.6075C41.3963 44.6075 41.3874 44.7329 41.3874 44.8291ZM48.9095 44.7241C48.8249 44.73 47.8041 44.73 47.3783 44.73L47.0661 44.7213L46.9933 44.7184L46.4945 44.7125C46.4216 44.7125 46.3429 44.7184 46.3429 44.7825C46.3429 44.8525 46.4188 44.8525 46.4624 44.8525L46.6988 44.87C46.9145 44.8963 46.9408 45.0129 46.9524 45.2054C46.9641 45.4009 46.9641 45.57 46.9641 46.5063V47.5854C46.9641 48.1484 46.9641 48.6354 46.932 48.892C46.9088 49.0554 46.8824 49.1925 46.7658 49.2159L46.547 49.2391C46.4799 49.245 46.4333 49.245 46.4333 49.3034C46.4333 49.3791 46.5354 49.3791 46.5704 49.3791L46.9933 49.3675L47.3433 49.3616L47.982 49.3791L48.1599 49.385L49.0438 49.3995C49.2741 49.3995 49.3441 49.3995 49.3908 49.2275C49.4229 49.102 49.4724 48.6879 49.4724 48.542C49.4724 48.4809 49.4724 48.4166 49.4083 48.4166C49.3499 48.4166 49.3354 48.4604 49.3266 48.5216C49.2829 48.7754 49.2099 48.895 49.0583 48.965C48.9008 49.0379 48.6413 49.0379 48.4866 49.0379C47.8508 49.0379 47.7779 48.9359 47.7661 48.5363V47.1013C47.7661 47.0545 47.7779 47.0545 47.7866 47.0545C47.9238 47.0545 48.5391 47.0604 48.6558 47.072C48.8511 47.0925 48.9533 47.1625 48.9854 47.2995L49.0058 47.4629L49.0088 47.5184C49.0088 47.562 49.032 47.5884 49.0786 47.5884C49.1486 47.5884 49.1488 47.5038 49.1488 47.457L49.1604 47.2588L49.172 47.0459L49.2129 46.6638L49.2216 46.5966C49.2216 46.5559 49.2013 46.5325 49.1633 46.5325C49.1283 46.5325 49.102 46.5616 49.0613 46.6084C49.0029 46.6754 48.9124 46.6929 48.7695 46.7045C48.6791 46.7134 48.332 46.7163 47.7895 46.7163C47.7691 46.7163 47.7633 46.7104 47.7633 46.6638V45.112C47.7633 45.0654 47.7779 45.0654 47.7895 45.0654C47.9091 45.0654 48.5538 45.077 48.6588 45.0888C48.9679 45.1266 49.0174 45.1995 49.0583 45.3016C49.0933 45.3834 49.0933 45.5029 49.0933 45.5175C49.0933 45.5466 49.0933 45.6195 49.1633 45.6195C49.2245 45.6195 49.2361 45.5584 49.2391 45.5409L49.2624 45.2609L49.2713 45.1354L49.312 44.797L49.3208 44.7359C49.3266 44.6804 49.3033 44.6659 49.2683 44.6659C49.2186 44.6629 49.0233 44.7213 48.9095 44.7241ZM15.9104 44.7241C15.8258 44.73 14.8049 44.73 14.3791 44.73L14.067 44.7213L13.9942 44.7184L13.4954 44.7125C13.4224 44.7125 13.3436 44.7184 13.3436 44.7825C13.3436 44.8525 13.4195 44.8525 13.4633 44.8525L13.6995 44.87C13.9154 44.8963 13.9417 45.0129 13.9533 45.2054C13.9649 45.4009 13.9649 45.57 13.9649 46.5063V47.5854C13.9649 48.1484 13.9649 48.6354 13.9327 48.892C13.9095 49.0554 13.8833 49.1925 13.7666 49.2159L13.5479 49.2391C13.4807 49.245 13.4341 49.245 13.4341 49.3034C13.4341 49.3791 13.5363 49.3791 13.5713 49.3791L13.9941 49.3675L14.3441 49.3616L14.9829 49.3791L15.1608 49.385L16.0445 49.3995C16.2749 49.3995 16.3449 49.3995 16.3916 49.2275C16.4238 49.102 16.4733 48.6879 16.4733 48.542C16.4733 48.4809 16.4733 48.4166 16.4091 48.4166C16.3508 48.4166 16.3363 48.4604 16.3274 48.5216C16.2838 48.7754 16.2108 48.895 16.0591 48.965C15.9016 49.0379 15.642 49.0379 15.4874 49.0379C14.8516 49.0379 14.7788 48.9359 14.767 48.5363V47.1013C14.767 47.0545 14.7788 47.0545 14.7874 47.0545C14.9245 47.0545 15.5399 47.0604 15.6566 47.072C15.852 47.0925 15.9541 47.1625 15.9863 47.2995L16.0066 47.4629L16.0095 47.5184C16.0095 47.562 16.0329 47.5884 16.0795 47.5884C16.1495 47.5884 16.1495 47.5038 16.1495 47.457L16.1613 47.2588L16.1729 47.0459L16.2138 46.6638L16.2224 46.5966C16.2224 46.5559 16.202 46.5325 16.1641 46.5325C16.1291 46.5325 16.1029 46.5616 16.062 46.6084C16.0038 46.6754 15.9133 46.6929 15.7704 46.7045C15.6799 46.7134 15.3329 46.7163 14.7904 46.7163C14.7699 46.7163 14.7641 46.7104 14.7641 46.6638V45.112C14.7641 45.0654 14.7788 45.0654 14.7904 45.0654C14.9099 45.0654 15.5545 45.077 15.6595 45.0888C15.9688 45.1266 16.0183 45.1995 16.0591 45.3016C16.0941 45.3834 16.0941 45.5029 16.0941 45.5175C16.0941 45.5466 16.0941 45.6195 16.1641 45.6195C16.2254 45.6195 16.237 45.5584 16.2399 45.5409L16.2633 45.2609L16.272 45.1354L16.3129 44.797L16.3216 44.7359C16.3274 44.6804 16.3041 44.6659 16.2691 44.6659C16.2195 44.6629 16.0241 44.7213 15.9104 44.7241Z" fill="white"/>
</g>
<defs>
<clipPath id="clip0_20213_10010">
<rect width="56" height="56" fill="white"/>
</clipPath>
</defs>
</svg>
