<svg width="149" height="45" viewBox="0 0 149 45" fill="none" xmlns="http://www.w3.org/2000/svg">
<g clip-path="url(#clip0_20213_10038)">
<path d="M72.7493 2.75392H76.536V14.753C76.536 16.8676 75.8967 18.4905 74.5689 19.5724C71.5691 21.7853 67.5366 21.7853 64.5368 19.5724C63.2091 18.4905 62.5698 16.8676 62.5698 14.753V2.75392H66.3564V14.753C66.3564 15.9825 66.6514 16.8185 67.2416 17.3594C68.6185 18.4413 70.5856 18.4413 71.9625 17.3594C72.5526 16.8185 72.7985 15.9333 72.7985 14.753L72.7493 2.75392ZM84.8468 10.0813C83.9125 10.0321 82.9781 10.5238 82.5355 11.3598V20.9493H78.8964V7.42571H82.2896L82.388 8.95019C83.3223 7.76995 84.7976 7.08147 86.2729 7.13065C87.404 7.08147 88.5351 7.47489 89.3711 8.26171C90.1579 9.04854 90.5513 10.3763 90.5513 12.2942V20.9001H86.9122V12.3434C86.9122 11.4582 86.7155 10.8681 86.3713 10.573C85.9779 10.2288 85.4369 10.0321 84.8468 10.0813ZM93.0102 3.93416C93.0102 3.44239 93.2069 2.95063 93.5511 2.60639C94.3871 1.91792 95.6657 1.91792 96.5017 2.60639C96.8459 2.95063 97.0918 3.44239 97.0427 3.93416C97.0427 4.42593 96.8459 4.9177 96.5017 5.26193C95.6657 5.95041 94.3871 5.95041 93.5511 5.26193C93.2069 4.9177 93.0102 4.42593 93.0102 3.93416ZM96.8951 7.42571V20.9493H93.256V7.42571H96.8951ZM106.288 20.9001C105.599 21.146 104.862 21.2444 104.124 21.2444C103.091 21.2935 102.108 20.9493 101.272 20.31C100.583 19.7199 100.239 18.6872 100.239 17.2119V10.0813H98.2229V7.42571H100.239V4.08169H103.878V7.42571H106.19V10.0813H103.878V16.8676C103.829 17.2611 103.927 17.7036 104.222 17.9987C104.518 18.1954 104.911 18.2938 105.255 18.2938C105.452 18.2938 105.649 18.2938 105.845 18.2446C106.042 18.2446 106.19 18.1954 106.288 18.1954V20.9001ZM119.369 18.7855C118.828 19.474 118.189 20.0641 117.402 20.4575C116.369 20.9985 115.238 21.2444 114.107 21.2444C111.992 21.2444 110.32 20.6051 109.14 19.3265C107.96 18.0479 107.321 16.4251 107.37 14.7039V14.2121C107.271 12.3926 107.911 10.573 109.091 9.19607C110.271 7.8683 111.943 7.13065 113.714 7.229C115.681 7.229 117.156 7.81912 118.139 9.04854C119.123 10.278 119.664 11.9008 119.664 13.8679V15.3923H111.058C111.156 16.1792 111.501 16.966 112.091 17.5069C112.681 18.0479 113.517 18.3429 114.353 18.2938C115.631 18.3429 116.861 17.802 117.599 16.7693L119.369 18.7855ZM113.664 10.0813C112.976 10.0321 112.337 10.3271 111.894 10.8681C111.451 11.4582 111.156 12.1467 111.058 12.8843H116.074V12.5893C116.074 11.95 115.877 11.3107 115.484 10.7697C115.041 10.278 114.353 10.0321 113.664 10.0813ZM129.745 20.9985L129.548 19.5724C129.155 20.0641 128.663 20.5067 128.073 20.8018C127.483 21.0968 126.795 21.2444 126.106 21.2444C124.532 21.2935 123.057 20.5559 122.221 19.2773C121.238 17.802 120.746 16.0808 120.844 14.3596V14.1137C120.844 12.0483 121.287 10.3763 122.221 9.09772C123.106 7.81912 124.582 7.13065 126.155 7.17983C127.434 7.13065 128.614 7.67159 129.401 8.65513V1.77039H133.04V20.9985H129.745ZM124.434 14.3596C124.385 15.294 124.582 16.2775 125.024 17.1135C125.418 17.8512 126.204 18.3429 127.04 18.2446C128.024 18.2938 128.958 17.7528 129.401 16.8676V11.5074C129.008 10.6222 128.073 10.0321 127.04 10.0813C126.204 10.0321 125.418 10.4747 125.024 11.2615C124.582 12.1467 124.385 13.1302 124.434 14.1137V14.3596ZM77.5195 24.5392V42.7838H73.7821L66.4547 30.7355V42.7838H62.6681V24.5392H66.4547L73.7821 36.5875V24.5392H77.5195ZM88.0925 42.7838C87.8958 42.3904 87.7974 41.997 87.7482 41.5544C87.3548 41.997 86.9122 42.3412 86.3713 42.5871C85.732 42.8821 85.0435 43.0297 84.3059 43.0297C83.1256 43.0788 81.9454 42.6362 81.0602 41.8986C80.175 41.1609 79.7324 40.1282 79.7324 38.9972C79.6833 37.7186 80.2734 36.44 81.3061 35.7023C82.3388 34.9155 83.9125 34.5221 85.9779 34.5221H87.6007V33.7353C87.6499 33.1943 87.4532 32.6534 87.1089 32.2108C86.7155 31.8174 86.1746 31.6207 85.5845 31.6698C84.3059 31.6698 83.6666 32.2108 83.6666 33.2927H80.0275C80.0275 32.1124 80.6176 30.9814 81.6012 30.2437C82.8306 29.3585 84.3059 28.9159 85.7812 28.9651C87.1581 28.9159 88.5351 29.3094 89.6661 30.1454C90.6989 30.9322 91.1906 32.1124 91.1906 33.7353V39.4398C91.1906 40.0791 91.2398 40.6692 91.3381 41.3085C91.4365 41.7511 91.5349 42.1445 91.7316 42.5379V42.7838H88.0925ZM85.0927 40.2758C85.6336 40.2758 86.1746 40.1282 86.6664 39.8824C87.0598 39.6856 87.3548 39.3414 87.6007 38.9972V36.6367H86.1254C85.3878 36.5875 84.6009 36.7842 84.0108 37.2268C83.5682 37.6202 83.3223 38.1612 83.3223 38.7021C83.3223 39.1447 83.4699 39.5381 83.7649 39.8332C84.1583 40.1282 84.6501 40.2758 85.0927 40.2758ZM100.485 42.6854C100.141 42.7838 99.8457 42.8821 99.5015 42.9313C99.1081 42.9805 98.7147 43.0297 98.3212 43.0297C97.2885 43.0788 96.305 42.7346 95.469 42.0953C94.7805 41.5052 94.4363 40.4725 94.4363 38.9972V31.8665H92.42V29.211H94.4363V25.867H98.0754V29.211H100.387V31.8665H98.0754V38.6529C98.0262 39.0463 98.1245 39.4889 98.4196 39.784C98.7147 39.9807 99.1081 40.0791 99.4523 40.0791C99.649 40.0791 99.8457 40.0791 100.042 40.0299C100.239 40.0299 100.387 39.9807 100.485 39.9807V42.6854ZM102.009 25.7195C102.009 25.2277 102.206 24.7359 102.55 24.3917C103.386 23.7032 104.665 23.7032 105.501 24.3917C106.239 25.1293 106.239 26.3096 105.501 27.0964C104.665 27.7849 103.386 27.7849 102.55 27.0964C102.157 26.703 101.96 26.2112 102.009 25.7195ZM105.845 29.211V42.7838H102.206V29.211H105.845ZM107.911 36.1449V35.899C107.862 34.1287 108.452 32.3583 109.583 30.9814C110.714 29.6536 112.287 29.0143 114.304 29.0143C116.369 29.0143 117.943 29.6536 119.074 30.9814C120.205 32.3583 120.795 34.1287 120.746 35.899V36.1449C120.795 37.9153 120.205 39.6856 119.074 41.0626C117.943 42.3904 116.369 43.0297 114.353 43.0297C112.287 43.0297 110.714 42.3904 109.583 41.0626C108.452 39.6856 107.862 37.9153 107.911 36.1449ZM111.55 35.8499V36.0957C111.501 37.0793 111.746 38.0628 112.189 38.8988C112.976 40.0791 114.599 40.4233 115.779 39.6365C116.074 39.4398 116.32 39.1939 116.517 38.8988C116.959 38.0136 117.156 37.0793 117.156 36.0957V35.8499C117.205 34.8663 116.959 33.932 116.517 33.0468C116.074 32.26 115.238 31.7682 114.353 31.8665C113.468 31.8174 112.632 32.26 112.189 33.0468C111.746 33.932 111.501 34.9155 111.55 35.8499ZM128.516 31.9157C127.581 31.8665 126.647 32.3583 126.204 33.2435V42.7838H122.565V29.211H125.959L126.106 30.7847C127.04 29.6044 128.467 28.9159 129.991 28.9651C131.171 28.9159 132.302 29.3094 133.138 30.0962C133.925 30.883 134.319 32.2108 134.319 34.1287V42.7838H130.68V34.1287C130.68 33.2435 130.483 32.6534 130.139 32.3583C129.647 32.0141 129.057 31.8665 128.516 31.9157ZM144.056 38.9972C144.056 38.6038 143.859 38.2103 143.515 38.0136C142.826 37.6202 142.039 37.3743 141.302 37.276C140.072 37.0301 138.892 36.5875 137.859 35.899C136.974 35.3089 136.433 34.2762 136.482 33.1943C136.482 32.0633 137.023 30.9814 137.909 30.2437C138.892 29.4077 140.171 28.9651 141.892 28.9651C143.613 28.9651 145.039 29.3585 146.072 30.1945C147.055 30.9322 147.596 32.1124 147.596 33.3418H143.957C143.957 32.8501 143.81 32.4075 143.465 32.0633C143.023 31.719 142.482 31.5223 141.892 31.5715C141.4 31.5223 140.908 31.6698 140.466 31.9649C140.171 32.2108 139.974 32.6042 139.974 32.9976C139.974 33.391 140.171 33.7844 140.515 33.9811C141.105 34.3254 141.793 34.5221 142.482 34.6204C143.761 34.8663 144.99 35.3089 146.121 35.9482C147.105 36.5383 147.596 37.5219 147.596 38.8496C147.596 40.0299 147.006 41.1118 146.072 41.8002C145.039 42.5871 143.662 42.9805 141.892 42.9805C140.023 42.9805 138.548 42.4887 137.564 41.5052C136.63 40.7184 136.089 39.5873 136.04 38.4071H139.482C139.482 38.9972 139.777 39.5873 140.269 39.9315C140.761 40.2266 141.351 40.4233 141.99 40.3741C143.318 40.4725 144.056 39.9807 144.056 38.9972Z" fill="black"/>
<path d="M43.3417 40.8658C41.9156 41.5543 40.3419 41.751 38.7683 41.4068C37.6864 41.1609 36.7028 40.8166 35.7193 40.374L33.5555 39.4889C31.6868 38.8987 29.6706 38.8496 27.7527 39.3413H27.556C25.6381 38.8004 23.6218 38.8496 21.7531 39.4889C21.0155 39.7348 20.327 40.079 19.5893 40.374C18.6058 40.8166 17.5731 41.2101 16.5404 41.4559C15.0159 41.8002 13.3931 41.6035 11.967 40.915L11.7702 40.8166C11.7211 40.8166 11.7211 40.8166 11.7211 40.8658C12.6554 41.8493 13.8848 42.5378 15.1634 42.8821C16.0486 43.1279 16.983 43.1771 17.8682 43.0788C19.2451 42.8821 20.5729 42.3903 21.7039 41.6035L23.7694 40.2265C24.5562 39.7348 25.4906 39.538 26.3757 39.7348C26.8675 39.7839 26.4741 40.0298 26.4249 40.079C25.1955 40.6691 24.0153 41.4068 22.9334 42.2428C22.1957 42.7837 20.8679 44.0623 20.8679 44.0623L21.8515 44.8983L22.9334 43.7181C24.2611 42.3411 25.7856 41.1609 27.4576 40.2265C27.6052 40.1282 27.7527 40.1282 27.9002 40.2265C29.5722 41.1609 31.0967 42.3411 32.4245 43.7181L33.5064 44.8983L34.4899 44.0623L32.4245 42.2428C31.3426 41.4068 30.1623 40.6691 28.9329 40.079C28.8346 40.0298 28.4903 39.7839 28.9821 39.7348C29.8673 39.538 30.8016 39.7348 31.5885 40.2265L33.6539 41.6035C34.785 42.3903 36.1127 42.8821 37.4897 43.0788C38.3749 43.1771 39.3092 43.1279 40.1944 42.8821C41.473 42.4886 42.7024 41.8002 43.6368 40.8658C43.6368 40.8658 43.5876 40.8166 43.5384 40.8166L43.3417 40.8658ZM48.161 36.5874C47.5217 37.0792 46.8333 37.4234 46.0956 37.6693C45.0629 37.9644 43.9318 38.1611 42.8499 38.1611C41.4238 38.2103 40.0469 38.3086 38.6207 38.5053C38.5224 38.5053 38.4732 38.5053 38.5224 38.4562C39.7518 37.9644 40.7353 36.9809 41.2763 35.8006L42.6532 32.9975V32.8992C42.5549 32.9484 41.1779 34.1286 40.5386 34.7187L38.2273 36.9809C37.1946 37.866 35.9652 38.5053 34.6374 38.8496H34.5882L34.5391 38.8987L37.1946 39.538C38.3257 39.8823 39.5059 40.079 40.6862 40.1773C43.6859 40.4724 46.5874 39.0955 48.2594 36.6366C48.2594 36.5874 48.2102 36.5874 48.161 36.5874ZM52.4886 29.9978C51.8001 30.8338 50.9641 31.5714 50.0297 32.1615C49.2429 32.7025 48.4069 33.1451 47.5217 33.5385C46.3907 33.9811 45.358 34.6204 44.4236 35.358L44.2269 35.5055C44.1777 35.5055 44.1777 35.5056 44.1777 35.4564C44.1777 35.4072 45.653 33.9319 46.0956 30.8338C46.1448 29.7027 46.3415 28.6208 46.5874 27.5389V27.4406C45.5547 28.7192 44.7678 30.1453 44.2269 31.6698L43.3417 34.1778C42.9975 35.3088 42.3582 36.3416 41.5222 37.1776L41.4238 37.2759V37.3251C41.5222 37.3251 41.6205 37.2759 41.7189 37.2759L44.5711 36.6858C46.1448 36.4399 47.6201 35.8006 48.8987 34.8663C50.2264 33.9319 51.2592 32.6533 51.9968 31.2272C52.1935 30.8338 52.341 30.4403 52.4886 30.0469C52.5869 29.9486 52.5378 29.9486 52.4886 29.9978ZM54.3573 22.6212C53.9147 23.949 53.1279 25.1784 52.0952 26.162C50.9149 27.293 49.833 28.5716 48.8495 29.8502C48.8495 29.8994 48.7511 29.8502 48.8003 29.801C49.1937 28.4733 49.2921 27.0472 49.0954 25.621C48.8987 24.4408 48.4069 23.1622 48.2594 21.7361L48.2102 21.6869C48.2102 21.7361 48.161 21.7852 48.161 21.8344C47.866 22.7688 47.6693 23.7031 47.5709 24.6867C47.5217 25.8669 47.7184 27.3914 47.6201 28.5716C47.5217 29.9486 47.4234 31.3747 46.7841 32.6041V32.7025L49.7347 30.8829C50.9641 30.0961 51.9968 29.1126 52.8328 27.9323C53.9147 26.4079 54.4556 24.6375 54.4556 22.7688V22.5721C54.4065 22.5721 54.3573 22.6212 54.3573 22.6212Z" fill="#009EDB"/>
<path d="M51.21 23.4081C51.2592 23.4081 51.2592 23.4081 51.21 23.4081C51.21 23.0147 51.21 22.6212 51.1609 22.2278C51.0625 20.8509 50.2265 19.7198 49.4889 18.5396C48.9971 17.8019 48.5545 17.0151 48.1611 16.1791C48.1611 16.1791 48.1119 16.1299 48.0627 16.1299C48.0627 16.2283 48.0627 16.6709 48.1119 16.9167C48.3578 18.8838 48.8496 20.8509 49.5872 22.7196C50.0298 23.8998 50.1773 25.1293 50.079 26.3587C50.079 26.457 50.079 26.457 50.1282 26.5062C50.5707 25.8669 51.4559 24.9817 51.9969 24.2933C52.5378 23.6048 55.4884 20.2608 54.0623 15.6382C54.0131 15.4414 53.9148 15.2447 53.8164 15.048L53.7672 15.0972C53.7672 18.4412 52.1444 19.8674 51.5051 22.1295C51.3576 22.6704 51.2592 23.0638 51.21 23.4081ZM51.2592 16.5233L50.9642 15.7365L50.7675 15.2939C50.2757 14.4087 49.5872 13.6219 48.7512 13.0318C48.0627 12.4417 47.4726 11.8024 46.9808 11.0647H46.8333C46.8825 11.2122 47.3251 12.6875 47.6201 13.376C48.1119 14.3104 48.702 15.2447 49.3905 16.0316L49.538 16.2283C50.374 17.3593 51.0133 18.5888 51.4559 19.9165C51.4559 19.9657 51.5051 19.9657 51.5051 19.9657L52.3411 17.4085C52.6362 16.5233 52.8821 15.589 53.0788 14.6546C53.3738 12.4417 52.6853 9.63859 51.4068 8.06494C51.4068 8.06494 51.3576 8.11411 51.3576 8.16329L51.4068 8.36L51.5051 8.65506C51.751 9.8353 51.8002 11.1139 51.5543 12.2941C51.3576 13.2285 51.3084 14.212 51.3084 15.1956C51.3084 15.3431 51.4068 16.5725 51.4068 16.6217C51.4068 16.6709 51.3576 16.6217 51.3084 16.6217M47.3251 4.17998C47.7185 4.57339 48.0627 5.01598 48.2594 5.55692C48.6037 6.39293 48.702 7.62235 48.9479 8.5567L49.3905 10.1795C49.3905 10.2287 49.3413 10.2779 49.2922 10.2287C48.5545 9.34353 47.6693 8.60588 46.6366 8.01576C45.9481 7.62235 45.4072 7.0814 44.9154 6.49128L44.6695 6.14704C44.6695 6.14704 44.6204 6.09787 44.5712 6.14704V6.29457C44.8171 7.37646 45.3088 8.40917 46.0957 9.24518C46.735 9.8353 47.4234 10.3762 48.0627 10.9172C48.8987 11.6057 49.6856 12.4417 50.4232 13.2777C50.4232 13.2777 50.4724 13.3268 50.4724 13.2777V12.4908L50.5216 10.1304V9.34353C50.5216 8.5567 50.374 7.7207 50.079 6.98305C49.5872 5.75363 48.6529 4.7701 47.5218 4.17998C47.4726 4.1308 47.3743 4.1308 47.2759 4.08162C47.2759 4.08162 47.2759 4.1308 47.3251 4.17998ZM42.2599 1.86867C42.9484 2.50797 43.5385 3.24562 44.0794 4.03244C44.5712 4.81927 45.1121 5.50775 45.8006 6.14704C46.2432 6.58964 47.571 7.62235 47.9152 7.91741C47.866 7.52399 47.2267 4.72092 45.5055 3.34397C44.522 2.55714 43.3418 1.96702 42.1124 1.67196V1.77032L42.2599 1.86867ZM14.7209 40.1773C15.852 40.079 17.0322 39.8823 18.1141 39.538L20.7697 38.8987H20.8188C20.8188 38.8987 20.8188 38.8496 20.7697 38.8496H20.7205C19.3927 38.5053 18.1633 37.866 17.0814 36.9809L14.7701 34.7679L12.6555 32.9484V33.0467C12.8522 33.3418 13.5899 34.9646 14.0324 35.8498C14.5734 37.0792 15.5569 38.0136 16.7863 38.5053C16.8355 38.5545 16.7863 38.5545 16.688 38.5545C15.311 38.3578 13.8849 38.2595 12.4588 38.2103C11.3769 38.2103 10.2458 38.0136 9.21312 37.7185C8.47547 37.4726 7.787 37.1284 7.1477 36.6366H7.04935C8.03288 38.0136 9.40983 39.0955 10.9835 39.6856C12.2129 40.079 13.4423 40.2265 14.7209 40.1773ZM13.5899 37.2759C13.6882 37.2759 13.7374 37.3251 13.8849 37.3251V37.2759L13.7866 37.1776C12.9506 36.3416 12.3604 35.3088 11.967 34.1778L11.0818 31.6698C10.5409 30.1453 9.75407 28.7192 8.72136 27.4406V27.5389C9.01642 28.6208 9.16395 29.7027 9.2623 30.8338C9.70489 33.8827 11.1802 35.358 11.1802 35.4072C11.1802 35.4564 11.1802 35.5056 11.131 35.4564L10.9343 35.3088C9.99995 34.5712 8.96724 33.9319 7.83617 33.4893C6.95099 33.0959 6.11499 32.6533 5.32816 32.1124C4.3938 31.5222 3.5578 30.7846 2.86933 29.9486H2.82015C2.96768 30.342 3.11521 30.7354 3.31192 31.1288C4.04957 32.5549 5.13145 33.8335 6.45923 34.7679C7.73782 35.7514 9.21312 36.3907 10.7868 36.5874C11.7211 36.8333 12.6555 37.0792 13.5899 37.2759ZM5.6724 30.8829L8.623 32.7025C8.623 32.7025 8.67218 32.6533 8.67218 32.6041C8.03288 31.3255 7.93453 29.9486 7.83617 28.5716C7.73782 27.3422 7.93453 25.8669 7.88535 24.6867C7.787 23.7031 7.59029 22.7196 7.29523 21.7852C7.29523 21.7361 7.24605 21.6869 7.24605 21.6377L7.19688 21.6869C7.09852 23.113 6.55758 24.3916 6.36087 25.5719C6.16417 26.9488 6.26252 28.3749 6.65593 29.7519C6.70511 29.8011 6.60676 29.8502 6.60676 29.8011C5.62322 28.4733 4.54133 27.2439 3.36109 26.1128C2.32838 25.1293 1.54155 23.949 1.09896 22.6212C1.09896 22.6212 1.04979 22.5721 1.00061 22.5721C0.951433 22.5721 1.00061 22.6704 1.00061 22.7688C1.00061 24.5883 1.54155 26.4079 2.62344 27.9323C3.41027 29.0634 4.44298 30.0961 5.6724 30.8829ZM5.13145 26.5554C5.18063 26.5062 5.18063 26.5062 5.18063 26.4079C5.08228 25.1784 5.22981 23.8998 5.72158 22.7688C6.41005 20.9001 6.90182 18.9822 7.19688 16.9659C7.19688 16.72 7.24605 16.2775 7.24605 16.1791C7.19688 16.1791 7.19688 16.1791 7.19688 16.2283C6.80346 17.0643 6.36087 17.8511 5.86911 18.5888C5.08228 19.6706 4.29545 20.8509 4.1971 22.2278C4.14792 22.6212 4.14792 23.0147 4.1971 23.4081C4.1971 23.4081 4.1971 23.4573 4.14792 23.4573V23.4081L3.80368 22.2278C3.11521 19.9657 1.54155 18.5396 1.54155 15.1956L1.49238 15.1464C1.39402 15.3431 1.34485 15.5398 1.24649 15.7365C-0.179632 20.3591 2.72179 23.7031 3.31192 24.3916C3.90204 25.0801 4.68886 25.9161 5.13145 26.5554ZM3.06603 17.3593L3.90204 19.9165C3.90204 19.9165 3.95121 19.9165 3.95121 19.8674C4.3938 18.5396 5.08228 17.3102 5.86911 16.1791L6.01664 15.9824C6.70511 15.1464 7.29523 14.2612 7.787 13.3268C8.08206 12.6384 8.52465 11.1631 8.57383 11.0155H8.4263C7.93453 11.7532 7.34441 12.3925 6.65593 12.9826C5.81993 13.5727 5.08228 14.3596 4.59051 15.2939C4.54133 15.4414 4.44298 15.589 4.3938 15.7365L4.09874 16.5725C4.09874 16.5725 4.04957 16.6709 4.04957 16.5725C4.04957 16.4742 4.14792 15.3431 4.14792 15.1464C4.14792 14.1629 4.04957 13.1793 3.85286 12.245C3.60698 11.0155 3.65615 9.78612 3.90204 8.60588C3.90204 8.50753 3.95121 8.40917 4.00039 8.31082C4.00039 8.26164 4.04957 8.16329 4.04957 8.11411C4.04957 8.06494 4.04957 8.06494 4.00039 8.01576C2.7218 9.58942 1.98414 12.4417 2.2792 14.6054C2.52509 15.5398 2.77097 16.4742 3.06603 17.3593ZM4.83639 10.1795L4.88557 12.54V13.2777H4.93475C5.62322 12.3925 6.41005 11.6057 7.24605 10.868L9.21312 9.196C9.99995 8.36 10.4917 7.32729 10.7376 6.2454V6.09787H10.6884L10.4425 6.44211C9.99995 7.03223 9.40983 7.57317 8.77053 7.96658C7.59029 8.70423 6.80346 9.24518 6.11499 10.1795C6.06581 10.2287 6.01664 10.2287 6.06581 10.1304L6.5084 8.50753C6.75429 7.57317 6.85264 6.34375 7.19688 5.50775C7.39358 5.01598 7.73782 4.52421 8.13124 4.1308V4.03244C8.03288 4.03244 7.9837 4.08162 7.88535 4.1308C6.65593 4.7701 5.77075 5.80281 5.27898 6.98305C4.98392 7.7207 4.78722 8.50753 4.83639 9.34353V10.1795ZM7.44276 7.86823L9.60654 6.09787C10.2458 5.45857 10.836 4.7701 11.3277 3.98327C11.8195 3.19644 12.4588 2.45879 13.1473 1.81949L13.2948 1.67196V1.57361C12.0654 1.86867 10.8851 2.40961 9.9016 3.24562C8.08206 4.67174 7.49194 7.47482 7.44276 7.86823ZM27.2118 23.113C27.3593 22.9163 27.0151 22.7688 26.9167 23.113C26.8184 23.4573 27.0643 23.3589 27.2118 23.113ZM30.9492 14.4579C30.8017 14.4087 30.2608 15.048 30.3591 15.1464C30.605 14.9989 30.8017 14.753 30.9492 14.4579ZM31.0476 14.3596C31.1459 14.4087 31.4902 14.212 31.441 14.1629C31.3918 14.1137 30.9492 13.917 30.9492 14.0153C30.9492 14.212 30.9984 14.3104 31.0476 14.3596ZM37.6864 20.4575C37.8832 20.4083 37.834 20.1132 37.6864 20.1132C37.5389 20.1132 37.3422 20.3591 37.3914 20.3591C37.4406 20.3591 37.5881 20.5066 37.6864 20.4575ZM35.2768 13.917C35.1293 13.917 35.0801 14.0645 35.2276 14.1629C35.3751 14.212 35.4735 14.1629 35.5718 14.1137C35.6702 14.0645 35.7686 13.9661 35.7686 13.8186C35.7686 13.6711 35.5718 13.4744 35.6702 13.376C35.7686 13.2777 35.9161 13.4252 36.0144 13.376C36.1128 13.3268 36.162 13.2285 36.162 13.1301C36.162 13.0318 36.1128 12.7367 35.9161 12.7367C35.7194 12.7367 35.5227 13.1301 35.5227 13.1301C35.4735 13.2285 35.4735 13.376 35.5227 13.4744C35.5718 13.6711 35.5227 13.917 35.2768 13.917ZM38.5225 13.9661C38.5225 14.0645 38.7683 14.7038 38.8175 14.8513C38.8667 14.9989 38.9159 15.5398 39.0142 15.4906C39.1126 15.4414 39.1126 15.1464 39.0634 14.9989C39.0142 14.6546 38.9159 14.2612 38.8175 13.9661C38.7683 13.7694 38.4241 13.0318 38.3257 13.081C38.2274 13.1301 38.4733 13.5727 38.5225 13.7694C38.5716 13.9661 38.4733 13.8678 38.5225 13.9661ZM36.8013 5.6061C36.9488 5.65528 36.9488 5.36022 36.7029 5.16351C36.457 4.9668 36.0636 5.06516 36.162 5.16351C36.3587 5.31104 36.5554 5.50775 36.8013 5.6061ZM29.4248 3.4915C29.0805 3.29479 29.3756 2.99973 29.1297 2.80303C28.8346 2.70467 28.5396 2.75385 28.3429 2.95056C28.097 3.24562 28.6379 3.14726 28.7855 3.24562C28.933 3.34397 29.4248 3.68821 29.4739 3.63903C29.5231 3.58985 29.4739 3.4915 29.4248 3.4915ZM31.3918 2.50797C30.9492 2.31126 29.3264 2.31126 29.3756 2.75385C29.4248 3.19644 30.3099 2.75385 30.5558 2.75385C30.8017 2.75385 31.7852 2.70467 31.3918 2.50797ZM26.9167 21.4902C26.8184 21.441 26.6709 21.5394 26.6217 21.441C26.5725 21.3427 26.4742 21.3918 26.4742 21.441C26.4742 21.4902 26.425 21.5885 26.5233 21.6869C26.6217 21.7852 26.8184 21.7852 26.9167 21.6869C26.9659 21.6377 26.9659 21.5394 26.9167 21.4902ZM25.9824 18.1953C26.1299 18.1953 26.1299 18.097 26.1791 18.097C26.2283 18.097 26.1791 18.1953 26.3266 18.1953C26.4742 18.1953 26.6217 17.8511 26.1791 17.8511C25.8349 17.8511 25.884 18.1953 25.9824 18.1953ZM26.5725 18.5888C26.3266 18.5396 26.3758 18.6871 26.1791 18.6871C25.884 18.7363 26.1299 18.4904 26.0316 18.3921C25.9824 18.3429 25.8349 18.5888 25.7857 18.7363C25.7857 18.8346 25.7857 19.0313 25.884 19.0805L26.8184 19.1789C27.0151 19.1789 26.8184 18.6379 26.5725 18.5888ZM23.5235 21.7852C23.6219 21.7852 23.6711 21.4902 23.6219 21.3427C23.5727 21.1951 23.2777 21.2935 23.2777 21.3918C23.2777 21.4902 23.4744 21.7852 23.5235 21.7852ZM19.5894 21.7852C19.5894 21.6869 19.5894 21.2935 19.4911 21.1951C19.3927 21.0968 19.3927 21.2443 19.3435 21.2443C19.2944 21.2443 19.2944 21.0476 19.2452 21.0476C19.196 21.0476 19.2452 21.3427 19.3435 21.5394C19.4419 21.7361 19.5894 22.0311 19.5894 21.7852ZM19.4911 20.9001C19.5894 20.605 19.6386 20.3099 19.6386 20.0149C19.6386 19.769 19.4911 19.5723 19.4419 19.5723C19.3927 19.5723 19.4419 19.7198 19.4911 19.9657C19.4911 20.2116 19.3927 20.4575 19.3435 20.7034C19.3435 20.7525 19.4419 20.9984 19.4911 20.9001Z" fill="#009EDB"/>
<path d="M14.4749 31.9157C21.8023 39.243 33.6047 39.243 40.932 31.9157C48.2593 24.5884 48.2593 12.786 40.932 5.45863C33.6047 -1.8687 21.8023 -1.8687 14.4749 5.45863C7.1476 12.786 7.1476 24.6376 14.4749 31.9157ZM9.80314 19.0806H12.6554C12.7046 20.5559 12.9505 21.982 13.393 23.359C13.2455 23.3098 13.098 23.2606 12.9505 23.1623C12.7537 23.0639 12.6062 23.2114 12.557 23.2114C12.3603 23.2114 12.1144 23.0639 12.1144 23.2114C12.1144 23.359 12.3112 23.2606 12.3112 23.359C12.3112 23.4573 11.8194 23.4573 11.7702 23.2606C11.721 23.0639 11.6227 22.8672 11.5735 23.1131C11.5243 23.359 11.3276 23.3098 11.2293 23.359C11.1801 23.4081 11.1309 23.5065 11.1309 23.6048C11.1309 23.7032 10.885 23.654 10.885 23.8016C10.885 23.9491 11.0326 23.9983 11.0817 24.1458C11.1309 24.2933 11.2784 24.3917 11.1801 24.4409C11.0817 24.49 11.1309 24.3917 11.0326 24.4409C10.9342 24.49 11.4751 25.9653 11.5735 25.9162C11.6719 25.867 11.426 25.4244 11.426 25.2277C11.426 25.031 11.4751 24.9818 11.6227 24.8834C11.7702 24.7851 12.1636 25.4736 12.3112 25.3752C12.4587 25.2769 12.262 25.1785 12.4095 25.1293C12.557 25.0802 12.9996 25.7686 13.1472 25.5719C13.2455 25.4244 13.3439 25.6703 13.3439 25.7194C13.4914 25.9653 13.7373 25.9653 13.8848 26.2604C14.0323 26.5555 14.3766 27.0964 14.6225 27.0964C14.8683 27.0964 14.7208 26.8505 14.8192 26.8505C14.9175 26.8505 15.0159 27.1948 15.1634 27.3915C15.2618 27.539 15.4093 27.6373 15.606 27.6865C15.9502 28.1291 16.3436 28.5717 16.7371 29.0143L14.7208 31.0305C11.6227 27.8832 9.85232 23.6048 9.80314 19.0806ZM26.0806 14.9989L25.8839 15.0973C25.5889 15.2448 25.343 15.3923 25.1463 15.589L23.13 13.5728C24.3103 12.5401 25.7856 11.9008 27.3101 11.8516V14.7039C26.9658 14.753 26.6216 14.8022 26.2773 14.9497C26.3757 14.753 26.5724 14.5563 26.5724 14.5563C26.5724 14.5563 26.2282 14.753 26.0806 14.9989ZM24.5562 19.6707V19.7691C24.5562 19.6707 24.507 19.6215 24.4578 19.5232C24.4086 19.474 24.3595 19.4248 24.3103 19.4248H24.0644L23.966 19.474H23.2776C23.1792 19.474 23.13 19.474 23.13 19.4248C23.0809 19.2281 23.3759 19.3757 23.5726 18.7855C23.6218 18.7364 23.6218 18.638 23.671 18.5888L23.7202 18.4905L23.7693 18.4413L23.8185 18.3921C23.9169 18.2938 24.0152 18.2938 24.1136 18.2938H24.2119L24.3103 18.3921L24.4578 18.6872C24.507 18.7364 24.5562 18.7364 24.5562 18.7855C24.6545 18.8347 24.7037 18.8839 24.7529 18.9331L24.802 18.9822V19.0314C24.8512 19.0806 24.8512 19.0806 24.9004 19.0806H25.0971C25.1955 19.0314 25.1955 19.0806 25.2446 19.0806V19.1298C25.2446 19.1789 25.2446 19.1789 25.1955 19.2281C25.1955 19.2773 25.1463 19.2773 25.1463 19.3265C25.0971 19.3756 25.0479 19.4248 24.9988 19.4248C24.9004 19.4248 24.802 19.3757 24.7529 19.3757C24.7037 19.3757 24.6545 19.3756 24.6545 19.4248V19.6707M19.2451 24.3917C19.0975 24.1458 19.0484 23.8016 19.0484 23.5065C19.0484 23.2114 18.95 22.9164 18.8025 22.6705C18.7533 22.4738 18.7041 22.2771 18.7041 22.0804C18.7041 21.7361 18.4091 21.8345 18.4091 21.7361C18.4091 21.6378 18.655 21.7361 18.655 21.6378C18.655 21.5394 18.3599 21.146 18.114 21.0477C17.8681 20.9493 17.9665 20.8018 17.9665 20.6542C17.9665 20.5067 17.9665 20.3592 17.8681 20.2608C17.8189 20.0641 17.8681 19.7199 18.114 19.7199C18.2124 19.7199 18.3599 19.8182 18.5074 19.7199C18.655 19.6215 18.5566 19.3265 18.5566 19.0806H19.9335C19.9335 19.2773 19.9827 19.5232 19.9827 19.7199C19.8844 19.7691 19.8352 19.8674 19.8844 19.9166C19.9335 19.9658 19.9827 20.0149 20.0319 19.9658C20.2778 21.3919 20.9171 22.7197 21.9006 23.8016L19.8844 25.8178C19.7368 25.6703 19.5893 25.4736 19.4418 25.2769V25.1293C19.4418 24.7851 19.1959 24.5884 19.0975 24.2933M17.3272 20.9493C17.1797 20.3592 17.1305 19.7199 17.0813 19.0806H18.2615C18.1632 19.2281 17.9173 19.3757 17.8681 19.5232C17.8189 19.6707 17.5239 20.1625 17.7206 20.3592C18.1632 20.851 17.6222 21.0477 17.3272 20.9493ZM17.5731 28.2275L17.3272 28.4733L16.9829 28.1291C17.1797 28.0308 17.3764 28.0799 17.5731 28.2275ZM20.622 15.589C20.5728 15.589 20.5728 15.6382 20.5237 15.6382C20.3761 15.7857 19.9827 15.7366 20.0319 15.8841C20.0811 16.0316 21.1138 15.5399 21.1138 15.6382C21.1138 15.7366 20.6712 15.8841 20.3761 16.0316C20.0811 16.1792 19.9827 16.425 19.491 16.425C19.2451 16.425 19.1467 16.6218 19.0484 16.7693C18.9008 16.966 18.8025 17.1627 18.7041 17.3594C18.7041 17.6545 18.655 17.9495 18.5074 18.2446H17.0813C17.1797 15.7366 18.1632 13.3269 19.8844 11.4582L21.9006 13.4744C21.4088 14.1629 20.9663 14.8514 20.622 15.589ZM22.4907 14.1137L24.2611 15.8841H24.0644C23.8677 15.8841 23.8677 15.7366 23.7202 15.7366C23.4251 15.7857 23.3759 15.8841 23.3267 15.8349C23.13 15.6382 22.8842 15.4907 22.5891 15.3432C22.2449 15.2448 21.9006 15.2448 21.6056 15.3923C21.5564 15.3923 21.5564 15.4415 21.5072 15.4415C21.8514 14.9989 22.1957 14.5563 22.4907 14.1137ZM20.0319 17.7036C20.0319 17.9003 19.9827 18.0971 19.9827 18.2938H18.95C18.9008 18.1462 18.95 17.9987 19.0484 17.8512C19.1467 17.6545 19.3926 17.5561 19.6385 17.6053C19.7368 17.6053 19.8844 17.6545 20.0319 17.7036ZM20.9171 20.0149L21.0154 20.1625C21.1138 20.2608 21.2121 20.3592 21.3105 20.31C21.4088 20.2608 21.6547 20.31 21.7039 20.31C21.8514 20.3592 21.9498 20.4575 22.0481 20.5559C22.1465 20.7034 22.3432 20.6051 22.4907 20.7034C22.6383 20.8018 22.7858 20.9001 22.5891 20.9985C22.3924 21.0968 22.7858 21.2935 22.835 21.2935C22.8842 21.2935 22.9333 21.1952 22.9333 21.0477C22.9333 20.9985 23.0317 20.8018 23.1792 20.851C23.3267 20.9001 23.7693 21.4411 23.9169 21.2444C24.0644 21.0477 23.966 20.8018 24.0152 20.7034C24.0152 20.6542 24.0644 20.6051 24.1136 20.6051C24.2611 20.851 24.3595 21.0477 24.5562 21.2444L22.5399 23.2606C21.7039 22.3754 21.1138 21.2444 20.9171 20.0149ZM22.4907 12.9827L20.5237 10.9664C22.3924 9.24524 24.802 8.26171 27.3101 8.16335V11.0156C25.5397 11.0648 23.8677 11.7533 22.4907 12.9827ZM19.9335 10.3763L17.9173 8.36006C20.4745 5.9504 23.8185 4.57345 27.3101 4.4751V7.32735C24.5562 7.4257 21.9006 8.50759 19.9335 10.3763ZM19.3434 10.9173C17.4747 12.9335 16.3928 15.5399 16.2945 18.2938H13.4422C13.5406 14.8022 14.9175 11.4582 17.3272 8.90101L19.3434 10.9173ZM16.2945 19.0806C16.2945 19.6215 16.3436 20.1133 16.442 20.6542C16.3928 20.6542 16.3928 20.5067 16.2453 20.5559C16.0978 20.6051 15.5568 21.5394 15.3109 21.9328C15.1142 22.2771 15.4093 23.0147 15.1142 23.2606C14.8192 23.359 14.5241 23.4081 14.229 23.4081H14.1799C13.6881 22.0312 13.4422 20.6051 13.393 19.1789L16.2945 19.0806ZM27.2609 36.5875C22.7858 36.4892 18.5074 34.7188 15.3109 31.6207L17.3272 29.6044C20.0319 32.1616 23.5726 33.6369 27.2609 33.7353V36.5875ZM27.2609 32.9484C23.7693 32.8501 20.4253 31.4731 17.8681 29.0635L18.2124 28.7192C18.2615 28.7684 18.3599 28.8176 18.4582 28.8668C18.655 28.9651 18.9008 29.0143 19.1467 28.9651C19.3434 28.9159 19.7368 28.5717 19.9827 28.5717C20.2286 28.5717 20.622 28.6701 20.8679 28.5225C21.1138 28.375 20.7204 27.8832 20.5728 27.6373C20.5237 27.5882 20.5237 27.539 20.4745 27.4898C22.3924 29.1126 24.8512 30.047 27.3592 30.0962L27.2609 32.9484ZM27.2609 29.2602C24.7529 29.1618 22.3432 28.1783 20.4745 26.4571L22.4907 24.4409C23.4251 25.2769 24.5562 25.9162 25.8348 26.2112C25.3922 26.4079 25.1955 26.703 25.2446 26.9489C25.2938 27.1947 24.9496 27.3423 24.9496 27.6373C24.9496 27.9324 25.343 28.1291 25.3922 28.4242C25.4413 28.5717 25.7856 28.8176 26.0806 29.0143C26.4741 29.1126 26.8675 29.1618 27.2117 29.1126L27.2609 29.2602ZM27.1625 25.326C27.015 25.2277 26.9166 25.4244 26.7199 25.5227C25.343 25.326 24.1136 24.7359 23.0809 23.8507L25.0971 21.8345C25.7364 22.3263 26.4741 22.6705 27.2609 22.7197C27.2609 22.818 27.3592 22.9164 27.3592 23.1131C27.3592 23.3098 27.2117 23.4081 27.2609 23.5065C27.3101 23.6048 27.7526 23.5065 27.8018 23.359C27.851 23.2114 27.6543 23.1131 27.6051 22.9656C27.5559 22.8672 27.5559 22.818 27.5068 22.7197H27.6543C27.8018 22.7197 27.9494 22.7197 28.0969 22.6705C28.1461 22.6705 28.1952 22.6213 28.1952 22.5721C28.1952 22.523 28.2444 22.4738 28.2444 22.4246C28.2444 22.3754 28.2936 22.3754 28.2936 22.3263L28.3428 22.3754C28.3919 22.4738 28.4903 22.7688 28.5887 22.7197C28.687 22.6705 28.7362 22.2279 28.687 22.1295C28.5887 21.982 28.5887 21.8345 28.687 21.687C28.687 21.6378 28.7362 21.3427 28.8345 21.3919C28.9329 21.4411 28.8345 21.687 28.8345 21.7853C28.8345 21.9328 28.9329 22.1295 29.0804 22.0312C29.1788 21.982 29.2771 21.8345 29.3755 21.8837C29.4738 21.9328 29.1296 22.0312 29.0804 22.1295C29.0312 22.2279 29.2279 22.2771 29.1788 22.3263C29.1296 22.3754 29.0804 22.3263 29.0312 22.3754C28.9821 22.4246 29.1296 22.7197 29.0312 22.7688C28.9329 22.818 28.5887 22.9164 28.4903 22.9656C28.3919 23.0147 28.2936 22.9164 28.3428 22.8672C28.3919 22.818 28.3428 22.6213 28.2444 22.6213C28.1461 22.6213 28.1461 22.6705 28.1461 22.7688C28.1461 22.8672 28.2444 23.0147 28.2444 23.0639C28.2444 23.1131 28.0969 23.1623 27.9985 23.2114C27.9002 23.359 27.7526 23.5065 27.6051 23.6048C27.4576 23.7032 27.1625 23.7032 27.1625 23.8016C27.1625 23.8999 27.3101 23.8999 27.3592 23.9491C27.4576 24.0966 27.5068 24.2933 27.3101 24.3917C27.1133 24.49 26.8675 24.2441 26.7691 24.2933C26.6708 24.3425 26.6216 24.5884 26.5724 24.8834C26.5232 25.1785 27.1134 25.2769 27.4084 25.1293C27.6051 25.031 27.5559 24.7359 27.7526 24.6376C27.9494 24.5392 27.9002 24.3425 28.0969 24.3917C28.2936 24.4409 28.2444 24.2441 28.4411 24.2441C28.6378 24.2441 28.6378 24.3917 28.8837 24.4409C29.2771 24.5392 29.2771 24.8343 29.3263 24.6867C29.3755 24.5392 29.4247 24.4409 29.1296 24.3425C28.8345 24.2441 28.687 23.8999 28.9329 23.9983C29.2279 24.1458 29.4738 24.1458 29.523 24.2933C29.5722 24.4409 29.8672 24.3917 29.9164 24.5392C29.9656 24.7851 30.1623 24.5392 30.0148 24.3917C29.8672 24.2441 29.9164 24.195 30.0148 24.0966C30.1131 23.9983 30.1623 24.1458 30.3098 23.9491C30.4574 23.7524 30.2607 23.8016 30.2115 23.7032C30.1623 23.6048 30.2115 23.0639 30.4082 23.1623C30.6049 23.2606 30.8016 23.1131 30.7033 23.0639C30.6049 23.0147 30.7524 22.7197 30.8016 22.7197C30.8508 22.7197 30.8016 22.9164 30.8508 22.9656C30.9 23.0147 31.3917 22.818 31.4409 23.0639C31.4901 23.3098 31.0967 23.4573 30.9983 23.4573C30.8016 23.4573 30.6541 23.654 30.5065 23.8507C30.359 24.0474 30.2115 24.0966 30.3098 24.2933C30.4082 24.49 30.6049 24.4409 30.8016 24.3425C30.9983 24.2441 31.1458 24.0966 31.2442 24.0474C31.4409 23.9491 31.5884 24.5392 31.4901 24.6376C31.3917 24.7359 31.195 24.7851 31.0967 24.8834C30.8016 25.031 30.5065 25.1785 30.1623 25.1785C29.9656 25.2277 29.9656 25.2769 29.9164 25.4736C29.8672 25.6703 28.9821 25.5227 28.7854 25.5227C28.5887 25.5227 28.9329 25.0802 28.6378 25.1293L27.7526 25.2769C27.7035 25.2769 27.4084 25.5227 27.1625 25.326ZM29.7689 29.8995C30.0148 29.9978 30.2607 30.1945 30.4082 30.3912C30.5557 30.6371 30.6049 30.7355 30.5065 30.9814C30.2607 31.4239 30.359 31.719 30.8508 31.8665C31.1458 31.9649 31.2442 32.26 31.4409 32.4567C30.359 32.7517 29.228 32.8992 28.0969 32.9484V30.0962C28.6378 30.047 29.2279 29.9978 29.7689 29.8995ZM28.0969 29.3093V28.9651C28.7362 28.8668 28.5887 29.2602 29.0312 29.1126C29.1788 29.0635 29.3263 29.1126 29.4247 29.211C28.9821 29.211 28.5395 29.2602 28.0969 29.3093ZM28.0969 36.6367V33.7353C29.5722 33.6861 31.0475 33.4402 32.4736 32.9484C32.5228 32.9976 32.572 32.9976 32.6211 32.9976C32.8179 32.9976 33.0146 32.8992 33.1621 32.8009C33.6539 32.6042 34.0964 32.3583 34.4899 32.0632C35.7685 31.4239 36.9979 30.5388 38.0306 29.5552L40.0468 31.5715C36.8503 34.7188 32.572 36.4892 28.0969 36.6367ZM36.0635 10.9173L36.752 10.2288C36.9487 10.4255 37.1454 10.573 37.4405 10.6222C37.6863 10.6714 37.7847 10.7697 37.8339 11.0156C37.8831 11.2615 38.1289 11.3598 38.3748 11.409C38.6207 11.4582 38.7682 11.7533 38.9649 11.7533C39.1616 11.7533 39.8009 12.6384 40.0468 12.9335C40.1944 13.081 40.3911 13.3269 40.5386 13.1302C40.6861 12.9335 40.6861 12.9827 40.7845 12.9335C41.5221 14.6055 41.9647 16.4742 42.0139 18.2938H39.1617C39.1617 17.6545 39.0633 17.0152 38.9158 16.3759C39.0141 16.1792 39.0633 15.9825 39.0633 15.7366C39.0633 15.5399 38.8666 15.4415 38.7191 15.589C38.6207 15.1956 38.4732 14.8514 38.3256 14.5072C38.2765 14.3104 38.2273 14.0646 38.1781 13.8679C38.1781 13.8187 38.0798 13.7695 37.9814 13.6711C37.8831 13.4744 37.8339 13.3269 37.7355 13.1794C37.8831 13.081 37.9322 12.8351 37.7355 12.8843C37.4405 12.9335 37.6372 12.7368 37.5388 12.6384C37.4405 12.5401 37.4405 12.6384 37.3913 12.6876C36.9979 12.0975 36.6045 11.5565 36.1127 11.0156V10.9664C36.0143 10.9664 36.0143 10.9173 36.0635 10.9173ZM37.7847 27.5882C37.6863 27.3915 37.6372 27.1456 37.5388 26.9489C37.4896 26.7522 37.0962 26.7522 37.0962 26.8505C37.0962 27.0472 37.0962 27.2439 37.047 27.4406V27.4898L36.0143 26.4571C37.8831 24.4409 38.9649 21.8345 39.0633 19.0806H41.9155C41.8172 22.5721 40.4402 25.9162 38.0306 28.4242L37.8831 28.2766C37.9322 28.0799 37.8831 27.834 37.7847 27.5882ZM35.4242 29.5552C35.5717 29.3093 35.8668 28.8668 36.0143 28.6209C36.1619 28.375 35.6209 28.0308 35.3259 27.9324C35.0308 27.834 35.0308 27.6865 35.0308 27.4406C35.1783 27.3423 35.3259 27.1948 35.4734 27.0472L37.4896 29.0635C36.8012 29.7028 36.1127 30.2437 35.3259 30.7355C35.2767 30.6371 35.6209 30.2929 35.7193 30.1454C35.8176 29.9978 35.3259 29.8011 35.4242 29.5552ZM36.6536 17.802C36.4078 17.4578 36.752 17.4086 37.0962 17.261C37.2929 17.1627 37.5388 17.3102 37.5388 17.2119C37.5388 17.1135 37.6372 16.9168 37.7355 16.8676C37.8339 16.8185 37.9814 16.7201 38.0306 16.6218C38.0306 16.7201 38.0798 16.8185 38.0798 16.9168C37.9814 17.1135 37.9322 17.2611 37.9322 17.4578C37.9322 17.6053 37.9322 17.802 38.0798 17.4578C38.0798 17.4086 38.1289 17.4086 38.1289 17.3594C38.2273 17.7036 38.2273 17.9987 38.2273 18.2938H36.1127V18.2446C36.2602 17.9987 36.8012 18.0479 36.6536 17.802ZM37.047 13.7695C37.047 13.7695 37.0471 13.8187 36.9979 13.8187C36.9487 13.8679 36.7028 13.4744 36.7028 13.7695C36.7028 14.0646 36.8012 14.1629 36.9979 14.2121C37.1946 14.2613 37.0962 14.3596 37.2438 14.4088C37.2929 14.4088 37.3913 14.458 37.4405 14.5072C37.6863 15.0481 37.8339 15.589 37.9814 16.1792C37.8831 16.2283 37.8339 16.2775 37.7847 16.3267C37.6863 16.425 37.7355 16.6218 37.6372 16.7693C37.4896 17.0152 37.4405 17.1627 37.047 17.0643C36.8012 16.966 36.9979 16.6709 37.047 16.425C37.0962 16.1792 37.1946 16.2283 37.1946 16.0808C37.1946 15.9333 36.7028 15.3923 36.4569 15.589C36.211 15.7857 36.2602 15.9825 36.0635 16.1792C35.9652 16.2775 35.8668 16.2775 35.7193 16.1792C35.5717 16.0808 35.5226 15.9825 35.5717 15.8841C35.6209 15.7857 35.2275 15.3432 35.08 15.1464C34.8833 14.9006 34.5882 14.753 34.2932 14.753C34.0473 14.3104 33.703 13.8679 33.3588 13.4744L35.375 11.4582C36.0635 12.1958 36.6045 12.9335 37.047 13.7695ZM33.6539 15.1464L33.5555 15.294C33.5063 15.3923 33.2604 15.1956 33.2113 15.2448C33.1621 15.294 33.5555 15.7857 33.1621 15.6382C32.7687 15.4907 33.0146 15.4907 33.0146 15.3432C33.0146 15.1956 32.6703 15.0973 32.867 14.9989C33.0637 14.9006 32.867 14.753 33.0637 14.7039C33.2604 14.6547 33.2113 14.458 32.9654 14.4088C32.7195 14.3596 32.7687 14.9497 32.6211 14.8514C32.4736 14.8022 32.3261 14.8022 32.1786 14.8022L32.867 14.1137C32.9654 14.1629 33.0146 14.1629 33.1129 14.1629C33.2113 14.5563 33.4571 14.8514 33.6539 15.1464ZM32.867 25.1293C33.1621 25.1785 33.5063 25.2277 33.8014 25.326C33.9981 25.4244 34.1456 25.6211 34.2932 25.3752C34.5882 24.9326 34.7849 24.4409 34.8833 23.8999C34.9816 23.1623 34.8341 22.9164 34.7357 22.9164C34.6374 22.9164 34.4407 23.1131 34.244 23.1131C34.1456 23.1131 34.1456 23.3098 34.1456 23.4573C34.1456 23.6048 33.9489 23.7524 33.8997 23.654C33.8506 23.5557 33.7522 23.6048 33.8014 23.7032C33.8506 23.8016 33.408 23.7524 33.2113 23.654C32.9162 23.5065 33.5555 23.5065 33.8506 23.2606C34.0964 23.0639 34.3423 22.818 34.5882 22.5721C34.7357 22.3263 34.7357 22.0312 34.9816 21.8345C35.2275 21.6378 35.6209 21.687 35.6701 21.3919C35.7193 21.0968 35.7685 21.146 35.916 21.1952C36.0635 21.2444 37.4405 21.146 37.4405 20.7034C37.4405 20.5067 37.1454 20.2608 36.8503 20.2117C36.6536 20.2117 36.6045 19.8182 36.5061 19.6215C36.4078 19.4248 36.3094 19.2281 36.1619 19.0314H38.2273C38.1289 21.5394 37.1454 23.9491 35.4242 25.8178L35.375 25.7686V25.5719C35.4242 25.1785 35.1292 24.5392 35.0308 24.6376C34.9325 24.7359 35.0308 24.7359 34.7357 25.1785C34.6374 25.326 34.4899 25.5719 34.2932 25.5719C34.0964 25.5719 34.0964 25.4736 33.8014 25.5227C33.5555 25.5719 33.2604 25.5719 33.0146 25.5227C32.572 25.3752 32.1294 25.1785 31.6868 24.8834C31.736 24.8343 31.8835 24.9326 31.8835 24.7851C31.8835 24.6376 32.6703 25.0802 32.867 25.1293ZM40.5878 31.0797L38.5715 29.0635C41.1287 26.3587 42.604 22.818 42.7024 19.1298H45.6038C45.5054 23.6048 43.7351 27.834 40.5878 31.0797ZM45.6038 18.2938H42.7024C42.6532 16.1792 42.1614 14.1137 41.2271 12.1958L41.2762 12.1467C41.473 11.95 40.3419 10.4747 40.1452 10.3271C39.9485 10.1796 39.7518 9.93372 39.5059 9.68783C39.1125 9.29442 38.7191 8.85183 38.424 8.40924L40.5386 6.29464C43.7351 9.5403 45.5054 13.8187 45.6038 18.2938ZM28.0969 0.786845C32.572 0.885198 36.8503 2.65556 40.096 5.75369L38.1289 7.72076C38.0306 7.67159 37.9322 7.62241 37.9814 7.52406C38.0798 7.37653 37.8339 7.37653 37.7847 6.98311C37.6863 6.5897 37.3913 6.24546 37.047 6.04876C36.8012 5.90123 36.6536 5.70452 36.4078 5.60616C36.1619 5.50781 35.6701 5.21275 35.4242 5.3111C35.2767 5.36028 35.08 5.40946 34.9325 5.40946C32.8179 4.27839 30.5065 3.68827 28.1461 3.6391L28.0969 0.786845ZM28.0969 4.4751C30.2115 4.52428 32.2277 5.06522 34.1456 5.99958C34.1948 6.29464 34.3423 6.63888 34.539 6.88476C34.6374 7.13064 34.7849 7.32735 34.9325 7.57323C35.08 7.72076 34.9816 8.01582 35.0308 8.26171C35.0308 8.36006 35.1292 8.45841 35.1783 8.55677V8.95018C35.1783 8.99936 35.375 8.99936 35.5226 8.90101C35.6701 8.80265 35.7685 8.60594 35.9652 8.65512C36.1619 8.7043 36.4078 9.09771 36.5553 9.3436L35.6209 10.278C35.5226 10.0812 35.4242 9.83536 35.4734 9.83536C35.5226 9.83536 35.6209 9.88454 35.6701 9.88454C35.8668 9.88454 35.5226 9.73701 35.5226 9.68783C35.375 9.5403 35.375 9.3436 35.1783 9.19607C34.9816 9.04854 34.6866 9.14689 34.5882 8.95018C34.3915 8.60595 34.1456 8.31088 33.8014 8.065C33.7522 8.065 34.1948 8.60595 34.0473 8.7043C33.8997 8.80265 33.3588 8.36006 33.3096 8.45841C33.2604 8.55677 33.8997 8.80265 34.0964 8.99936C34.1948 9.09771 34.3915 9.39277 34.5882 9.63866C32.7195 8.21253 30.4574 7.4257 28.0969 7.32735V4.4751ZM28.0969 8.11418C30.6049 8.21253 33.0146 9.19607 34.8833 10.9173L32.867 12.9335C31.5393 11.7533 29.8672 11.0648 28.0969 10.9664V8.11418ZM28.0969 11.8024C29.6705 11.9008 31.1458 12.4909 32.2769 13.5236L32.1786 13.622L32.0802 13.5728C31.8343 13.4744 31.3425 13.9662 31.4409 14.0154C31.5393 14.0646 31.736 13.8187 31.8343 13.8679H31.8835L31.0475 14.753C30.8016 14.8514 30.5557 15.0481 30.5557 15.1956V15.2448L30.2607 15.5399L30.1131 15.3923C29.8672 15.1956 29.6214 15.0481 29.3263 14.9497C29.4738 14.8514 29.523 14.7039 29.5722 14.5072C29.5722 14.2121 29.4738 14.3104 29.3263 14.458C29.1788 14.6055 29.0312 14.6547 28.9329 14.8022C28.687 14.7039 28.3919 14.6547 28.1461 14.6547V11.8024H28.0969ZM27.7526 15.4415C27.8018 15.5399 27.7526 15.6382 27.7035 15.6874C27.6051 15.7857 27.3101 15.4415 27.2609 15.7366C27.1625 16.0316 27.4576 15.8841 27.4576 15.9333C27.6051 16.13 27.8018 16.2283 28.0477 16.2775C28.2444 16.2775 28.5395 16.2775 28.5395 16.4742C28.5395 16.5726 28.7854 16.5726 28.8345 16.6709C28.8345 16.8185 28.9821 17.0643 29.0804 17.0152C29.1788 16.966 29.3263 17.0643 29.3755 17.1627C29.4247 17.2611 29.3755 17.3102 29.3263 17.4086C29.1788 17.5561 29.4738 17.5069 29.523 17.802C29.5722 18.0971 29.2771 17.9003 29.228 18.0971C29.1296 18.2446 29.0312 18.3429 28.9329 18.4905C28.8837 18.5396 28.9821 18.638 29.0312 18.5888C29.0804 18.5396 29.1788 18.3921 29.3263 18.3921C29.4738 18.3921 29.6214 18.9331 29.7689 18.9822C29.9164 19.0314 29.8672 19.2281 29.9164 19.2773C29.9656 19.3265 29.6705 19.2773 29.7197 19.3757C29.7689 19.474 30.064 19.5232 30.064 19.6707C30.0148 19.8182 29.9164 19.9658 29.7197 19.9658C29.5722 19.9658 29.3263 19.6215 29.3263 19.7199C29.3263 19.8182 29.4247 20.1133 29.5722 20.1133C29.7197 20.1133 30.064 19.9658 29.9164 20.1625C29.7689 20.3592 29.8181 20.6542 29.7197 20.6542C29.6214 20.6542 29.5722 20.6542 29.6705 20.8018C29.7197 20.9493 29.6705 21.0968 29.5722 21.2444C29.4738 21.3427 29.228 21.2444 29.228 21.1952C29.228 21.146 29.523 21.146 29.523 20.9985C29.523 20.851 29.3755 20.8018 29.0804 20.9001C28.9329 20.9493 28.8837 20.851 28.7854 20.851C28.687 20.851 28.3919 21.1952 28.3919 21.2444V21.4902C28.3919 21.687 28.3428 21.8345 28.2444 21.982C28.0477 22.0312 27.9002 22.0312 27.7035 22.0312C26.9166 22.0312 26.1298 21.687 25.5397 21.1952C25.638 21.146 25.7856 21.0968 25.9331 21.0968C26.0806 21.146 26.1298 21.0477 26.2282 20.9985C26.3265 20.9493 26.5724 21.0968 26.7199 20.9985C26.8675 20.9001 27.2117 20.2608 27.1625 20.1133C27.1134 19.9658 27.5068 19.7199 27.4576 19.6707C27.4084 19.6215 27.3592 19.7199 27.3592 19.6707C27.3592 19.6215 27.4576 19.6215 27.3592 19.4248C27.2609 19.2281 27.1134 19.3265 27.015 19.3265C26.8675 19.2281 26.6216 19.1789 26.5724 19.2281C26.5232 19.2773 26.3757 19.1298 26.3265 19.1789C26.2773 19.1789 26.179 19.2281 26.179 19.3265C26.1298 19.4248 26.2282 19.5232 26.2282 19.6215C26.179 19.8182 25.8839 19.9658 25.8839 20.1133C25.8839 20.2608 25.7364 20.1625 25.6872 20.2117C25.638 20.2608 25.6872 20.3592 25.5889 20.3592C25.4905 20.3592 25.343 20.6051 25.2446 20.8018C25.0971 20.6051 24.9496 20.3592 24.802 20.1625C24.9004 20.1133 24.9988 20.0641 25.0479 20.1133C25.1955 20.2117 25.7856 19.1789 25.6872 18.8839C25.5889 18.5888 25.4413 18.7855 25.2938 18.8347C25.1463 18.8839 25.1463 18.7364 25.1955 18.6872C25.2446 18.638 25.8839 18.638 25.5397 18.4413C25.3922 18.3429 24.9988 18.3429 25.0479 18.1954C25.0971 18.0479 25.2938 18.1954 25.343 18.1954C25.5889 18.2938 25.7364 17.802 25.8839 17.802C26.1298 17.802 26.0315 17.3102 25.7856 17.4578C25.5397 17.6053 25.4413 17.5561 25.343 17.7036C25.2446 17.8512 24.9988 18.0479 24.9988 17.8512C24.9988 17.7528 25.5397 17.4578 25.638 17.3102C25.7364 17.2119 25.8348 17.0643 25.8839 16.9168C25.9331 16.7693 26.6216 16.6709 26.7691 16.5726C26.8675 16.4742 26.9658 16.3267 26.9658 16.1792C26.9658 16.0316 26.7691 16.0808 26.7199 15.9825C26.6708 15.8841 26.9658 15.9825 26.9658 15.8349C26.9658 15.6874 26.7199 15.8349 26.6216 15.7366C26.6216 15.6874 26.6216 15.6874 26.6708 15.6382C27.1134 15.4907 27.4084 15.4415 27.7526 15.4415H27.851ZM27.3101 0.786845V3.6391C23.6218 3.73745 20.0811 5.21275 17.3764 7.76994L15.3601 5.75369C18.5566 2.65556 22.835 0.885198 27.3101 0.786845ZM14.7208 6.34381L16.7371 8.36006C14.1799 11.0648 12.7046 14.6055 12.6062 18.2938H9.75396C9.90149 13.8187 11.6719 9.5403 14.7208 6.34381Z" fill="#009EDB"/>
</g>
<defs>
<clipPath id="clip0_20213_10038">
<rect width="146.694" height="44.8" fill="white" transform="translate(0.852966)"/>
</clipPath>
</defs>
</svg>
