<svg width="178" height="45" viewBox="0 0 178 45" fill="none" xmlns="http://www.w3.org/2000/svg">
<g clip-path="url(#clip0_20213_10029)">
<path d="M90.7284 7.90588H99.3133L103.366 25.3832H103.549L107.702 7.90588H116.044V31.8515H110.935V13.7694H110.703L106.205 31.8502H100.466L96.0704 13.7694H95.8382V31.8502H90.7284V7.90588ZM2.43187e-05 7.90588H15.9675V12.3674H5.43221V17.331H15.4938V21.6621H5.43089V27.382H15.9662V31.8515H2.43187e-05V7.90588ZM23.2626 31.8515L28.7333 24.9075L32.146 28.3162L24.3374 37.9733H30.4476L35.4472 31.5748L44.856 41.0315H52.2294L38.7074 27.6021L49.3568 14.3123H43.2452L35.3743 24.2921L31.9669 20.9124L40.7229 10.0207H34.6259L28.6484 17.6196L25.4002 14.3123H18.129L25.4533 21.616L17.175 31.8515H23.2626ZM146.067 31.8515L146.121 30.5009C146.489 30.775 148.114 32.2534 151.52 32.2534C155.997 32.2534 160.151 28.2912 160.151 23.0839C160.151 17.866 156.252 13.9051 151.58 13.9051C148.007 13.9051 146.372 15.5232 146.121 15.7037V7.90588H141.074V31.8515H146.067ZM154.82 23.072C154.82 25.5439 152.9 27.4664 150.386 27.4664C147.843 27.4664 145.934 25.5505 145.934 23.0839C145.934 20.5869 147.869 18.6921 150.391 18.6921C152.925 18.6921 154.82 20.604 154.82 23.072ZM172.536 7.90588H177.8V31.8515H172.536V7.90588ZM163.215 12.3674H168.477V7.90588H163.215V12.3674ZM163.215 14.3123H168.477V31.8515H163.215V14.3123ZM47.7831 23.0852C47.7831 28.1449 51.8871 32.2534 57.2569 32.2534C62.6307 32.2534 66.7334 28.1436 66.7334 23.0852C66.7334 18.0267 62.6281 13.9064 57.2583 13.9064C51.8884 13.9064 47.7831 18.0254 47.7831 23.0839M52.9075 23.0839C52.9075 20.6594 54.7412 18.6671 57.2914 18.6671C59.8417 18.6671 61.6754 20.6581 61.6754 23.0839C61.6754 25.5096 59.8417 27.4993 57.2914 27.4993C54.7412 27.4993 52.9075 25.507 52.9075 23.0839ZM119.084 23.0812C119.084 28.141 123.188 32.2494 128.557 32.2494C133.931 32.2494 138.034 28.141 138.034 23.0812C138.034 18.0228 133.93 13.9038 128.559 13.9038C123.188 13.9038 119.084 18.0228 119.084 23.0812ZM124.208 23.0812C124.208 20.6568 126.042 18.6645 128.592 18.6645C131.142 18.6645 132.976 20.6554 132.976 23.0812C132.976 25.507 131.142 27.498 128.592 27.498C126.042 27.498 124.208 25.5057 124.208 23.0812ZM69.6339 14.3123H74.55V15.9712C75.0767 15.5166 76.7818 13.9038 79.9291 13.9038C83.6324 13.9038 86.574 16.6063 86.574 20.8478V31.8502H81.3807V22.2089C81.3807 19.8464 80.2157 18.4444 78.1033 18.4444C76.0546 18.4444 74.8233 19.7647 74.8233 22.2089V31.8515H69.6339V14.3123Z" fill="#D5000A"/>
</g>
<defs>
<clipPath id="clip0_20213_10029">
<rect width="177.8" height="44.8" fill="white"/>
</clipPath>
</defs>
</svg>
