<svg width="128" height="128" viewBox="0 0 128 128" fill="none" xmlns="http://www.w3.org/2000/svg">
<style>
  path { fill: #1a1a1a; }
  @media (prefers-color-scheme: dark) {
    path { fill: #ffffff; }
  }
</style>
<path d="M39.9004 69.1006H52.3428C50.7156 66.3826 49.9004 62.9497 49.9004 58.7998C49.9004 54.9331 50.9673 51.5329 53.1006 48.5996C55.2339 45.5997 58.1672 43.2662 61.9004 41.5996C65.7003 39.933 70.0338 39.0996 74.9004 39.0996C79.9668 39.0996 84.4333 39.966 88.2998 41.6992C92.2331 43.4325 95.3339 45.8996 97.6006 49.0996C99.9338 52.2996 101.233 56.1001 101.5 60.5H88.2998C87.8331 57.8334 86.4339 55.5659 84.1006 53.6992C81.834 51.7659 78.7669 50.7999 74.9004 50.7998C71.3673 50.7998 68.6006 51.4996 66.6006 52.8994C64.6007 54.2327 63.6007 56.1661 63.6006 58.6992C63.6006 60.8992 64.3332 62.5998 65.7998 63.7998C67.2665 64.9331 69.2335 65.8663 71.7002 66.5996L83.5 69.8994C86.8998 70.8327 89.9999 72.0993 92.7998 73.6992C95.6665 75.2992 97.9339 77.4998 99.6006 80.2998C101.334 83.0998 102.2 86.8335 102.2 91.5C102.2 95.7663 101.1 99.4994 98.9004 102.699C96.7005 105.832 93.6004 108.3 89.6006 110.1C85.6674 111.833 81.0004 112.699 75.6006 112.699C70.334 112.699 65.6004 111.699 61.4004 109.699C57.2004 107.633 53.8331 104.733 51.2998 101C48.8331 97.2 47.4339 92.7329 47.1006 87.5996H60.2998C60.4998 90.1329 61.3002 92.4333 62.7002 94.5C64.1002 96.4999 65.9007 98.0999 68.1006 99.2998C70.3671 100.433 72.8674 101 75.6006 101C79.4669 101 82.6001 100.166 85 98.5C87.3999 96.7667 88.6005 94.533 88.6006 91.7998C88.6006 89.3332 87.7671 87.3661 86.1006 85.8994C84.5006 84.4328 82.4336 83.3659 79.9004 82.6992L73.7002 80.9648V81H26.5V8.90039H39.9004V69.1006Z"/>
</svg>
